<?xml version="1.0" encoding="utf-8" ?>
<svg xmlns="http://www.w3.org/2000/svg" xmlns:xlink="http://www.w3.org/1999/xlink" width="512" height="512">
	<path fill="#ED6A5A" transform="scale(0.8 0.8)" d="M135.233 149.566L74.4405 149.619C61.3276 149.617 55.7472 147.754 55.6541 132.027L55.6164 120.253C55.5981 100.526 59.6767 98.5684 77.5791 98.528L128.855 98.4766C131.181 98.478 133.476 98.3435 135.715 99.0916L142.6 101.883C161.185 111.464 160.366 131.687 165.867 149.059C162.454 149.757 158.811 149.57 155.352 149.564L135.233 149.566Z"/>
	<path fill="#626261" transform="scale(0.8 0.8)" d="M256.729 456.257C278.658 460.051 296.68 478.702 296.922 501.293C297.009 509.432 296.016 517.664 291.678 524.757C265.457 567.637 205.852 550.871 204.521 505.047C203.868 482.574 218.568 461.243 241.259 456.703C241.724 456.61 242.158 456.569 242.632 456.571L256.729 456.257Z"/>
	<path fill="#626261" transform="scale(0.8 0.8)" d="M459.897 456.52L471.359 456.656C503.769 460.939 519.841 499.08 503.349 527.127L502.956 527.802C481.092 563.602 428.83 554.641 418.345 513.438C411.673 487.214 432.099 457.101 459.897 456.52Z"/>
	<path fill="#ED6A5A" transform="scale(0.8 0.8)" d="M267.329 238.583C259.357 208.032 268.601 172.997 289.981 149.688C295.914 143.22 294.528 145.666 295.034 137.225L295.684 129.844C295.99 121.827 295.59 114.037 296.916 106.074C300.936 114.56 306.674 122.315 311.527 130.332C313.295 129.702 314.976 128.428 316.707 127.624C346.995 113.555 378.178 112.711 408.424 128.928C410.511 126.853 412.165 124.131 413.801 121.695L424.666 104.489C424.661 112.4 426.251 120.033 426.552 127.834L426.719 140.671C426.768 145.492 426.388 144.334 429.45 147.651C452.054 172.141 461.391 206.044 453.218 238.46L421.202 238.592C418.948 238.596 410.477 239.13 408.976 238.241C406.812 239.048 402.807 238.513 400.437 238.504L390.082 238.109C389.161 238.662 387.837 238.542 386.875 238.546L339.997 238.632C337.196 238.647 333.804 239.258 331.138 238.263L330.917 238.424C329.36 238.731 327.487 238.536 325.892 238.521L316.334 238.477C314.883 238.513 312.822 239.348 311.601 238.438L311.481 236.116L311.214 238.52L267.329 238.583ZM392.34 167.559C370.853 171.41 371.657 199.143 395.278 199.874C417.063 198.23 414.587 167.702 392.34 167.559ZM327.939 167.572C305.88 170.92 310.395 203.29 332.697 199.859C355.252 193.756 348.144 166.439 327.939 167.572ZM311.481 236.116L311.601 238.438C312.822 239.348 314.883 238.513 316.334 238.477L325.892 238.521C327.487 238.536 329.36 238.731 330.917 238.424L331.138 238.123C327.708 232.496 323.272 221.73 316.154 227.261C313.124 229.615 311.941 232.421 311.481 236.116ZM390.082 238.109L400.437 238.504C402.807 238.513 406.812 239.048 408.976 238.149C405.071 223.288 394.226 222.205 390.082 238.109Z"/>
	<path fill="#9BC1BC" transform="scale(0.8 0.8)" d="M165.867 149.131C169.658 158.153 171.745 168.039 174.427 177.502L192.102 239.062L259.109 239.09C261.818 239.086 264.652 239.256 267.329 238.838L311.214 238.52L311.481 237.113L311.601 238.438C312.822 239.348 314.883 238.513 316.334 238.477L325.892 238.521C327.487 238.536 329.36 238.731 330.917 238.424L331.138 238.333C333.804 239.258 337.196 238.647 339.997 238.632L386.875 238.546C387.837 238.542 389.161 238.662 390.082 238.441L400.437 238.504C402.807 238.513 406.812 239.048 408.976 238.373C410.477 239.13 418.948 238.596 421.202 238.592L453.218 238.553L453.505 238.534C455.615 238.75 457.729 238.646 459.844 238.747L522.337 239.106C527.464 239.117 530.511 239.085 534.844 242.144L535.147 242.35C538.718 244.845 541.142 248.886 541.939 253.125L542.015 253.513C542.841 258.121 540.918 262.826 539.009 266.913L538.99 266.927L519.144 319.023C518.588 320.511 518.085 322.451 517.264 323.801L489.174 402.617C486.717 409.711 484.568 418.189 480.095 424.296C487.836 429.368 493.118 439.482 487.426 448.109C484.135 453.096 478.954 454.631 473.487 456.152C472.902 456.315 471.375 456.475 471.359 457.098L459.897 456.332L459.857 456.146C450.023 453.695 436.288 454.736 426.128 454.732L263.493 454.899C261.264 454.99 258.709 455.078 256.729 456.199L242.632 456.485L244.062 456.111C221.444 453.643 219.984 441.928 214.352 422.363L139.663 168.302C137.957 162.274 135.529 155.669 135.233 149.407L155.352 149.564C158.811 149.57 162.454 149.757 165.867 149.131Z"/>
	<path fill="#F4F1BB" transform="scale(0.8 0.8)" d="M267.329 238.838L311.214 238.52L311.481 237.113L311.601 238.438C312.822 239.348 314.883 238.513 316.334 238.477L325.892 238.521C327.487 238.536 329.36 238.731 330.917 238.424L331.138 238.333C333.804 239.258 337.196 238.647 339.997 238.632L386.875 238.546C387.837 238.542 389.161 238.662 390.082 238.441L400.437 238.504C402.807 238.513 406.812 239.048 408.976 238.373C410.477 239.13 418.948 238.596 421.202 238.592L453.218 238.553L453.505 238.534C455.615 238.75 457.729 238.646 459.844 238.747L522.337 239.106C527.464 239.117 530.511 239.085 534.844 242.144L535.147 242.35C538.718 244.845 541.142 248.886 541.939 253.125L542.015 253.513C542.841 258.121 540.918 262.826 539.009 266.913L538.99 266.927L201.045 266.939C199.911 265.393 199.66 262.755 199.06 260.884L192.102 239.062L259.109 239.09C261.818 239.086 264.652 239.256 267.329 238.838Z"/>
	<path fill="#F4F1BB" transform="scale(0.8 0.8)" d="M480.095 424.296L246.696 423.635C245.438 421.994 245.483 419.937 244.865 418.029L219.049 329.929C218.56 328.006 218.308 326.016 217.667 324.14L517.264 323.765L489.174 402.617C486.717 409.711 484.568 418.189 480.095 424.296Z"/>
</svg>
