<?xml version="1.0" encoding="utf-8" ?>
<svg xmlns="http://www.w3.org/2000/svg" xmlns:xlink="http://www.w3.org/1999/xlink" width="512" height="512">
	<path fill="#172C44" transform="scale(0.8 0.8)" d="M330.252 80.4423C332.717 80.0312 335.589 80.278 338.105 80.2704C379.338 80.1448 418.717 103.196 438.689 139.3C440.827 143.165 442.976 147.029 444.18 151.301C444.333 151.845 444.15 151.772 444.623 151.658C484.002 142.187 521.923 168.15 531.568 206.588C536.479 226.158 531.703 247.678 521.4 264.833C533.629 264.593 548.505 265.626 551.231 280.78L551.312 281.25C553.293 291.543 546.646 303.671 543.619 313.227L499.632 456.092C497.478 463.028 495.465 469.93 491.861 476.283C496.921 477.885 501.791 480.123 505.627 483.896C517.632 495.707 512.5 517.719 495.52 521.671C491.074 522.706 485.67 522.137 481.083 522.138L456.45 522.374C459.608 527.84 460.236 536.723 458.754 542.705C450.653 575.407 397.214 565.399 406.074 529.894L406.21 529.375C406.807 527.022 407.585 524.773 408.655 522.592L257.266 522.177L234.704 522.299C250.444 563.499 201.385 574.395 187.673 549.972L187.397 549.469C186.204 547.347 185.144 545.017 184.644 542.62L184.531 542.047C183.111 535.054 184.412 526.767 188.238 520.725C174.699 521.501 161.172 521.328 152.59 508.893C147.976 502.208 148.61 494.791 148.617 487.073C148.638 463.118 158.834 458.989 180.751 458.227L122.417 188.924C111.423 188.081 88.8742 191.213 80.1562 185.289C62.4166 173.235 65.4952 148.125 84.8438 140.56C90.3274 138.416 96.1634 139.121 101.96 139.113L143.164 139.105C170.685 139.127 172.248 150.215 174.822 173.051L175.72 172.174C191.666 156.734 208.788 152.167 230.024 152.518C246.609 110.861 285.355 83.5489 330.252 80.4423Z"/>
	<path fill="#9BC1BC" transform="scale(0.8 0.8)" d="M430.772 521.659C452.413 520.539 451.872 547.115 434.602 550.942C413.478 552.174 411 524.026 430.772 521.659Z"/>
	<path fill="#9BC1BC" transform="scale(0.8 0.8)" d="M208.539 521.344C230.64 520.172 231.675 545.866 214.046 550.899L213.39 551.03C193.922 554.321 188.091 524.368 208.539 521.344Z"/>
	<path fill="#FE9B93" transform="scale(0.8 0.8)" d="M154.218 285.169L152.898 277.166L512.378 276.89C519.812 276.888 538.939 273.451 539.671 284.062L539.675 285.668C535.351 284.353 529.718 284.645 525.218 284.646L154.218 285.169Z"/>
	<path fill="#9BC1BC" transform="scale(0.8 0.8)" d="M94.0976 150.754L132.326 150.84C138.335 150.845 144.867 150.316 150.814 150.971C161.668 152.167 160.848 162.069 162.224 170.094L181.044 265.398L167.969 265.138L149.842 265.191C149.194 263.369 149.036 261.174 148.656 259.262L138.839 209.82C137.163 201.24 135.772 192.451 133.493 184.008C131.228 175.615 130.918 176.698 122.409 176.673L100.211 176.665C96.7216 176.663 90.9377 177.341 87.8986 175.575C75.6185 168.441 78.2803 151.709 94.0976 150.754Z"/>
	<path fill="#9BC1BC" transform="scale(0.8 0.8)" d="M172.16 470.424L183.034 470.409L186.345 477.577C192.744 489.167 217.366 486.449 228.984 486.463L463.657 486.469C471.863 486.476 480.304 486.082 488.487 486.574C500.252 487.282 507.815 508.739 490.343 510.268L188.832 510.069C180.043 509.597 167.879 510.665 163.013 503.045C160.048 498.402 159.609 484.396 161.055 478.553L161.168 478.125C161.369 477.327 161.512 476.451 161.978 475.755L162.344 475.29C165.005 471.726 167.769 470.97 172.16 470.424Z"/>
	<path fill="#F4F1BB" transform="scale(0.8 0.8)" d="M329.836 92.3159L346.711 92.2967C385.755 94.9014 421.943 122.979 434.934 159.644C438.148 168.712 441.575 164.645 448.523 162.656C451.522 161.798 454.68 161.537 457.787 161.483C509.528 160.577 541.022 218.066 509.775 259.918C503.621 268.16 504.304 265.143 492.918 265.127L372.822 265.131C356.825 265.143 194.504 265.594 193.401 264.904L177.635 187.139C190.701 172.049 209.187 162.716 229.375 164.755C233.066 165.128 235.61 166.709 237.814 162.998C240.003 159.312 241.617 155.148 243.45 151.264C259.608 117.01 291.862 95.546 329.836 92.3159Z"/>
	<path fill="#172C44" transform="scale(0.8 0.8)" d="M282.976 190.739L290.219 190.65C292.882 190.658 296.239 190.485 298.645 191.817C302.865 194.154 300.504 201.279 293.427 202.319C289.305 202.704 281.106 203.446 277.777 201.123C272.517 197.453 275.58 191.481 282.976 190.739Z"/>
	<path fill="#172C44" transform="scale(0.8 0.8)" d="M383.862 190.759C387.231 190.494 393.244 189.996 396.137 191.871C402.476 195.98 398.472 203.014 389.307 203.115C385.725 202.726 378.999 203.435 376.028 201.448L375.023 200.745C373.017 199.105 373.499 194.648 375.058 192.928C377.147 190.621 380.99 190.922 383.862 190.759Z"/>
	<path fill="#172C44" transform="scale(0.8 0.8)" d="M300.652 152.5C308.618 152.018 308.419 158.049 308.432 163.886C308.444 169.456 308.955 175.622 307.796 181.088L304.892 181.534C298.243 181.605 296.76 181.068 296.677 173.974L296.598 163.247C296.58 158.365 295.704 155.097 300.652 152.5Z"/>
	<path fill="#172C44" transform="scale(0.8 0.8)" d="M369.108 152.539C376.683 151.266 376.906 156.613 376.913 162.117C376.918 166.364 378.595 180.978 373.355 182.487C364.856 181.456 365.312 178.769 365.243 171.834L365.152 161.664C365.131 157.167 364.817 155.014 369.108 152.539Z"/>
	<path fill="#172C44" transform="scale(0.8 0.8)" d="M325.204 189.477L348.59 189.491C354 189.507 358.959 188.202 363.284 191.981C364.508 195.02 364.188 212.406 363.325 215.887C360.898 225.671 355.15 231.81 346.708 236.972C343.444 238.878 339.343 241.083 335.469 240.52C323.137 238.728 313.565 227.109 311.419 215.29C310.483 210.135 310.724 196.162 311.574 191.275C316.077 189.118 320.311 189.535 325.204 189.477Z"/>
	<path fill="#ED6A5A" transform="scale(0.8 0.8)" d="M322.768 201.719L352.277 201.511L352.394 207.713C352.47 215.512 351.748 217.656 346.303 223.206C342.64 226.476 338.683 230.283 333.81 227.581C327.251 223.943 319.053 208.136 322.768 201.719Z"/>
	<path fill="#ED6A5A" transform="scale(0.8 0.8)" d="M154.218 285.077L525.218 284.646C529.718 284.645 535.351 284.353 539.675 285.668C538.388 292.923 535.719 299.924 533.557 306.958L489.78 448.34C487.468 455.723 486.178 464.529 481.287 470.751C479.021 473.745 477.689 475.862 473.839 475.893L206.873 475.9C200.911 475.808 198.102 475.057 195.564 469.328C193.179 463.977 192.408 457.54 191.136 451.841L154.218 285.077Z"/>
	<path fill="#172C44" transform="scale(0.8 0.8)" d="M334.518 332.344C344.874 328.59 341.881 349.859 341.882 354.623L341.884 414.592C341.892 421.212 343.642 425.487 338.108 430.318C334.94 431.511 332.52 428.577 330.761 426.307L330.906 344.775C330.903 340.252 329.892 335.025 334.518 332.344Z"/>
	<path fill="#172C44" transform="scale(0.8 0.8)" d="M250.597 331.406C254.586 330.678 257.617 333.908 257.699 337.656L257.777 416.92C257.828 422.051 259.678 428.011 254.219 430.868C250.418 431.201 246.551 428.683 246.426 424.531L246.498 342.104C246.504 338 246.223 333.463 250.597 331.406Z"/>
	<path fill="#172C44" transform="scale(0.8 0.8)" d="M420.374 332.262L421.796 332.41C425.223 332.926 426.855 335.34 426.967 338.555L427.055 418.687C427.056 424.9 428.079 426.875 422.344 430.396C414.674 430.376 415.581 424.584 415.586 418.598L415.561 338.232C415.676 335.037 417.149 332.997 420.374 332.262Z"/>
</svg>
