<?xml version="1.0" encoding="utf-8" ?>
<svg xmlns="http://www.w3.org/2000/svg" xmlns:xlink="http://www.w3.org/1999/xlink" width="1024" height="683">
	<path transform="matrix(0.666667 0 0 0.666992 0 -0.00195312)" d="M1536 549.34L1536 1024L-0 1024L0 -0L1536 0L1536 541.011L1536 549.34ZM1536 549.34C1527.44 554.211 1517.28 554.914 1507.69 555.352C1515.53 561.427 1522.1 568.061 1527.26 576.606C1530.08 581.275 1536.79 594.219 1535.1 599.81C1534.55 601.652 1533.2 603.059 1531.5 603.908C1524.55 607.38 1511.75 602.38 1504.7 600.238L1512.97 613.39C1517.54 622.296 1521.53 635.857 1518.19 645.701C1517.32 648.246 1515.98 650.084 1513.5 651.247C1504.77 651.697 1496.07 645.974 1488.49 642.131C1492.25 650.376 1495.73 658.417 1496.51 667.562C1497.05 673.876 1497.25 684.605 1492.85 689.654C1491.33 691.397 1489.5 692.433 1487.1 692.458C1478.45 692.549 1468.98 681.88 1462.82 676.427L1464.57 687.663C1465.36 695.747 1465.19 709.272 1459.39 715.651C1457.6 717.621 1455.84 718.635 1453.12 718.664C1442.35 718.778 1431.62 706.344 1424.85 699.355C1425.49 707.886 1426.24 717.017 1423.96 725.386C1422.71 730.007 1419.67 734.434 1419.63 739.285L1421.12 790.322L1422.54 850.966L1423.42 880.876C1423.55 885.563 1424.45 892.257 1422.38 896.605L1422.13 897.099L1421.87 897.594C1420.14 900.882 1417.91 903.575 1414.95 905.846C1398.31 918.623 1339.37 912.619 1318.48 910.176C1303.36 908.408 1284.35 905.623 1274.23 892.893C1272.36 890.54 1270.74 887.306 1270.06 884.38C1267.22 872.246 1268.22 858.253 1267.81 845.853L1265.61 786.437C1265.3 777.749 1267.38 759.548 1262.06 752.809C1257.72 751.231 1252.53 751.092 1247.96 750.504C1237.94 749.215 1228.93 747.704 1218.84 748.853C1216.6 747.431 1214.18 745.938 1211.55 745.391C1204.73 743.97 1197.28 743.725 1190.33 743.005L1161 739.394L1048.96 725.155C1032.29 776.093 1002.02 822.303 961.669 857.617C900.187 911.431 821.015 934.592 740.133 929.147C644.445 922.705 556.133 863.95 508.248 781.727C502.044 771.075 496.186 759.939 491.057 748.727L482.959 729.485C482.544 728.462 481.466 724.672 480.778 724.024C479.815 723.115 475.08 722.47 473.655 722.047C470.989 721.254 468.307 719.973 465.976 718.454C462.459 716.162 459.623 712.537 456.871 709.394C453.86 716.377 450.161 723.011 443.053 726.464C437.244 729.286 429.844 729.626 423.768 727.446C414.148 723.994 409.442 715.141 405.344 706.469C402.992 710.123 398.675 713.188 396.686 716.756C395.404 719.057 395.697 735.924 395.554 739.523L391.54 848.082C391.008 862.377 392.126 878.661 389.537 892.674C388.871 896.28 387.332 899.506 384.678 902.075C373.148 913.238 352.542 913.824 337.349 913.385C313.088 912.684 257.83 910.197 240.734 891.52C237.394 887.871 235.402 883.609 234.727 878.719C233.724 871.451 234.362 863.982 234.678 856.686L235.883 826.866L240.143 724.723L113.646 715.533C90.4314 713.899 65.6921 714.101 43.0562 708.607C35.853 706.859 28.611 703.753 23.5194 698.218C13.5785 687.412 13.3868 673.325 13.3817 659.53L13.575 640.774C14.1437 630.576 16.8865 620.5 21.0289 611.203C32.9258 584.502 47.4776 558.743 60.881 532.756L131.33 395.534L211.25 238.792L237.184 187.705L250.902 160.554C253.593 155.766 256.898 151.497 260.989 147.823C275.625 134.678 299.604 138.652 317.635 139.63C331.462 140.379 345.267 142.172 358.884 144.673C371.581 147.005 387.533 149.392 396.49 159.626C401.68 165.557 403.481 173.373 404.352 181.012C405.815 193.855 405.136 206.982 404.635 219.872L402.994 262.542L399.875 353.665L423.167 291.857C425.672 294.023 427.747 299.852 429.174 302.989L439.561 327.143C441.164 331.228 448.718 355.27 450.375 356.524C451.012 355.783 451.606 355.243 452.419 354.686C455.487 352.586 458.747 351.622 462.451 352.496C465.53 353.223 468.219 355.44 469.779 358.174C471.321 360.878 471.618 364.081 470.697 367.048C469.116 372.14 465.547 373.914 461.057 376.125C465.163 377.184 472.388 378.957 476.561 378.559C477.841 378.437 480.542 376.702 481.867 376.154C484.858 374.918 487.42 374.754 490.451 376.04C493.803 377.463 494.067 381.434 496.441 383.412C497.868 384.6 503.002 385.574 505.007 386.266L521.097 392.672C527.141 383.262 534.96 375.698 542.938 367.949C548.35 362.692 553.611 358.328 557.574 351.802C554.031 352.763 551.218 355.596 548.351 357.784C544.712 360.562 540.703 363.181 536.594 365.211C532.315 367.324 528.232 368.049 523.694 366.319C520.677 365.169 518.986 362.486 517.677 359.689C511.268 345.986 518.572 326.335 523.49 313.006C514.726 317.172 504.04 323.213 493.999 322.438C490.201 322.145 486.747 320.515 484.459 317.398C482.196 314.316 482.22 311.1 482.679 307.481C484.72 291.368 498.451 277.496 510.822 268.065C502.736 269.792 489.459 273.06 481.599 269.725C479.435 268.806 477.639 267 476.824 264.778C475.184 260.307 477.477 254.849 479.536 250.923C488.484 233.865 508.251 224.244 525.868 218.894C514.663 217.119 499.77 214.446 491.764 205.785C490.114 204 488.941 201.512 489.073 199.041C489.288 195.042 491.896 191.695 494.78 189.114C509.858 175.624 532.237 176.605 551.036 177.649C543.878 171.884 534.657 165.393 530.228 157.237C528.627 154.287 527.587 150.667 528.753 147.371C529.883 144.177 532.612 141.876 535.641 140.542C551.839 133.404 571.66 142.391 586.799 148.262C580.586 140.338 573.585 131.63 570.575 121.902C569.492 118.403 568.737 114.742 570.8 111.402C572.659 108.393 575.736 106.905 579.079 106.243C593.213 103.443 611.964 116.841 623.11 124.282C620.6 114.99 617.322 105.387 618.796 95.6484C619.391 91.7158 621.337 87.7301 624.699 85.4739C627.706 83.4553 631.516 82.8279 635.04 83.5371C651.904 86.9308 664.076 104.024 673.019 117.496L675.446 101.25C677.777 90.89 683.702 75.776 693.21 70.0351C695.69 68.5379 699.488 67.2013 702.349 68.0068L703.125 68.2596C704.936 68.8333 706.276 69.6156 707.788 70.7403C721.833 81.1886 724.126 99.7641 726.63 115.9C734.619 105.604 742.916 95.0626 754.459 88.5574C759.33 85.8123 766.312 83.4452 771.903 85.1945C774.524 86.0146 777.141 88.5354 778.389 90.9728C783.472 100.902 778.182 113.512 775.021 123.246C783.368 117.121 791.895 111.581 801.842 108.401C807.813 106.493 815.197 104.398 821.065 107.764C823.94 109.414 826.172 112.121 826.971 115.358C829.738 126.569 820.184 139.594 814.572 148.526C818.236 147.374 821.585 145.462 825.176 144.105C833.231 141.062 840.99 138.938 849.611 138.302C855.941 137.836 863.157 137.764 868.067 142.454C870.038 144.336 870.802 146.99 870.732 149.662C870.446 160.597 856.806 171.234 849.531 178.314C869.55 176.676 887.783 177.417 905.68 187.917C910.421 190.699 914.235 194.077 915.644 199.549C915.467 201.866 914.903 203.63 913.479 205.505C906.981 214.062 892.892 215.816 883.005 217.094C895.63 223.622 907.956 230.684 916.708 242.215C920.705 247.481 925.734 254.973 924.467 261.946C924.065 264.159 922.967 266.596 921.028 267.852C913.978 272.415 901.847 269.557 894.008 268.098C899.733 274.308 905.468 280.646 910.148 287.702C914.51 294.277 921.071 307.123 919.093 315.421L918.876 316.202C918.018 319.572 916.19 321.785 914.087 324.488C922.996 329.311 932.054 333.946 940.417 339.687C987.424 371.955 1016.18 418.693 1039.9 469.268L1082.98 392.854L1171.17 236.524L1205.3 176.575C1211.49 165.631 1216.86 152.718 1225.18 143.247C1231.22 136.379 1239.18 131.784 1248.42 131.319C1275.77 129.943 1356.82 134.453 1375.65 151.973C1380.91 156.864 1383.28 162.537 1384.55 169.447C1385.85 176.468 1385.51 184.16 1385.85 191.307L1387.83 237.058L1393.51 393.234C1399.69 391.421 1406.26 389.019 1412.62 391.183C1413.29 391.969 1414.62 393.142 1414.88 394.109C1417.23 402.856 1409.75 415.478 1405.59 422.948C1417.7 417.467 1429.82 413.707 1443.22 413.37C1448.25 413.244 1456.89 412.143 1460.77 415.815C1461.91 418.392 1461.73 420.243 1460.94 422.888C1459.19 428.814 1452.76 437.528 1447.22 440.383L1446.56 440.709L1461.75 439.686C1476.59 440.002 1492.26 444.568 1502.59 455.551L1502.08 456.982C1498.1 467.52 1487.76 472.955 1478.06 477.393C1486.03 478.662 1493.96 479.92 1501.43 483.128C1508.58 486.201 1518.62 490.837 1521.6 498.618C1522.21 500.214 1522.6 501.403 1521.7 502.998C1517.8 509.888 1507.9 512.663 1500.78 514.48C1510.81 518.319 1520.78 523.653 1528.41 531.296C1531.31 534.204 1533.66 537.646 1536 541.011L1536 0L-0 -0L0 1024L1536 1024L1536 549.34ZM254.931 280.953L117.521 582.708L130.686 583.703C140.801 584.384 217.695 590.123 220.84 588.583C216.914 581.142 215.569 575.569 218.045 567.297C219.835 561.318 222.722 556.841 227.261 552.583C229.093 535.117 232.642 517.97 238.586 501.43C240.823 495.207 245.465 487.858 246.578 481.557C248.258 472.045 247.595 461.231 247.926 451.565L250.104 397.03L252.946 332.367C253.86 315.378 255.336 297.942 254.931 280.953ZM1251.76 282.201L1191.41 394.149C1200.13 396.989 1208.36 399.976 1216 405.181L1226.11 412.259C1224.1 403.277 1222.28 394.626 1221.81 385.405C1221.65 382.205 1221.45 378.559 1223.03 375.671C1225.81 374.101 1228.24 374.385 1231.2 375.185C1238.97 377.281 1245.61 381.384 1252.45 385.463L1251.76 282.201Z"/>
	<path fill="#FEFEFE" transform="matrix(0.666667 0 0 0.666992 0 -0.00195312)" d="M823.011 391.971L824.162 392.381C825.659 395.164 826.394 396.083 826.125 399.33C824.718 399.168 823.729 398.621 822.504 397.972C821.826 395.888 822.513 394.03 823.011 391.971Z"/>
	<path fill="#FEFEFE" transform="matrix(0.666667 0 0 0.666992 0 -0.00195312)" d="M457.58 355.962L462 355.727C463.575 356.468 464.821 357.248 465.947 358.608C467.442 360.414 468.211 362.629 467.823 364.982C467.297 368.176 465.357 369.987 462.799 371.716C461.348 372.091 459.395 372.365 457.92 372.07C456.076 371.7 454.026 369.542 453.081 367.965C451.948 366.071 451.746 363.324 452.312 361.213C453.059 358.421 455.238 357.228 457.58 355.962Z"/>
	<path fill="#EE695C" transform="matrix(0.666667 0 0 0.666992 0 -0.00195312)" d="M1248.84 720.526C1250.31 730.205 1252.96 738.16 1257.18 746.918C1253.92 747.421 1249.27 746.25 1245.93 745.829L1233.06 744.573C1239.45 736.815 1244.18 729.438 1248.84 720.526Z"/>
	<path fill="#9BBFBB" transform="matrix(0.666667 0 0 0.666992 0 -0.00195312)" d="M330.077 371.368C332.984 371.395 336.446 371.675 339.216 372.554C344.856 374.345 348.42 381.405 351.094 386.247L329.352 394.586L318 399.6L316.152 397.972C314.609 393.188 314.758 388.294 316.53 383.595C318.981 377.096 324.068 374.127 330.077 371.368Z"/>
	<path fill="#9BBFBB" transform="matrix(0.666667 0 0 0.666992 0 -0.00195312)" d="M423.515 299.089C431.652 314.621 438.257 330.598 443.648 347.28C445.832 354.039 446.812 361.297 449.591 367.834C450.734 370.524 452.468 372.625 454.491 374.705L454.933 375.15L429.937 374.179L397.567 375.923L423.515 299.089Z"/>
	<path fill="#F3F1BB" transform="matrix(0.666667 0 0 0.666992 0 -0.00195312)" d="M552.191 365.714L554.107 365.714L555.138 381.904C555.88 388.412 558.615 396.289 564.191 400.223C566.649 401.956 569.673 402.498 572.602 401.906C582.909 399.823 588.23 390.731 593.752 382.681L595.365 392.087C596.628 400.444 599.405 411.947 606.848 417.057C610.183 419.347 613.833 420.123 617.847 419.22C625.812 417.428 630.73 407.615 634.532 401.228C636.19 410.008 637.23 419.267 642.178 426.906L642.703 427.707L625.52 459.03L612.651 489.847C606.074 475.782 598.864 461.958 589.767 449.339C572.839 425.859 551.041 408.293 525.881 394.283C532.792 383.569 543.062 374.53 552.191 365.714Z"/>
	<path fill="#EE695C" transform="matrix(0.666667 0 0 0.666992 0 -0.00195312)" d="M1383.27 713.852C1391.69 726.619 1400.77 733.731 1415.22 738.727L1417.54 840.353C1418 856.67 1419.73 873.226 1418.88 889.54C1418.72 892.621 1418.22 895.248 1416.36 897.781C1412.15 903.556 1405.05 905.923 1398.25 907.014C1373.44 910.992 1302.88 909.885 1283.46 895.344C1275.99 889.747 1274.75 883.581 1273.64 874.891L1268.98 756.876L1272.21 755.329C1284.77 748.935 1288.2 735.487 1292.23 722.981L1297.23 737.428C1300.35 744.538 1306.89 754.853 1314.58 757.604C1317.21 758.548 1319.28 758.856 1321.88 757.484C1334.2 750.974 1334.34 732.586 1337.31 720.905C1341.63 728.173 1345.72 735.806 1351.45 742.079C1356.48 747.586 1362.24 751.918 1369.88 752.313C1371.27 751.711 1372.51 751.096 1373.62 750.033C1382.91 741.156 1382.74 725.701 1383.27 713.852Z"/>
	<path fill="#EE695C" transform="matrix(0.666667 0 0 0.666992 0 -0.00195312)" d="M1249.68 136.051C1250.25 135.936 1250.79 135.823 1251.38 135.806C1258.83 135.597 1266.42 136.24 1273.88 136.518C1299.83 137.483 1327.6 138.835 1352.57 146.412C1359.72 148.579 1367.64 151.204 1373.22 156.384C1376.74 159.654 1378.95 164.463 1379.7 169.159C1380.94 176.856 1380.57 185.435 1380.86 193.249L1382.67 238.39L1388.98 394.688C1384.91 396.889 1380.53 398.552 1376.52 400.848C1372.56 403.109 1368.89 406.292 1365.29 409.094C1368.18 399.577 1370.5 390.862 1369.41 380.751C1369.11 377.975 1368.2 376.762 1366.12 375.1C1364.84 374.768 1363.71 374.682 1362.41 374.948C1342.7 378.991 1327.85 394.949 1317.27 411.087C1315.55 398.918 1313.51 387.859 1307.81 376.818C1306.16 373.617 1303.03 367.908 1299.16 367.019C1297.93 366.734 1297.01 367.233 1296.02 367.965C1282.89 377.726 1277.42 394.795 1275.35 410.241C1271.65 405.006 1267.86 399.908 1263.3 395.384C1262.1 394.201 1257.31 390.401 1256.86 389.22C1256.57 388.46 1256.84 386.027 1256.83 385.136L1256.8 371.953C1256.8 361.674 1257.9 275.745 1256.79 273.817C1256.47 273.267 1255.93 272.88 1255.5 272.412C1253.38 272.869 1252 274.038 1250.72 275.758C1244.6 284.021 1239.98 295.041 1235 304.165L1196.44 376.104L1189.13 389.678C1188.65 390.569 1187.61 393.159 1186.91 393.762C1186.01 394.54 1171.88 392.001 1168.3 393.29C1166.47 393.945 1166.23 394.006 1165.37 395.722C1166.03 400.131 1168.41 404.064 1170.38 407.997L1180.05 427.105L1167.51 422.875C1156.23 419.641 1144.6 419.723 1133.16 421.9C1129.16 422.662 1124.88 423.453 1121.34 425.557C1119.39 426.72 1118.02 427.613 1117.47 429.855C1119.45 433.519 1123.62 435.966 1126.62 438.835L1143.82 456.007C1136.7 454.206 1129.53 452.94 1122.16 453.361C1110.19 454.044 1094.09 457.355 1085.97 466.905C1084.62 468.494 1083.95 469.89 1084.12 471.955C1087.22 474.901 1091.17 476.151 1094.93 478.021L1112.09 487.004C1109.36 488.12 1106.12 488.36 1103.25 489.161C1089.81 492.916 1074.96 503.174 1068.21 515.498C1066.63 518.388 1064.99 522.421 1065.96 525.678C1071.96 529.805 1084.32 528.239 1091.53 528.206L1075.68 540.501C1067.01 548.676 1059.33 561.435 1059.06 573.515C1063.6 582.227 1079.05 572.227 1085.73 574.388L1081.99 578.342C1073.23 587.843 1067.15 599.505 1065.96 612.525C1065.33 619.344 1065.28 626.717 1069.88 632.185C1079 632.597 1086.69 628.046 1094.47 623.883C1091.05 633.178 1089.14 641.734 1089.12 651.72C1089.1 661.573 1090.4 674.228 1097.62 681.52C1107.18 680.909 1116.05 669.026 1122.05 662.455L1121.39 681.555C1121.86 690.132 1124.78 704.937 1131.65 710.567C1132.78 711.496 1134.43 711.962 1135.88 711.788C1144.52 710.747 1152.76 699.208 1157.68 692.822C1157.95 702.701 1158.48 712.43 1162.38 721.676C1165.44 728.929 1168.14 733.142 1175.6 736.144C1188.67 731.259 1195.16 722.736 1202.6 711.429C1203.93 722.06 1205.83 730.912 1210.14 740.855L1074.01 723.823L1026.57 717.731C1015.38 716.363 1003.98 715.335 992.915 713.132C989.291 712.41 985.806 711.314 982.762 709.149C978.614 706.199 976.234 701.472 975.501 696.521C972.179 674.065 973.872 649.873 973.488 627.153C973.341 618.397 970.711 606.536 973.451 598.135C976.753 588.01 983.038 579.552 988.305 570.425L1008.89 534.236L1085.86 397.704L1188.72 214.868L1211.92 174.265C1216.54 165.969 1220.47 156.839 1226.25 149.286C1232.86 140.655 1239.12 137.415 1249.68 136.051Z"/>
	<path fill="#F3F1BB" transform="matrix(0.666667 0 0 0.666992 0 -0.00195312)" d="M886.143 315.275C899.302 323.965 914.002 329.754 927.754 337.408C958.025 354.258 982.987 381.837 1002.39 410.105C1014.41 427.61 1023.88 445.952 1032.94 465.114C1033.88 467.116 1036.98 472.08 1036.97 474.137C1036.95 478.117 990.987 556.488 985.56 566.243C979.851 576.506 971.372 588.127 969.306 599.725C968.248 605.663 969.171 612.308 969.332 618.319L970.247 653.991C970.508 667.43 969.246 681.75 970.939 695.042C971.501 699.455 972.784 703.747 975.411 707.381C977.853 710.761 981.293 713.797 985.175 715.424C992.777 718.609 1001.69 718.457 1009.75 719.561L1044.57 724.926C1042.2 733.884 1037.91 742.503 1034.21 750.989C1012.11 801.629 976.163 845.809 929.999 876.39C863.556 920.404 780.157 935.182 702.375 918.96C623.544 902.52 559.937 852.815 516.339 786.257L484.787 722.365C494.962 717.418 498.82 711.533 503.271 701.485C507.832 705.702 512.809 709.917 519.075 711.149C525.272 712.368 531.631 710.505 536.771 707.014C545.03 701.405 546.69 692.142 548.499 683.055C551.794 684.92 555.423 686.431 559.132 687.227C564.442 688.367 570.773 686.758 575.258 683.782C581.86 679.401 585.8 672.185 586.257 664.287C586.41 661.639 585.892 658.951 586.405 656.344L587.442 656.088C587.782 656.31 589.128 657.017 589.282 657.292C589.784 658.184 589.598 662.049 589.683 663.282L591.16 683.672C592.896 707.359 594.799 731.053 599.882 754.308C609.373 797.732 630.587 837.298 668.841 861.596C704.48 884.233 754.468 888.735 795.023 879.574C831.883 871.247 859.471 850.56 879.528 818.687C896.556 791.629 905.04 759.055 910.118 727.815C921.618 657.07 918.057 580.454 902.028 510.683C895.137 480.686 885.381 444.8 864.095 421.555C858.016 414.917 851.299 410.02 843.706 405.271C845.868 403.35 848.302 401.342 850.103 399.079C858.679 388.308 858.185 368.251 856.531 355.307C860.406 358.793 864.419 362.752 869.076 365.153C872.939 367.145 878.808 368.896 883.051 367.213C886.655 365.784 889.623 362.364 891.204 358.899C897.588 344.905 891.22 328.67 886.143 315.275Z"/>
	<path fill="#EE695C" transform="matrix(0.666667 0 0 0.666992 0 -0.00195312)" d="M699.095 71.6425C699.792 71.5259 700.329 71.4442 701.032 71.5784C706.279 72.5789 710.637 78.3482 713.188 82.6617C723.209 99.6067 724.095 117.789 719.362 136.334C728.744 120.049 739.234 101.319 755.959 91.5111C759.801 89.2574 765.796 87.2559 770.233 88.713C772.562 89.4777 774.603 91.541 775.537 93.7621C776.771 96.6933 776.694 100.059 776.499 103.173C775.392 120.844 760.74 136.287 754.458 152.532L761.806 142.945C773.019 128.65 791.644 112.232 810.521 110.286C813.899 109.938 817.79 109.701 820.491 112.069C822.489 113.821 823.25 116.214 823.404 118.806C823.715 124.015 821.286 129.921 818.855 134.42C811.619 147.81 801.368 156.735 791.627 168.007C798.517 164.182 804.689 159.128 811.346 154.912C823.194 147.409 838.133 141.905 852.249 141.774C857.73 141.723 862.118 142.419 866.09 146.319C866.726 148.252 867.039 148.964 866.621 151.017C865.762 155.244 862.775 159.097 860.102 162.358C850.904 173.579 838.545 181.406 826.565 189.277L839.936 185.072C859.786 179.722 884.068 179.623 902.224 190.284C906.145 192.587 910.291 195.275 911.478 199.924C910.973 202.22 910.835 203.084 909.043 204.75C897.27 215.697 875.959 213.719 861.222 213.498C878.879 220.542 895.836 225.561 909.522 239.725C915.799 246.221 920.451 252.863 920.235 262.189C919.276 263.897 918.232 265.048 916.407 265.847C913.754 267.009 909.435 266.444 906.64 266.131C893.454 264.652 881.534 259.97 869.418 254.865C874.342 259.273 880.177 262.602 885.439 266.593C897.828 275.989 909.518 290.35 914.018 305.332C915.078 308.862 916.131 314.967 914.069 318.256C912.693 320.451 910.665 321.224 908.25 321.742C904.32 321.249 901.118 319.483 897.646 317.681C884.814 311.021 874.628 300.469 864.263 290.594C867.787 297.382 873.099 303.382 877.508 309.607C885.644 321.094 890.327 335.907 889.394 349.984C889.125 354.051 887.632 359.042 884.283 361.677C882.104 363.392 879.147 363.944 876.462 363.485C862.988 361.181 853.163 344.616 845.898 334.359C846.926 339.363 849.276 344.192 850.875 349.051C854.386 359.72 854.435 373.257 851.868 384.132C850.347 390.574 848.002 397.986 841.875 401.47C839.859 402.617 838.066 403.011 835.875 402.195C825.186 398.217 821.543 364.73 817.692 354.555C816.592 367.099 819.857 379.649 818.497 392.179C817.628 400.191 814.408 410.512 807.737 415.65C804.329 418.277 801.242 419.305 796.875 418.574C784.077 416.434 779.465 389.304 777.466 378.46C776.917 375.486 776.872 370.554 775.125 368.263C774.376 371.573 775.182 375.918 775.303 379.369C775.758 392.381 773.851 405.181 767.495 416.745C764.581 422.046 761.065 426.602 755.064 428.309C751.851 429.224 749.098 428.977 746.169 427.229C742.942 425.303 740.942 421.89 739.234 418.655C732.318 405.559 731.619 389.942 728.115 375.723C727.24 378.989 727.941 383.278 727.87 386.726C727.557 402.018 725.875 415.841 717.649 429.159C716.654 430.322 715.556 431.366 714.405 432.373C710.739 435.577 707.126 437.012 702.225 436.602C697.691 436.223 694.488 433.846 691.681 430.457C678.606 414.673 680.784 392.757 682.615 373.884C681.408 375.547 680.769 379.228 680.17 381.283C676.034 395.487 673.447 411.142 663.493 422.728C660.541 426.165 657.22 429.358 652.5 429.745C649.998 429.087 648.496 428.045 646.781 426.18C632.861 411.047 640.56 385.76 641.128 367.594C636.926 381.565 632.51 401.742 621.815 412.014C619.032 414.688 616.531 415.652 612.75 415.597C609.298 414.174 607.663 412.427 605.597 409.369C594.081 392.319 598.977 370.5 602.514 351.875C601.237 353.03 600.138 356.843 599.452 358.502C594.233 371.116 589.57 386.43 578.477 395.177C576.517 396.722 573.323 398.731 570.75 398.307C567.452 397.763 565.013 395.899 563.24 393.131C553.496 377.91 559.655 354.76 563.229 338.431C554.994 346.985 546.113 357.135 534.806 361.627C531.61 362.896 528.482 363.67 525.211 362.005C523.037 360.897 521.537 358.532 520.771 356.278C514.738 338.517 526.544 316.892 534.357 301.495C523.356 308.388 505.93 320.035 492.546 318.058C490.652 317.777 488.801 316.504 487.812 314.87C486.109 312.057 486.685 307.993 487.314 304.922C490.589 288.947 507.264 273.937 520.76 265.854C526.517 262.405 532.635 260.058 538.296 256.327C524.573 260.015 510.642 264.459 496.495 266.08C490.294 266.791 486.122 267.788 481.008 263.689L480.875 262.471C480.324 255.847 484.617 249.573 488.747 244.774C498.273 233.703 514.477 225.063 528.84 222.528C535.305 221.387 542.457 221.579 549.038 221.061C536.634 216.714 501.843 212.19 494.935 202.729C494.172 201.684 493.305 199.662 493.599 198.348C494.494 194.343 498.701 190.737 502.09 188.716C522.504 176.539 546.029 180.721 567.808 186.063C555.891 176.874 540.619 166.015 532.718 152.98C532.443 150.431 532.385 148.925 533.625 146.636C536.34 144.543 538.149 143.654 541.5 143.032L542.443 142.85C568.126 138.348 590.904 155.51 610.702 168.988C599.115 156.581 587.336 144.479 578.66 129.759C576.63 126.315 573.788 121.866 573.478 117.779C573.304 115.492 573.648 113.527 575.318 111.867C576.96 110.236 579.824 110.211 582 110.298C608.335 111.351 625.257 133.358 641.388 151.053C637.977 142.831 632.925 136.035 629.017 128.164C626.105 122.299 624.445 115.802 623.208 109.391C622.375 105.075 621.728 99.1411 622.752 94.841C623.449 91.9166 625.387 89.2073 628.125 87.8795C631.194 86.3912 635.111 87.2236 638.18 88.3425C652.497 93.5624 664.67 110.122 671.14 123.337C673.699 128.564 675.523 134.248 677.928 139.581C675.902 122.984 676.268 107.924 682.484 92.1553C686.165 82.8175 689.625 75.8026 699.095 71.6425Z"/>
	<path transform="matrix(0.666667 0 0 0.666992 0 -0.00195312)" d="M716.617 291.446C717.329 291.593 718.066 292.045 718.725 292.356C719.437 293.507 720.121 294.696 720.401 296.036C721.245 300.073 719.805 305.262 717.655 308.7C715.143 312.717 711.768 315.031 707.162 316.018C702.366 317.046 697.855 316.342 693.765 313.579C688.811 310.234 686.909 305.375 685.838 299.724C686.14 296.86 686.431 294.08 688.125 291.678L690.06 292.196C690.808 295.467 690.174 298.9 691.049 302.151C691.957 305.523 694.024 308.877 697.195 310.502C700.701 312.299 705.275 312.297 708.904 310.857C712.949 309.253 716.309 303.817 716.373 299.588C716.423 296.308 715.233 294.623 716.617 291.446Z"/>
	<path transform="matrix(0.666667 0 0 0.666992 0 -0.00195312)" d="M591.691 332.891C600.939 334.851 609.267 339.528 617.961 343.052C623.006 345.097 628.375 346.515 633.654 347.828C667.46 356.239 703.909 357.122 738.398 353.539C754.225 351.894 770.228 349.592 785.624 345.476C794.62 343.071 802.852 339.304 811.587 336.329C813.629 335.634 816.653 334.415 818.625 335.366L817.875 336.685C810.792 342.753 801.067 344.989 792.286 347.461C770.169 353.688 748.792 357.172 725.859 358.692C695.349 360.713 664.316 358.845 634.5 351.893C618.817 348.237 603.948 343.62 591.691 332.891Z"/>
	<path fill="#E83B2D" transform="matrix(0.666667 0 0 0.666992 0 -0.00195312)" d="M836.012 274.888C844.005 275.817 850.912 278.059 856.148 284.56C861.081 290.687 862.402 297.099 861.614 304.881C861.062 310.323 856.706 316.675 852.413 319.966C847.371 323.832 840.578 325.502 834.334 324.494C828.186 323.502 823.055 320.533 819.375 315.445C816.572 311.569 814.983 306.364 814.231 301.685C823.781 294.201 830.6 285.747 836.012 274.888Z"/>
	<path fill="#E83B2D" transform="matrix(0.666667 0 0 0.666992 0 -0.00195312)" d="M567.695 272.444C572.751 272.831 577.395 273.53 581.912 275.985C587.738 279.153 592.465 285.534 594.261 291.879C595.907 297.697 594.236 304.173 591.429 309.333C587.118 317.257 582.013 319.796 573.52 322.275C569.964 322.102 566.336 322.037 562.875 321.132C556.622 319.497 551.564 315.391 548.398 309.772C545.128 303.966 544.182 296.943 546.088 290.508C547.781 284.792 551.476 279.004 556.924 276.255C560.463 274.469 563.85 273.417 567.695 272.444Z"/>
	<path transform="matrix(0.666667 0 0 0.666992 0 -0.00195312)" d="M639.223 189.996C650.777 188.42 663.395 191.947 673.178 198.121C686.325 206.418 695.963 219.633 699.367 234.86C702.687 249.713 699.582 266.936 691.243 279.625C681.209 294.894 667.168 302.543 649.652 306.156C636.738 306.654 624.358 304.956 613.343 297.597C600.968 289.329 590.861 276.006 588.048 261.202C584.942 244.863 588.091 227.94 597.643 214.229C607.917 199.483 622.033 193.05 639.223 189.996Z"/>
	<path fill="#FEFEFE" transform="matrix(0.666667 0 0 0.666992 0 -0.00195312)" d="M641.027 193.803C652.373 192.684 665.422 197.359 674.647 203.808C685.155 211.153 693.277 224.604 695.513 237.121C698.233 252.347 694.782 268.025 685.745 280.635C676.37 293.717 662.859 299.561 647.42 302.176C636.188 303.217 622.144 299.087 613.089 292.531C601.951 284.468 593.783 271.494 591.738 257.858C589.432 242.48 593.073 226.722 602.428 214.235C612.041 201.403 625.617 195.991 641.027 193.803Z"/>
	<path transform="matrix(0.666667 0 0 0.666992 0 -0.00195312)" d="M651.496 225.99C656.894 226.295 662.379 226.434 667.264 229.025C673.857 232.523 678.942 238.975 681.014 246.122C683.025 253.063 681.728 262.118 678.072 268.317C673.542 275.997 665.457 279.301 657.18 281.272C651.059 281.525 645.444 280.208 640.14 277.177C634.399 273.897 629.897 268.042 628.206 261.629C626.089 253.602 627.26 245.242 631.67 238.183C636.24 230.867 643.36 227.721 651.496 225.99Z"/>
	<path transform="matrix(0.666667 0 0 0.666992 0 -0.00195312)" d="M814.231 301.685L812.314 302.709C796.982 310.617 779.022 313.609 762.375 308.057C747.725 303.171 734.916 291.756 728.097 277.97C721.074 263.77 719.313 246.882 724.525 231.801C729.841 216.417 740.55 204.235 755.339 197.199C769.692 190.371 786.95 190.248 801.776 195.57C816.648 200.909 828.846 212.87 835.415 227.158C842.557 242.693 841.898 259.09 836.012 274.888C830.6 285.747 823.781 294.201 814.231 301.685Z"/>
	<path fill="#FEFEFE" transform="matrix(0.666667 0 0 0.666992 0 -0.00195312)" d="M775.96 196.013C787.28 194.334 802.013 198.299 811.303 204.872C824.665 214.325 833.247 227.703 835.945 243.846C838.312 258.01 833.881 273.431 825.593 284.948C816.517 297.559 801.911 304.328 786.928 306.704C772.961 307.328 759.737 303.873 748.254 295.72C737.202 287.873 729.116 274.843 726.844 261.509C724.174 245.843 727.206 230.549 736.563 217.555C746.444 203.832 759.843 198.667 775.96 196.013Z"/>
	<path transform="matrix(0.666667 0 0 0.666992 0 -0.00195312)" d="M765.461 230.433C771.442 230.206 777.123 230.196 782.613 232.854C789.113 236 794.444 242.003 796.759 248.837C799.155 255.907 798.872 263.396 795.449 270.089C791.12 278.554 784.232 282.782 775.398 285.56C768.615 285.975 763.14 285.813 756.937 282.715C750.717 279.609 746.068 273.892 743.88 267.352C741.46 260.121 741.983 252.155 745.47 245.348C749.747 236.998 756.852 233.274 765.461 230.433Z"/>
	<path fill="#9BBFBB" transform="matrix(0.666667 0 0 0.666992 0 -0.00195312)" d="M416.483 377.644C432.744 376.827 448.706 377.144 464.836 379.551C511.656 386.536 555 410.373 583.243 448.807C604.462 477.683 618.441 510.654 624.316 546.02C625.348 552.232 627.299 560.237 626.175 566.462C625.862 568.198 624.92 569.62 623.366 570.557C619.51 572.884 614.419 571.157 610.498 569.975C615.431 574.639 620.339 579.499 623.19 585.767C625.839 591.592 626.506 598.358 624.149 604.421C622.231 609.356 618.625 613.157 613.681 615.136C608.819 617.083 603.89 614.361 599.41 612.535C604.054 617.065 608.67 621.328 610.246 627.9C611.662 633.807 610.656 641.115 607.292 646.216C605.307 649.226 601.226 652.882 597.548 653.459C590.404 654.579 584.966 650.609 579.575 646.692C581.845 651.784 583.675 656.745 583.469 662.412C583.262 668.097 580.918 674.76 576.586 678.601C572.51 682.216 566.351 684.653 560.843 684.178C552.959 683.5 547.682 677.382 542.865 671.783C544.442 678.299 545.645 684.858 543.707 691.458C541.873 697.706 538.014 703.129 532.116 706.152C527.342 708.6 521.488 708.662 516.503 706.91C507.097 703.605 503.744 696.193 499.609 687.783C499.553 692.912 500.253 698.504 498.738 703.443C496.901 709.43 493.102 714.33 487.466 717.213C483.504 719.24 478.01 719.988 473.804 718.512C463.252 714.809 459.333 706.804 454.891 697.311L454.652 702.165C454.135 708.706 451.115 716.518 445.904 720.778C440.822 724.931 434.856 726.191 428.432 725.398C421.602 724.555 416.206 718.476 412.325 713.335C409.252 707.799 407.557 701.965 405.891 695.906C404.175 700.451 402.379 704.731 399.515 708.689C394.957 714.99 388.222 719.351 380.51 720.559C374.539 721.495 368.934 719.527 364.225 715.905C356.03 709.603 354.952 699.585 353.712 690.06C350.988 694.328 348.163 699.319 343.875 702.177C338.273 705.911 333.038 707.655 326.312 706.153C321.059 704.98 316.39 702.061 313.573 697.392C308.531 689.033 310.771 680.711 312.936 671.906C307.148 678.03 303.524 684.005 295.048 686.699C290.667 688.091 284.925 687.383 280.894 685.256C276.871 683.133 273.459 678.629 272.143 674.314C269.223 664.74 274.943 654.719 279.178 646.48C275.552 649.662 271.189 653.945 266.522 655.389C263.339 656.374 258.192 655.975 255.262 654.455C250.535 652.003 247.559 647.397 246.201 642.374C243.198 631.266 249.019 621.388 254.266 612.013C250.726 615.412 245.669 620.529 240.746 621.65C238.269 622.214 235.054 622.201 232.875 620.808C229.273 618.503 227.179 615.331 226.216 611.196C222.926 597.074 234.105 584.764 241.062 573.718C237.218 576.598 234.002 580.664 230.795 584.239C229.417 585.775 228.093 587.727 226.125 588.462C224.01 587.131 222.386 585.158 221.218 582.954C216.601 574.241 222.159 561.876 228.29 555.339C230.69 552.78 235.911 549.663 236.912 546.508C235.166 546.235 232.298 548.007 230.669 548.737C236.958 507.42 251.919 467.519 279.256 435.416C313.342 395.388 366.118 381.756 416.483 377.644Z"/>
	<path transform="matrix(0.666667 0 0 0.666992 0 -0.00195312)" d="M257.056 512.202L257.064 513.151C257.077 516.73 256.192 519.34 255.587 522.758C254.611 528.281 253.809 534.236 253.551 539.828C251.981 573.777 263.705 605.982 287.699 630.224C323.849 666.748 378.502 681.927 428.704 682.095C475.285 682.25 529.551 667.431 563.393 633.683C578.872 618.246 591.385 599.512 596.612 578.072C598.181 571.64 598.011 564.119 600.908 558.166C600.869 567.584 599.946 576.57 597.695 585.752C589.772 618.08 565.493 643.275 537.707 660.144C490.556 688.771 425.975 694.328 373.125 681.175C331.554 670.829 288.802 648.782 266.111 610.961C254.511 591.625 249.028 569.218 250.61 546.685C251.433 534.95 254.21 523.567 257.056 512.202Z"/>
	<path fill="#0AA7AB" transform="matrix(0.666667 0 0 0.666992 0 -0.00195312)" d="M257.056 512.202C265.012 476.425 291.529 447.262 321.814 428.035C367.12 399.273 424.671 392.725 476.367 404.446C517.484 413.769 557.77 442.016 580.084 477.7C592.582 497.687 598.337 519.67 600.428 542.938C600.857 547.722 601.796 553.494 600.908 558.166C598.011 564.119 598.181 571.64 596.612 578.072C591.385 599.512 578.872 618.246 563.393 633.683C529.551 667.431 475.285 682.25 428.704 682.095C378.502 681.927 323.849 666.748 287.699 630.224C263.705 605.982 251.981 573.777 253.551 539.828C253.809 534.236 254.611 528.281 255.587 522.758C256.192 519.34 257.077 516.73 257.064 513.151L257.056 512.202Z"/>
	<path transform="matrix(0.666667 0 0 0.666992 0 -0.00195312)" d="M428.215 549.368C434.715 548.938 442.871 549.018 448.409 552.845C450.15 554.049 451.203 555.29 451.443 557.446C452.608 567.906 443.85 581.346 437.747 589.422C436.475 590.332 435.265 591.294 433.703 591.622C432.237 591.93 430.605 591.093 429.375 590.256C421.959 585.211 417.874 573.193 416.459 564.781C415.945 561.723 415.435 556.231 417.39 553.651C420.099 550.074 424.109 550.016 428.215 549.368Z"/>
	<path fill="#FEFEFE" transform="matrix(0.666667 0 0 0.666992 0 -0.00195312)" d="M425.656 552.51C430.361 551.759 438.567 550.736 442.638 553.635C442.462 555.674 440.027 557.614 438.663 559.164C436.927 560.227 435.039 560.798 433.125 561.453C430.864 561.288 429.04 560.894 427.167 559.532C425.093 558.024 424.044 556.109 423.777 553.635L425.656 552.51Z"/>
	<path transform="matrix(0.666667 0 0 0.666992 0 -0.00195312)" d="M344.858 566.531C350.722 566.361 355.605 566.468 361.125 568.736C364.823 570.255 368.752 573.947 370.137 577.72C371.532 581.521 370.401 587.009 368.647 590.514C366.119 595.569 360.778 597.947 355.727 599.664C350.251 600.263 344.322 600.321 339.202 597.978C334.803 595.965 331.427 592.814 329.834 588.144C328.48 584.177 328.778 579.359 330.738 575.657C333.889 569.705 338.737 568.348 344.858 566.531Z"/>
	<path fill="#FEFEFE" transform="matrix(0.666667 0 0 0.666992 0 -0.00195312)" d="M346.539 568.772C349.918 568.813 353.218 568.853 356.501 569.765C361.858 571.254 365.465 573.933 368.145 578.766C368.319 580.932 368.703 583.493 367.555 585.449C364.978 589.839 359.367 591.342 354.845 592.713C349.19 592.769 342.839 592.612 337.829 589.663C334.94 587.963 332.398 585.153 331.674 581.814C331.219 579.717 331.869 577.92 332.961 576.141C335.898 571.353 341.444 570.017 346.539 568.772Z"/>
	<path transform="matrix(0.666667 0 0 0.666992 0 -0.00195312)" d="M497.668 565.717C502.59 565.401 508.515 564.813 513.289 566.134C517.419 567.276 521.53 569.861 523.59 573.693C525.744 577.7 526.903 583.242 525.391 587.672C523.105 594.371 517.378 596.647 511.496 599.384C507.543 599.47 503.239 599.826 499.356 599.007C497.309 598.575 495.231 598.252 493.312 597.378C489.077 595.451 485.915 592.173 484.33 587.783C482.87 583.74 482.642 578.987 484.625 575.066C487.429 569.521 492.099 567.692 497.668 565.717Z"/>
	<path fill="#FEFEFE" transform="matrix(0.666667 0 0 0.666992 0 -0.00195312)" d="M499.301 568.015C504.935 567.055 511.281 567.729 516.394 570.339C519.107 571.724 521.667 574.026 522.461 577.079C523.004 579.166 523.155 582.496 522.055 584.393C519.551 588.706 514.775 590.162 510.274 591.445C505.516 592.224 499.509 592.447 494.956 590.606C491.646 589.268 487.565 586.033 486.292 582.589C485.575 580.651 485.485 577.901 486.512 576.052C489.305 571.022 494.06 569.451 499.301 568.015Z"/>
	<path transform="matrix(0.666667 0 0 0.666992 0 -0.00195312)" d="M483.864 434.482C495.003 433.308 506.626 434.49 516.708 439.591C530.785 446.713 541.051 458.87 545.851 473.897C550.363 488.02 548.442 503.539 541.514 516.572C533.346 531.937 519.808 539.772 503.694 544.74C490.652 546.922 478.065 544.682 466.446 538.468C453.144 531.354 443.724 518.928 439.605 504.498C435.547 490.282 438.121 473.566 445.397 460.854C453.968 445.879 467.853 438.877 483.864 434.482Z"/>
	<path fill="#FEFEFE" transform="matrix(0.666667 0 0 0.666992 0 -0.00195312)" d="M486.748 437.569C497.78 435.951 509.872 438.796 519.289 444.664C531.647 452.366 541.013 465.14 544.013 479.468C546.917 493.337 543.539 508.323 535.687 519.984C526.622 533.447 513.691 539.143 498.339 542.225C487.008 542.611 475.151 540.886 465.495 534.501C453.996 526.896 444.268 514.743 441.66 500.961C438.948 486.624 441.429 471.469 449.939 459.421C459.083 446.473 471.394 440.083 486.748 437.569Z"/>
	<path transform="matrix(0.666667 0 0 0.666992 0 -0.00195312)" d="M483.073 468.263C488.153 468.02 493.674 468.732 498.316 470.885C504.524 473.764 509.596 479.938 511.772 486.349C513.739 492.145 513.619 499.383 510.786 504.886C506.348 513.504 499.708 517.025 490.851 519.942C484.343 519.882 478.001 519.786 472.251 516.286C465.748 512.327 461.918 506.814 460.126 499.483C458.534 492.971 460.017 486.136 463.514 480.522C468.317 472.81 474.582 470.28 483.073 468.263Z"/>
	<path transform="matrix(0.666667 0 0 0.666992 0 -0.00195312)" d="M363.472 432.269C378.196 431.772 392.264 433.371 404.864 441.919C420.195 452.321 429.943 467.934 433.125 486.158C435.881 501.945 430.721 521.014 421.418 533.79C411.055 548.024 395.384 556.104 378.174 558.775C363.143 560.068 348.339 557.335 335.669 548.808C322.242 539.773 311.527 525.06 308.564 509.018C305.228 490.948 308.875 473.483 319.334 458.286C329.616 443.344 346.022 435.469 363.472 432.269Z"/>
	<path fill="#FEFEFE" transform="matrix(0.666667 0 0 0.666992 0 -0.00195312)" d="M363.708 435.333C378.646 434.144 392.119 437.365 404.625 445.657C417.572 454.242 426.762 468.495 429.775 483.639C432.834 499.016 428.996 517.007 420.295 529.956C409.668 545.771 395.608 552.328 377.526 556.028C362.933 557.481 348.208 553.928 336.144 545.58C323.194 536.618 313.655 521.956 310.952 506.416C308.074 489.874 311.989 473.001 321.888 459.44C332.019 445.561 347.009 438.018 363.708 435.333Z"/>
	<path transform="matrix(0.666667 0 0 0.666992 0 -0.00195312)" d="M374.182 465.247C380.202 465.055 387.029 465.661 392.442 468.516C400.026 472.516 406.058 479.962 408.524 488.146C410.885 495.98 409.905 504.933 405.899 512.051C400.651 521.377 392.558 524.811 382.819 527.575C375.161 528.037 367.927 526.908 361.337 522.833C353.824 518.186 348.864 510.154 346.995 501.617C345.344 494.077 347.599 485.565 351.726 479.173C357.09 470.863 364.852 467.334 374.182 465.247Z"/>
	<path fill="#F3F1BB" transform="matrix(0.666667 0 0 0.666992 0 -0.00195312)" d="M283.171 143.46C297.061 142.082 312.534 143.653 326.402 144.746C341.795 145.96 382.724 150.186 392.797 162.218C398.086 168.535 399.288 176.698 400.036 184.643C401.267 197.709 400.248 211.199 399.717 224.291L397.669 276.204C396.291 309.539 396.705 343.101 393.559 376.323C380.235 377.145 366.635 381.139 354.018 385.334C351.485 379.571 348.648 373.924 343.017 370.622C338.341 367.878 332.058 367.411 326.87 368.871C321.743 370.313 316.633 375.279 314.332 379.968C310.502 387.773 311.36 394.087 314.027 402.122C308.55 405.637 302.648 409.039 297.56 413.082C277.73 428.84 264.55 447.921 252.241 469.752L261.543 263.314C260.236 261.759 260.388 261.789 258.375 261.598C255.961 265.184 254.425 269.586 252.681 273.539L244.114 292.688L210.91 367.366L142.688 517.04L113.351 580.529C112.66 582.14 112.268 583.786 112.024 585.518C112.401 585.938 113.178 587.066 113.625 587.3C115.629 588.35 213.276 592.757 225.178 593.491C223.295 598.975 222.018 604.856 222.803 610.667C223.485 615.717 226.481 620.181 230.522 623.168C233.832 625.615 238.271 625.855 242.198 625.216L243 625.079C244.035 626.418 242.036 636.11 242.295 639.113C242.795 644.91 245.767 650.98 250.305 654.679C253.838 657.558 259.645 659.787 264.207 659.172L270.178 658.297L269.232 662.189C267.912 668.201 268.002 675.522 271.654 680.791C275.05 685.692 280.263 689.338 286.17 690.324C294.777 691.762 300.548 687.9 307.158 683.097C307.469 689.894 308.715 696.992 313.377 702.255C318.572 708.119 325.867 709.323 333.256 709.781C341.796 708.053 345.921 704.343 351.734 698.235L354.11 706.673C356.238 712.949 361.18 718.725 367.151 721.639C375.465 725.697 383.278 723.536 391.523 720.679L387.236 837.067L386.01 870.77C385.821 877.238 386.12 884.195 385.157 890.569C384.696 893.62 383.443 896.625 381.221 898.818C371.254 908.657 353.7 908.527 340.628 908.518C315.669 908.501 289.025 906.565 265.059 899.129C257.783 896.872 250.061 894.309 244.622 888.697C241.617 885.595 239.967 881.609 239.475 877.339C238.624 869.942 239.243 862.094 239.526 854.67L240.867 821.613L244.666 720.445L125.359 711.406C99.6576 709.612 73.2322 709.597 47.8395 704.953C41.9952 703.884 35.9808 701.868 31.0092 698.561C23.913 693.841 20.493 685.529 18.963 677.453C17.6241 670.385 17.8006 663.019 17.7863 655.855C17.7628 644.062 17.765 632.422 21.7201 621.152C25.855 609.368 32.1854 598.282 37.8639 587.188L64.2478 535.756L159.627 349.931L229.497 212.558L247.125 178.194C250.424 171.561 253.255 164.151 257.476 158.053C263.886 148.793 272.513 145.405 283.171 143.46Z"/>
	<path transform="matrix(0.666667 0 0 0.666992 0 -0.00195312)" d="M377.699 345.459C379.476 345.112 381.848 345.415 383.625 345.852C386.535 346.567 389.443 348.824 390.889 351.458C392.719 354.794 393.275 359.29 391.976 362.908C390.382 367.35 386.773 368.969 382.875 370.992C380.883 371.428 378.027 370.978 376.044 370.421C373.191 369.62 370.711 366.821 369.305 364.298C367.578 361.202 367.212 358.086 368.31 354.703C369.923 349.738 373.234 347.67 377.699 345.459Z"/>
	<path fill="#FEFEFE" transform="matrix(0.666667 0 0 0.666992 0 -0.00195312)" d="M378.752 349.21C379.848 348.956 380.473 348.932 381.604 349.133C384.409 349.633 386.796 351.101 388.341 353.607C389.472 355.442 389.622 358.878 388.945 360.899C387.797 364.328 385.132 365.819 382.125 367.317C380.693 367.538 379.645 367.536 378.236 367.119C375.491 366.307 373.077 364.385 371.836 361.773C370.635 359.247 371.142 356.208 372.114 353.711C374.262 351.376 375.713 350.23 378.752 349.21Z"/>
	<path fill="#E83B2D" transform="matrix(0.666667 0 0 0.666992 0 -0.00195312)" d="M777.971 400.719C781.46 407.728 784.813 418.099 792.537 421.474C797.329 423.568 802.365 423.152 807.145 421.147C814.179 418.198 817.688 409.737 820.449 403.182C826.554 404.407 832.577 405.596 838.342 408.04C860.885 417.597 873.644 440.285 882.268 461.949C893.733 490.749 900.174 522.304 904.693 552.889C909.359 584.472 911.488 615.954 911.382 647.87C911.211 699.449 904.706 751.282 884.113 798.945C870.17 831.217 844.656 856.788 811.88 869.505C770.026 885.743 721.784 881.114 681.385 863.285C646.818 846.108 624.811 815.686 612.375 779.854C600.234 744.87 597.349 706.538 595.592 669.79C595.533 668.555 594.978 658.337 595.078 658.227C595.421 657.849 598.049 657.052 598.665 656.801C604.375 654.481 608.924 651.291 611.617 645.516C615.856 636.421 613.891 628.645 610.612 619.662C613.007 618.94 615.427 618.187 617.663 617.05C622.464 614.609 626.115 609.961 627.676 604.833C630.82 594.505 627.309 585.567 622.38 576.628C625.076 575.067 628.278 572.987 629.747 570.167C632.171 565.512 630.719 557.874 630.021 552.885C627.334 533.67 622.002 515.401 615.968 496.999C616.963 491.518 619.506 485.803 621.525 480.614C625.671 469.959 630.245 459.7 635.513 449.558C636.524 447.61 644.455 432.234 645.647 431.899C645.812 431.852 648.301 432.782 648.665 432.892C651.546 433.765 654.315 434.244 657.243 433.231C667.81 429.574 673.316 415.273 677.456 405.927C679.323 413.122 681.02 420.364 684.541 426.973C687.565 432.651 691.896 438.061 698.333 439.92C703.358 441.37 709.591 440.399 714.038 437.735C724.399 431.53 727.422 419.265 730.26 408.382C732.182 411.124 732.999 415.127 734.358 418.227C736.711 423.592 741.263 430.346 747.022 432.414C750.87 433.796 756.435 432.944 759.958 431.102C770.754 425.46 774.541 411.464 777.971 400.719Z"/>
	<path transform="matrix(0.666667 0 0 0.666992 0 -0.00195312)" d="M722.162 598.925C741.832 595.675 766.753 603.826 782.922 614.923C803.106 628.775 816.54 650.546 820.935 674.559C825.244 698.096 818.732 722.122 804.996 741.44C789.463 763.287 765.524 774.425 739.807 778.6C716.182 779.796 695.839 775.239 676.497 761.047C656.831 746.618 643.495 724.949 639.92 700.762C636.492 677.578 642.59 654.008 656.538 635.209C672.667 613.47 695.975 602.733 722.162 598.925Z"/>
	<path fill="#FEFEFE" transform="matrix(0.666667 0 0 0.666992 0 -0.00195312)" d="M726.427 602.694C745.961 600.275 769.107 609.557 784.321 621.392C801.72 634.926 814.625 655.925 817.279 677.955C820.126 701.581 813.309 724.127 798.509 742.706C783.396 761.678 759.957 771.998 736.313 774.776C714.679 775.086 694.264 769.516 677.06 756.075C658.867 741.861 646.46 721.454 643.774 698.361C641.178 676.046 647.506 653.448 661.473 635.862C678.382 614.57 700.07 605.769 726.427 602.694Z"/>
	<path transform="matrix(0.666667 0 0 0.666992 0 -0.00195312)" d="M727.071 648.324C736.719 647.779 746.293 650.787 754.181 656.281C762.713 662.224 768.528 672.427 770.178 682.596C771.751 692.289 768.972 703.779 763.145 711.677C755.628 721.863 744.99 726.254 732.926 728.245C723.926 728.757 714.763 726.685 707.25 721.577C698.889 715.893 691.572 706.039 689.704 695.958C687.83 685.85 690.328 674.044 696.185 665.618C703.745 654.742 714.501 650.554 727.071 648.324Z"/>
	<path fill="#F3F1BB" transform="matrix(0.666667 0 0 0.666992 0 -0.00195312)" d="M1298.63 370.702C1312.28 388.11 1313.95 407.036 1312.48 428.349C1315.68 422.182 1318.71 415.542 1322.51 409.738C1333.34 393.199 1347.21 384.676 1365.49 378.081C1366.46 396.38 1360.78 409.796 1353.29 426.001C1360.52 418.227 1368.28 410.822 1377.28 405.099C1385.45 399.906 1401.09 392.877 1410.77 394.971L1411.43 396.472C1410.09 411.444 1401.8 422.426 1393.21 434.131C1413.38 422.039 1435.03 415.763 1458.57 417.683C1453.7 433.72 1441.36 442.06 1428.79 451.776C1438.97 447.987 1447.61 445.437 1458.31 443.84L1459.45 443.667C1473.42 441.744 1487.33 448.34 1498.07 456.543C1490.54 470.342 1474.48 475.439 1461.03 481.367C1469.98 481.062 1478.66 481.457 1487.47 483.105C1499.96 485.445 1511.68 490.429 1518.99 501.147C1508.04 511.275 1494.29 512.438 1480.27 514.613L1496.88 517.529C1513.08 521.571 1525.58 531.671 1534.01 545.823C1518.73 553.6 1504.09 551.583 1487.73 549.389L1502.9 556.99C1515.37 564.728 1526.85 577.543 1530.16 592.133C1530.8 594.973 1531.33 597.944 1529.7 600.522C1515.51 602.761 1498.12 593.542 1485.25 588.175C1495.12 596.621 1504.81 604.546 1510.44 616.624C1513.96 624.196 1517.85 636.662 1514.29 644.782C1513.56 646.448 1512.91 646.832 1511.25 647.363C1494.98 643.579 1483.74 634.294 1470.46 624.929C1481.93 639.119 1492.76 652.109 1493.13 671.414C1493.23 676.534 1492.35 684.018 1488.66 687.813C1488.05 688.441 1488.34 688.286 1487.25 688.242C1474.55 687.73 1457.59 661.169 1449.37 652.286C1455.49 665.362 1460.52 677.696 1460.89 692.364C1461.08 700.08 1460.41 708.864 1454.85 714.714C1453.61 714.876 1452.36 714.97 1451.12 714.733C1435.48 711.737 1423.23 690.346 1414.93 678.104L1415.73 680.481C1420.33 694.733 1425.86 716.247 1418.07 730.303C1416.56 733.017 1415.53 733.522 1412.62 734.335C1394.8 728.941 1384.76 709 1376.34 693.821C1378.46 702.664 1379.63 712.017 1379.22 721.113C1378.73 732.137 1376.76 741.577 1368.43 749.243C1353.83 742.854 1345.78 730.311 1339.79 716.05C1337.6 710.849 1335.96 705.492 1333.44 700.426C1333.82 716.607 1334.59 737.879 1323.64 751.175C1322.5 752.555 1320.52 754.31 1318.71 754.389C1315.67 754.521 1312.63 751.707 1310.55 749.744C1308.45 747.771 1306.64 745.354 1304.86 743.098C1295.74 728.491 1294.83 711.847 1291.48 695.42C1290.22 707.941 1289.34 721.04 1284.87 732.927C1282.03 740.485 1277.83 748.799 1270.12 752.228C1267.93 752.077 1266.41 751.187 1264.74 749.826C1262.17 747.723 1260.67 744.876 1259.15 741.983C1252.09 728.577 1252.98 713.199 1251.28 698.53C1247.31 713.218 1243.59 727.979 1232.46 739.142C1229.5 742.118 1225.82 745.067 1221.38 744.921C1218.76 744.835 1217.14 743.088 1215.54 741.232C1203.22 726.925 1207.05 704.901 1208.33 687.657C1202.56 699.713 1199.97 711.53 1190.48 721.811C1185.68 727.012 1181.52 731.141 1174.12 731.455C1171.74 730.668 1170.42 728.868 1169.03 726.878C1157.79 710.818 1162.19 689.63 1165.33 671.793C1161.44 679.678 1157.36 687.269 1152.04 694.297C1147.74 699.977 1141.78 706.959 1134.38 707.951C1133.33 707.112 1132.47 706.203 1131.78 705.058C1120.94 687.215 1124.99 664.847 1129.71 645.885C1126.95 648.635 1124.85 652.914 1122.46 656.078C1115.85 664.833 1107.85 671.914 1098.76 677.971L1095.21 668.038C1089.04 648.344 1095.66 627.883 1104.82 610.453C1101.9 612.008 1099.14 615.441 1096.52 617.607C1089.56 623.354 1080.17 627.241 1071.45 629.304C1069.4 621.064 1069.08 613.207 1071.25 604.943C1076.27 585.839 1089.74 574.451 1106.14 564.899L1062.16 573.314C1064.12 566.661 1065.96 559.941 1069.52 553.926C1079.55 536.96 1095.37 530.648 1113.57 526.027C1109.29 524.948 1103.75 525.275 1099.27 525.07L1068.79 523.584C1071.63 517.601 1074.72 512.033 1079.39 507.256C1093.84 492.471 1111.15 490.87 1130.63 490.462L1099.64 476.381C1096.16 474.67 1090.94 472.905 1088.37 469.99C1091.52 465.755 1097.88 463.255 1102.62 461.373C1122.17 453.615 1139.9 458.105 1158.31 466.071L1121.84 429.025L1131.55 425.962C1145.95 422.159 1163.19 423.943 1176.87 429.628C1181.56 431.577 1186.07 434.573 1190.44 437.157C1182.09 423.988 1175.26 410.78 1169.75 396.183L1176.87 396.366C1203.62 398.599 1220.13 410.415 1236.84 430.174C1229.92 412.687 1225.8 396.435 1225.5 377.495L1233.87 379.801C1254.9 386.779 1268.94 405.997 1278.6 424.883C1278.66 410.434 1279.79 397.122 1287.53 384.425C1290.64 379.32 1294.57 375.054 1298.63 370.702Z"/>
	<path transform="matrix(0.666667 0 0 0.666992 0 -0.00195312)" d="M1180.05 626.63C1192.84 631.812 1204.3 638.868 1217.56 643.301C1244.8 652.411 1273.82 655.682 1302.42 656.478C1327.13 657.165 1351.64 656.12 1375.9 651.014C1383.54 649.405 1391.09 647.125 1398.48 644.622C1403.22 643.021 1410.05 638.712 1414.99 639.343L1413.21 641.032C1394.79 654.639 1368.67 657.827 1346.51 659.995C1318.94 662.692 1289.93 661.262 1262.54 657.557C1242.55 654.853 1222.35 651.125 1203.93 642.537C1195.07 638.402 1187.56 632.818 1180.05 626.63Z"/>
	<path fill="#E83B2D" transform="matrix(0.666667 0 0 0.666992 0 -0.00195312)" d="M1143.43 570.919C1148.34 570.699 1152.53 570.71 1157.11 572.675C1162.93 575.173 1166.62 579.396 1168.88 585.244C1171.24 591.33 1170.51 599.206 1167.68 605.023C1164.44 611.683 1157.55 614.958 1150.96 617.301C1146.45 617.474 1142.17 617.077 1137.96 615.314C1131.95 612.796 1127.66 607.221 1125.36 601.289C1123.19 595.659 1124.14 589.211 1126.64 583.855C1130 576.648 1136.28 573.439 1143.43 570.919Z"/>
	<path fill="#E83B2D" transform="matrix(0.666667 0 0 0.666992 0 -0.00195312)" d="M1435.87 574.053C1440.83 573.812 1446.74 574.258 1451.22 576.514C1458.02 579.93 1462.43 585.468 1464.66 592.749C1466.51 598.827 1465.43 606.297 1462.41 611.849C1458.49 619.035 1452.21 621.873 1444.72 624.002C1439.68 624.207 1433.99 623.415 1429.42 621.265C1423.56 618.508 1418.85 613.132 1416.79 607.008C1414.43 599.997 1415.33 592.781 1418.66 586.259C1422.32 579.103 1428.55 576.325 1435.87 574.053Z"/>
	<path transform="matrix(0.666667 0 0 0.666992 0 -0.00195312)" d="M1289.95 539.007L1291.87 538.686L1292.94 539.757L1292.21 558.129L1301.12 559.201L1302.57 539.757L1303.88 538.677L1305.21 539.159C1308.29 543.487 1305.68 554.364 1304.98 559.463L1323.74 561.023C1323.79 587.125 1322.14 610.846 1303.36 631.015C1299.51 633.879 1295.43 636.749 1290.62 637.623L1289.62 637.799C1285 638.687 1280.54 637.809 1276.4 635.516C1267.4 630.524 1262.62 620.508 1259.92 611.005C1254.74 592.79 1257 571.472 1266.22 555.027L1288.3 557.968C1288.19 552.019 1287.67 544.536 1289.95 539.007Z"/>
	<path fill="#EE695C" transform="matrix(0.666667 0 0 0.666992 0 -0.00195312)" d="M1282.58 607.779C1293.6 606.353 1301.12 609.856 1309.7 616.41C1305.41 624.136 1300.48 628.291 1293 632.723C1289.95 633.805 1286.23 634.26 1283.06 633.489C1274 631.282 1270.17 623.492 1265.89 616.026C1271.63 611.902 1275.73 609.589 1282.58 607.779Z"/>
	<path fill="#FEFEFE" transform="matrix(0.666667 0 0 0.666992 0 -0.00195312)" d="M1267.64 559.35L1319.3 565.032L1319.17 576.552L1313.58 579.427C1310.73 580.261 1307.88 581.086 1304.92 581.442C1288.31 583.447 1276.58 580.21 1263.55 569.94L1267.64 559.35Z"/>
	<path fill="#E83B2D" transform="matrix(0.666667 0 0 0.666992 0 -0.00195312)" d="M1263.22 573.516C1266.67 576.078 1270.3 578.625 1274.18 580.489C1288.49 587.357 1304.28 585.394 1318.72 580.328C1318.26 591.544 1315.48 602.1 1311.38 612.486L1310.73 613.189C1308.7 613.718 1307.24 611.697 1305.58 610.477C1301.09 607.184 1295.78 605.683 1290.29 605C1280.19 603.741 1272.59 608.2 1265 614.106C1262.32 600.037 1261.96 587.79 1263.22 573.516Z"/>
	<path transform="matrix(0.666667 0 0 0.666992 0 -0.00195312)" d="M1389.4 457.877C1402.19 456.21 1417.87 461.354 1428.37 468.459C1441.57 477.383 1450.85 492.036 1453.82 507.655C1456.94 524.042 1453.11 541.891 1443.52 555.552C1433.42 569.945 1418.07 577.611 1401.08 580.549C1385.62 581.098 1371.55 577.72 1358.98 568.269C1345.91 558.433 1336.69 543.134 1334.5 526.887C1332.43 511.494 1336.37 494.534 1345.88 482.146C1357.23 467.336 1371.22 460.266 1389.4 457.877Z"/>
	<path fill="#FEFEFE" transform="matrix(0.666667 0 0 0.666992 0 -0.00195312)" d="M1386.41 461.483C1389.8 461.738 1393.29 461.217 1396.73 461.496C1406.32 462.275 1414.46 465.439 1422.77 470.062C1436.17 477.512 1445.25 490.675 1449.26 505.296C1453.08 519.259 1450.76 535.543 1443.58 548.009C1434.22 564.252 1420.53 571.943 1403.04 576.484C1389.4 578.488 1375.3 574.762 1363.77 567.45C1351.7 559.797 1341.92 545.98 1338.99 531.988C1335.83 516.874 1338.16 500.104 1346.73 487.085C1356.32 472.516 1369.64 464.864 1386.41 461.483Z"/>
	<path transform="matrix(0.666667 0 0 0.666992 0 -0.00195312)" d="M1383.56 487.074C1391.5 486.487 1399.93 488.425 1406.61 492.827C1413.8 497.567 1419.37 506.527 1420.96 514.942C1422.57 523.499 1419.81 532.883 1414.97 539.967C1409.24 548.357 1401.02 553.129 1391.15 555.021C1382.82 555.401 1376.1 554.578 1368.88 550.094C1361.63 545.592 1356.63 537.864 1354.74 529.622C1352.72 520.866 1353.85 510.734 1358.74 503.049C1364.61 493.823 1373.14 489.335 1383.56 487.074Z"/>
	<path transform="matrix(0.666667 0 0 0.666992 0 -0.00195312)" d="M1201.92 454.154C1216.48 453.138 1230.98 457.912 1242.38 466.935C1255.99 477.719 1264.18 493.186 1266.19 510.353C1268.14 527.083 1262.59 542.957 1252.14 555.938C1240.5 570.385 1225.74 575.309 1207.99 577.204C1194 576.685 1180.57 573.454 1169.25 564.828C1155.44 554.306 1144.66 537.279 1142.51 519.861C1140.66 504.876 1146.6 489.792 1155.92 478.208C1167.94 463.264 1182.96 456.093 1201.92 454.154Z"/>
	<path fill="#FEFEFE" transform="matrix(0.666667 0 0 0.666992 0 -0.00195312)" d="M1204.09 457.174L1204.32 457.152C1218.05 457.172 1231.03 461.354 1241.48 470.445C1253.5 480.889 1262 495.664 1262.99 511.767C1263.92 526.729 1259.87 542.335 1249.73 553.665C1238.04 566.713 1223.7 573.028 1206.34 573.937C1193.44 572.986 1180.56 569.809 1170.33 561.403C1157.12 550.546 1148.25 534.934 1146.51 517.856C1145.14 504.461 1150.3 490.357 1158.85 480.087C1170.91 465.586 1185.43 458.732 1204.09 457.174Z"/>
	<path transform="matrix(0.666667 0 0 0.666992 0 -0.00195312)" d="M1189.49 482.516C1196.84 482.178 1203.31 482.251 1210.12 485.499C1218.19 489.341 1224.5 497.314 1227.29 505.701C1230.32 514.826 1229.79 524.445 1225.28 533.005C1219.88 543.276 1211.52 547.867 1200.92 551.279C1192.93 551.654 1185.27 551.684 1178.11 547.578C1169.7 542.752 1164.4 535.336 1161.89 526.036C1159.51 517.205 1161.21 506.659 1165.77 498.792C1171.4 489.068 1178.95 485.321 1189.49 482.516Z"/>
</svg>
