<?xml version="1.0" encoding="utf-8" ?>
<svg xmlns="http://www.w3.org/2000/svg" xmlns:xlink="http://www.w3.org/1999/xlink" width="640" height="640">
	<path fill="#601621" d="M417.984 78.2504C456.67 77.2754 466.787 132.607 427.275 143.446C425.066 144.052 422.789 144.134 420.593 144.75L420.367 173.062L486.665 173.04C518.414 173.048 545.357 195.564 548.179 227.875C548.921 236.377 548.393 245.338 548.395 253.883L548.341 290.344C548.129 303.304 542.65 316.125 532.344 324.205C529.473 326.456 528.99 326.055 529.071 329.983L529.286 525.82L543.027 525.867C545.377 526.056 548.058 527.825 547.622 530.468L547.564 530.781C546.876 535.081 543.162 534.848 539.688 534.858L192.656 534.885L96.25 534.789C92.1721 534.589 87.9631 525.731 100.528 525.866C109.79 525.965 111.243 528.269 111.251 520.347L111.317 327.29C110.926 326.846 110.584 326.454 110.082 326.133C95.2293 316.652 92.2576 301.331 92.2341 285.36L92.2201 241.232C92.2228 235.085 91.6356 228.084 93.0099 222.073L96.4251 210.501C106.186 186.164 127.962 173.156 153.486 173.04L214.602 173.075C215.767 173.078 217.942 173.355 218.958 172.917L219.036 144.764C204.791 142.965 191.513 132.874 188.744 118.22L188.64 117.656C187.831 113.53 187.612 108.6 188.596 104.49L188.744 103.906C197.16 69.8087 248.696 69.3322 251.578 107.215C252.611 107.167 254.199 105.958 255.172 105.48C261.128 102.556 268.799 102.788 275.245 102.784L359.892 102.747C369.467 102.735 379.358 101.785 387.887 107.097L388.409 107.426C388.691 90.6588 402.169 80.2597 417.984 78.2504Z"/>
	<path fill="#FEB3DA" d="M226.251 135.624C218.633 133.939 214.864 137.215 206.425 130.768C179.261 110.017 212.256 73.4194 234.823 92.2298C245.162 100.848 241.613 107.143 242.742 117.767L242.773 118.031C237.811 118.764 225.94 129.748 226.251 135.624Z"/>
	<path fill="#FEB3DA" d="M397.235 119.053L397.443 118.579C398.09 116.908 397.344 113.786 397.224 111.977C396.119 95.3652 410.692 83.406 425.759 88.0803C452.072 96.2437 447.742 137.136 419.219 135.279C417.603 135.174 416.209 134.902 414.583 135.18L413.776 135.326C413.409 133.198 411.429 130.899 410.244 129.079L409.672 128.212C407.269 124.843 401.484 119.778 397.235 119.053Z"/>
	<path fill="#ED6A5A" d="M150.059 181.694L209.997 181.533C212.994 181.539 216.116 181.371 219.086 181.795L219.07 211.307C219.078 216.118 218.612 221.661 219.475 226.375C220.902 234.162 228.595 250.316 236.34 252.607L186.484 252.593C184.156 252.914 181.311 252.609 178.94 252.609L100.542 251.77C99.2326 234.147 100.963 213.608 112.918 199.865C122.307 189.073 135.877 182.645 150.059 181.694Z"/>
	<path fill="#ED6A5A" d="M420.366 181.703L485.465 181.512C517.539 181.554 539.471 203.99 539.622 235.411L539.569 252.691L519.844 252.592L416.159 252.584C411.236 252.589 406.26 252.453 401.37 253.093L406.507 249.321C425.386 233.347 420.473 215.873 420.39 193.283C420.377 189.6 419.821 185.291 420.366 181.703Z"/>
	<path fill="#ED6A5A" d="M399.834 261.206L539.645 261.245L539.65 282.537C539.646 286.95 540.05 292.295 539.062 296.591L538.916 297.188C533.681 319.803 505.904 334.566 487.712 317.604C473.85 304.679 483.264 292.255 477.275 285.548C474.634 282.591 470.92 285.954 470.392 288.906C469.896 291.68 470.058 294.759 469.995 297.578C469.845 306.445 469.486 309.324 462.752 315.813C449.875 328.219 431.2 328.405 420.536 313.142C419.065 311.036 417.586 308.6 416.928 306.092C415.819 301.864 418.824 286.204 411.018 286.657C403.595 287.087 407.407 300.197 406.369 304.913C405.593 308.44 402.917 311.916 400.509 314.522C386.463 329.725 368.262 325.892 358.101 309.647C356.055 306.376 356.048 304.777 356.026 300.852L355.844 261.402L399.834 261.206Z"/>
	<path fill="#ED6A5A" d="M162.895 260.257C165.105 259.326 166.962 259.346 169.219 259.719L170.113 260.569L288.472 261.219L290.443 261.257L347.697 261.354C347.143 271.567 347.602 282.068 347.592 292.314L347.569 300.819C347.489 315.731 330.39 326.879 316.431 324.854L315.938 324.776C306.045 323.257 295.971 314.817 293.818 304.762C292.419 298.227 294.613 291.129 290.156 285.596C289.209 285.794 288.378 285.885 287.41 285.888L287.098 285.887C280.456 290.908 284.554 299.125 282.679 306.158C277.209 326.674 248.116 332.297 234.511 313.811C233.421 312.33 232.688 310.76 231.733 309.219C229.167 305.08 232.321 284.077 225.367 287.241C220.084 289.645 221.563 297.341 221.526 301.875C221.311 328.187 177.784 333.804 170.67 307.656C169.138 302.023 171.185 292.539 169.164 288.23C167.337 284.333 160.471 285.401 160.385 294.879C160.256 309.1 160.519 315.591 145.046 322.566C124.273 331.932 101.65 313.86 100.522 293.516L100.47 260.703L147.076 261.22C150.335 261.219 159.735 262.054 162.543 260.472L162.895 260.257Z"/>
	<path fill="#A52C31" d="M288.492 261.277L290.443 261.257L290.28 261.378L289.086 279.219C288.048 273.52 288.395 267.08 288.492 261.277Z"/>
	<path fill="#9BC1BC" d="M205.002 360.445L206.286 360.383C229.086 359.721 250.217 377.156 254.974 399.221C256.015 404.05 255.602 409.306 255.601 414.227L255.702 525.948L209.046 525.97L158.039 526.023L158.147 416.494C158.151 412.159 157.813 407.44 158.452 403.162C162.018 379.265 180.827 362.401 205.002 360.445Z"/>
	<path fill="#601621" d="M179.169 427.551C188.407 426.184 186.358 432.33 186.289 438.594L186.257 451.814C186.251 455.35 187.219 459.406 183.594 461.393C181.664 461.967 178.615 461.707 177.574 459.688C176.783 458.154 176.498 431.763 177.164 429.531C177.467 428.517 178.312 428.05 179.169 427.551Z"/>
	<path fill="#601621" d="M231.377 427.272C236.306 427.456 237.208 428.936 237.242 433.412L237.278 450.378C237.277 454.772 238.437 459.518 233.351 461.062C228.042 460.618 227.669 456.604 227.612 452.328L227.533 442.344C227.445 436.617 224.955 428.749 231.377 427.272Z"/>
	<path fill="#F4F1BB" d="M242.836 118.031C244.51 119.986 246.11 121.165 248.466 122.278C254.774 118.056 258.736 112.229 266.895 111.884L356.948 111.862C365.774 111.862 377.662 109.959 384.863 116.279C389.226 120.108 391.783 123.087 397.235 119.053C401.484 119.778 407.269 124.843 409.672 128.212L410.244 129.079C411.429 130.899 413.409 133.198 413.776 135.326L413.465 135.581C410.542 138.027 411.827 143.053 411.879 146.516L411.984 218.045C411.958 236.811 398.389 251.608 379.375 252.467L270.325 252.545C249.467 252.591 237.508 250.742 228.53 228.025C226.992 224.134 227.547 218.332 227.544 214.151L227.727 143.178C227.864 140.232 228.879 137.689 226.251 135.624C225.94 129.748 237.811 118.764 242.836 118.031Z"/>
	<path fill="#601621" d="M368.111 179.818C371.426 179.536 378.582 178.969 381.131 181.233C386.241 185.77 380.114 188.984 374.98 189.13C371.42 189.125 367.741 189.241 364.196 188.916C360.53 188.58 357.793 184.518 360.469 181.252C362.979 180.16 365.42 180.028 368.111 179.818Z"/>
	<path fill="#601621" d="M262.64 179.765C266.31 179.688 270.024 179.575 273.682 179.912C282.105 180.69 283.859 188.22 276.517 189.612L266.562 189.222C256.996 189.061 254.139 182.48 262.64 179.765Z"/>
	<path fill="#601621" d="M317.716 163.594C323.862 162.225 323.498 167.2 323.595 171.459L323.721 181.341C323.742 184.852 324.749 188.216 320.592 189.067C318.518 188.938 316.104 188.812 315.328 186.473L315.212 186.094C313.91 181.955 313.773 165.802 317.716 163.594Z"/>
	<path fill="#601621" d="M269.62 158.906C272.599 158.22 300.909 171.371 288.686 177.656C285.478 178.737 282.697 175.73 280.28 174.085L272.342 168.764C268.459 166.141 263.821 162.354 269.62 158.906Z"/>
	<path fill="#601621" d="M368.711 158.132C371.776 158.162 374.64 161.97 372.612 164.701C371.12 166.71 355.183 177.71 352.289 178.109L351.249 177.785C336.795 171.934 364.197 159.56 368.711 158.132Z"/>
	<path fill="#601621" d="M333.185 194.219C336.413 193.417 340.105 196.487 339.91 199.813C339.341 209.529 326.626 218.585 317.377 217.587C310.818 216.88 305.813 212.606 301.829 207.65C297.918 201.971 299.05 192.224 305.781 194.43C307.773 195.082 308.66 200.175 309.522 201.929C314.131 211.302 326.053 210.676 330.236 200.781C331.037 198.886 331.457 196.245 332.779 194.677L333.185 194.219Z"/>
	<path fill="#F4F1BB" d="M288.208 314.363C302.484 339.342 337.748 339.646 352.172 315.176C366.12 338.498 397.318 336.967 411.675 315.311C427.779 339.656 459.758 339.458 474.945 314.687C478.564 321.26 485.07 327.164 491.915 330.216C498.335 333.079 512.707 334.522 519.66 331.551L520.229 331.293C520.522 333.089 520.339 335.147 520.341 336.972L520.398 525.979L264.367 525.967L264.364 459.531L264.367 411.105C264.365 408.309 264.496 405.439 264.225 402.656C261.118 370.711 231.161 347.198 199.531 351.77C176.153 355.149 155.521 373.033 150.678 396.406C149.239 403.349 149.622 410.452 149.615 417.5L149.6 525.973C146.306 526.319 142.736 526.033 139.418 526.023L120.075 526.06L120.202 331.845C137.706 336.519 155.881 331.793 166.052 316.063C180.634 333.723 213.677 339.477 225.697 315.921L226.128 316.756C238.148 339.976 277.812 338.197 288.208 314.363Z"/>
	<path fill="#601621" d="M301.711 462.317L479.921 462.509C481.914 462.51 487.414 461.914 488.946 462.878C494.046 466.087 490.475 470.822 485.933 471.506L305.92 471.492C304.158 471.584 301.523 472.339 299.942 471.309L299.625 471.078C295.145 467.877 296.849 463.144 301.711 462.317Z"/>
	<path fill="#601621" d="M428.374 358.356L446.547 358.303C450.592 358.296 455.095 357.905 459.022 358.922C470.004 361.765 478.139 372.127 478.226 383.491L478.171 403.628C478.142 419.262 478.767 437.391 458.179 441.037C454.789 441.637 450.977 441.298 447.527 441.295L358.203 441.301L338.085 441.356C334.267 441.378 329.443 441.93 325.756 441.051C316.776 438.912 308.03 428.344 307.882 419.219L307.868 393.377C307.895 379.296 308.507 362.906 326.505 359.121C331.28 358.117 336.312 358.377 341.168 358.37L428.374 358.356Z"/>
	<path fill="#9BC1BC" d="M334.296 367.013L454.219 367.15C455.605 367.224 456.858 367.378 458.113 368.021L459.121 368.475C468.066 372.291 469.314 380.083 469.356 388.609L469.359 402.287C469.331 416.621 471.966 431.503 451.656 432.557L342.099 432.703C338.038 432.727 333.717 433.107 329.688 432.733C314.289 431.303 316.719 411.502 316.724 401.25L316.745 389.434C316.807 376.88 320.113 367.812 334.296 367.013Z"/>
	<path fill="#601621" d="M368.839 384.531C372.037 383.764 376.345 388.544 371.634 392.083C364.845 397.183 359.867 408.154 351.638 410.283C339.653 408.025 352.728 398.277 356.094 395.203C359.637 391.968 364.258 385.955 368.839 384.531Z"/>
	<path fill="#601621" d="M400.08 384.387L402.031 384.361C404 384.612 406.315 387.471 405.897 389.451C405.42 391.709 401.651 394.753 400.022 396.389L391.998 404.385C389.874 406.475 387.716 408.691 385.148 410.23L383.594 410.57C376.276 408.295 381.27 402.234 384.633 398.865L390.578 392.85C393.623 389.74 396.165 386.436 400.08 384.387Z"/>
</svg>
