<?xml version="1.0" encoding="utf-8" ?>
<svg xmlns="http://www.w3.org/2000/svg" xmlns:xlink="http://www.w3.org/1999/xlink" width="512" height="512">
	<path fill="#AC2F29" transform="scale(0.5 0.5)" d="M836.551 256.438C839.307 261.178 841.496 266.284 843.69 271.304C854.848 296.83 859.716 325.113 855.589 352.854C855.505 353.42 854.562 359.215 854.684 359.349C855.471 360.218 866.216 364.071 867.831 364.793L892.86 377.355C935.607 401.152 995.39 451.601 1000.31 503.124C1001.1 511.303 999.999 519.301 997.901 527.197C990.961 553.312 964.753 573.087 942.5 585.913L905.984 602.522C918.365 620.326 929.754 638.669 934.651 660.044C936.511 668.164 937.465 676.838 935.939 685.1C933.603 697.747 925.885 709.953 915.256 717.272C907.397 722.683 898.574 725.774 889.352 727.975C888.013 728.295 879.182 729.585 878.61 730.133C878.122 730.601 877.235 736.629 876.992 737.709C875.321 745.131 872.515 752.481 869.492 759.45C845.266 815.306 796.475 855.504 741.71 879.717L742.779 872.168L743.5 873.01C748.041 871.841 752.478 868.843 756.584 866.607L772.041 858.175C820.223 829.425 859.139 786.065 873.127 730.943C863.943 732.299 854.711 733.637 845.421 733.955C834.061 734.343 822.944 733.356 811.675 732.08L795.832 729.764C796.22 728.305 795.89 726.501 795.771 725.006C802.724 725.501 809.692 727.098 816.703 727.683C841.394 729.741 865.617 729.547 889.5 722.057C897.008 719.702 904.584 716.904 911.099 712.413C919.95 706.31 927.803 696.282 929.635 685.439C934.638 655.837 916.9 627.266 900.711 604.138L881.172 610.869C881.07 608.908 880.506 607.613 879.67 605.852L897.518 600.108C910.511 595.538 923.433 590.02 935.556 583.496C960.178 570.243 985.134 550.95 993.443 523.042C998.303 506.718 993.283 488.421 985.414 473.907C961.975 430.679 920.645 397.146 877.265 375.236C869.413 371.269 861.093 368.066 852.995 364.626C843.083 360.414 833.123 355.519 822.775 352.518L822.081 352.323L822.25 351.886L849.862 358.359C850.697 350.019 851.555 341.724 851.517 333.328C851.411 310.006 845.883 283.255 833.617 263.223C834.653 261.133 835.706 259.087 836.421 256.859L836.551 256.438Z"/>
	<path fill="#AC2F29" transform="scale(0.5 0.5)" d="M185.722 261.51C186.731 263.291 188.407 265.465 187.886 267.599C187.376 269.681 186.175 271.774 185.36 273.763L181.184 285.143C173.61 308.728 171.755 332.021 177.504 356.208C188.352 351.917 199.089 349.817 210.77 350.064C205.985 351.71 200.831 352.671 195.935 353.99C188.939 355.874 182.091 358.11 175.335 360.729C137.616 375.349 103.366 395.627 73.5901 423.151C58.1949 437.382 43.613 454.204 34.3819 473.17C30.4136 481.323 27.8027 489.312 26.3298 498.251C25.338 504.271 25.7083 511.774 26.7911 517.75L26.9003 518.41C27.4844 521.802 28.9302 525.456 30.21 528.667C37.8129 547.742 53.7515 561.574 70.242 573.014C91.099 587.484 113.786 597.223 137.493 605.88C136.559 607.699 135.851 609.125 135.615 611.169L120.78 605.754C108.235 622.61 96.141 641.396 90.6856 661.901C88.9375 668.472 87.6988 675.341 88.6796 682.157C90.177 692.564 95.3074 702.374 103.86 708.688C114.805 716.769 128.341 720.517 141.5 723.004C163.457 727.153 186.832 728.479 208.955 724.798L222.169 721.844C222.105 723.957 221.876 726.206 222.176 728.299C203.763 731.298 185.462 733.625 166.75 732.921C160.137 732.672 153.607 731.639 147.051 730.812C151.185 743.679 154.52 756.783 159.711 769.296C174.884 805.874 202.361 833.881 237.427 851.964C246.423 856.603 255.317 860.895 264.748 864.582C268.753 866.148 273.003 867.992 277.203 868.91L277.956 875.775C268.278 873.922 257.83 868.404 248.959 864.202C206.248 843.97 170.853 813.699 153.134 768.907C149.351 759.345 146.433 749.545 143.609 739.669L141.697 732.207C141.637 731.933 141.341 730.205 141.251 730.098C141.25 730.097 136.038 729.228 135.619 729.144C122.01 726.399 109.423 721.792 98.4896 713.03C89.7136 705.997 83.6705 696.733 82.5299 685.382C79.5801 656.023 97.8474 625.628 115.697 603.768L70.25 580.399C47.6808 565.711 26.5411 545.607 21.007 518.27C16.4871 495.944 25.7868 473.256 37.9568 454.913C46.6808 441.763 57.3764 430.129 68.8608 419.354C90.2927 399.245 115.04 382.279 141.421 369.358C150.9 364.715 161.987 359.464 172.362 357.429L173 357.311L170.883 347.133C166.251 325.509 169.91 300.959 177.197 280.35C179.484 273.88 181.998 267.304 185.722 261.51Z"/>
	<path fill="#EE695C" transform="scale(0.5 0.5)" d="M222.169 721.844L208.955 724.798C186.832 728.479 163.457 727.153 141.5 723.004C128.341 720.517 114.805 716.769 103.86 708.688C95.3074 702.374 90.177 692.564 88.6796 682.157C87.6988 675.341 88.9375 668.472 90.6856 661.901C96.141 641.396 108.235 622.61 120.78 605.754L135.615 611.169C134.168 616.578 132.519 621.913 131.588 627.447C128.62 645.093 130.579 664.258 139.585 679.947C148.46 695.409 164.801 706.734 181.907 711.147C191.932 713.734 202.688 714.55 213 713.401C216.829 712.974 220.541 711.842 224.336 711.228C223.666 714.645 223.313 718.591 222.169 721.844Z"/>
	<path fill="#EE695C" transform="scale(0.5 0.5)" d="M881.172 610.869L900.711 604.138C916.9 627.266 934.638 655.837 929.635 685.439C927.803 696.282 919.95 706.31 911.099 712.413C904.584 716.904 897.008 719.702 889.5 722.057C865.617 729.547 841.394 729.741 816.703 727.683C809.692 727.098 802.724 725.501 795.771 725.006C794.373 723.962 792.766 714.33 792.236 712.236C802.726 712.943 813.248 714.549 823.8 713.386C842.681 711.305 861.198 704.027 873.121 688.719C884.328 674.332 888.523 653.635 886.267 635.744C885.18 627.117 883.483 619.236 881.172 610.869Z"/>
	<path fill="#EE695C" transform="scale(0.5 0.5)" d="M795.832 729.764L811.675 732.08C822.944 733.356 834.061 734.343 845.421 733.955C854.711 733.637 863.943 732.299 873.127 730.943C859.139 786.065 820.223 829.425 772.041 858.175L756.584 866.607C752.478 868.843 748.041 871.841 743.5 873.01L742.779 872.168C745.178 849.762 746.94 825.659 739.056 804.055L764.066 789.404C777.899 779.363 789.321 763.704 793.329 746.933C794.659 741.365 794.859 735.778 795.764 730.169L795.832 729.764Z"/>
	<path fill="#EE695C" transform="scale(0.5 0.5)" d="M277.203 868.91C273.003 867.992 268.753 866.148 264.748 864.582C255.317 860.895 246.423 856.603 237.427 851.964C202.361 833.881 174.884 805.874 159.711 769.296C154.52 756.783 151.185 743.679 147.051 730.812C153.607 731.639 160.137 732.672 166.75 732.921C185.462 733.625 203.763 731.298 222.176 728.299L223.787 740.25C229.096 763.949 243.949 781.97 264.175 794.869C270.344 798.803 276.692 801.44 283.34 804.349C277.205 818.32 276.208 835.22 276.157 850.288C276.137 856.405 276.085 862.881 277.203 868.91Z"/>
	<path transform="scale(0.5 0.5)" d="M640.768 798.607C646.873 787.923 653.254 780.259 665.524 776.865C671.408 775.238 678.028 775.808 683.649 778.128C684.921 778.654 687.497 780.178 688.822 780.095C690.822 779.97 693.257 778.951 695.25 778.501C703.843 776.56 712.706 776.634 720.482 781.208C727.697 785.453 733.181 792.452 737.105 799.744L739.056 804.055C746.94 825.659 745.178 849.762 742.779 872.168L741.71 879.717C736.322 907.306 727.946 932.628 713.25 956.723C705.8 968.938 695.965 981.452 683.989 989.566C675.286 995.461 664.831 999.507 654.206 997.307C649.388 996.31 645.308 994.548 641.313 991.692L640.744 991.295C625.139 980.084 619.592 957.731 616.867 939.828L614.979 921.566L614.934 903.301L616.991 878.5C620.164 852.159 627.338 826.403 638.736 802.435C639.514 801.495 640.185 799.721 640.768 798.607Z"/>
	<path fill="#EE695C" transform="scale(0.5 0.5)" d="M667.849 781.593C673.51 780.906 678.977 781.541 683.984 784.4C698.647 792.773 702.087 808.94 705.983 823.945L707.033 817.145C708.571 804.669 700.762 793.569 693.543 784.346C702.495 781.944 710.377 781.68 718.802 786.411C728.482 791.848 733.433 803.827 736.112 814C739.068 825.227 739.344 837.061 738.99 848.609C737.817 886.807 727.09 921.964 707.914 954.921C705.968 958.535 703.115 962.144 700.602 965.396C693.071 975.14 683.689 985.01 672.064 989.713C664.724 992.683 656.92 993.831 649.5 990.458C638.272 985.355 631.723 973.553 627.845 962.41C622.204 946.206 620.696 928.499 620.533 911.436C620.203 876.742 625.635 841.152 640.861 809.703C645.018 801.119 649.872 791.674 657.906 786.178C660.999 784.062 664.345 782.817 667.849 781.593Z"/>
	<path transform="scale(0.5 0.5)" d="M650.452 802.25C652.108 801.788 653.109 801.897 654.585 802.75C660.322 806.066 665.859 816.677 667.054 822.983C667.413 824.873 667.86 826.897 666.75 828.51C663.223 824.181 660.615 818.933 657.459 814.314C655.211 811.024 652.334 808.085 649.75 805.047C649.546 803.459 649.517 803.548 650.452 802.25Z"/>
	<path transform="scale(0.5 0.5)" d="M285.694 799.396C291.718 789.164 299.113 778.329 311.344 775.218L315.175 774.34C320.146 773.087 324.943 777.003 329.538 777.41C330.467 777.492 334.456 775.057 335.752 774.64C337.986 773.921 340.236 773.656 342.548 773.335C349.88 772.32 358.5 776.533 364.177 780.929C371.296 786.443 376.365 793.46 381.161 800.997C381.903 802.573 382.6 804.09 383.606 805.516C400.827 838.669 405.759 878.666 405.32 915.586C405.279 917.77 405.027 920.142 405.412 922.288C405.729 926.025 404.856 930.099 404.358 933.808C402.167 950.142 398.802 967.148 389.594 981.138C384.277 989.216 375.921 995.586 366.298 997.336C354.922 999.405 342.483 994.487 333.4 987.925C322.908 980.345 314.288 969.988 307.322 959.167C290.946 933.731 282.782 905.382 277.956 875.775L277.203 868.91C276.085 862.881 276.137 856.405 276.157 850.288C276.208 835.22 277.205 818.32 283.34 804.349C284.314 803.137 285.018 800.851 285.694 799.396Z"/>
	<path fill="#EE695C" transform="scale(0.5 0.5)" d="M341.059 777.553C344.011 777.43 347.11 777.578 350.003 778.225C361.59 780.815 369.812 791.288 375.788 800.751C364.097 806.189 358.29 814.395 353.002 825.819C360.555 817.233 368.058 810.925 378.569 806.243C384.391 819.047 389.285 831.602 392.622 845.303C396.867 862.734 399.214 880.602 400.066 898.509C400.887 915.742 400.258 933.706 396.114 950.5C393.908 959.441 390.855 968.713 385.961 976.585C381.147 984.329 374.864 989.893 365.794 991.978C355.715 994.296 346.599 989.982 338.294 984.74C327.09 977.047 318.831 966.689 311.506 955.395C295.376 930.527 286.986 902.061 283.389 872.812C281.175 854.815 280.783 836.575 284.691 818.766C287.606 805.477 293.636 789.773 305.781 782.307C312.322 778.286 317.798 778.835 324.981 780.41C320.031 788.304 315.849 795.736 313.995 805.008C313.146 809.25 312.953 813.743 312.529 818.054C316.026 809.399 318.097 800.392 322.741 792.17C327.387 783.946 331.874 780.12 341.059 777.553Z"/>
	<path fill="#EE695C" transform="scale(0.5 0.5)" d="M383.606 805.516C387.27 802.472 392.197 800.286 396.113 797.405C402.613 792.623 408.869 787.293 414.082 781.112C417.773 776.734 420.821 771.891 424.249 767.311C435.091 789.341 450.783 807.491 472.892 818.775C493.028 829.053 517.13 829.471 538.369 822.39C556.846 816.23 575.013 801.589 585.395 785.183C588.956 779.555 591.524 773.195 594.506 767.243C597.931 772.084 601.125 777.3 605.046 781.75C613.816 791.701 625.773 799.391 638.736 802.435C627.338 826.403 620.164 852.159 616.991 878.5L614.934 903.301L614.979 921.566L584.5 926.464C543.002 931.294 501.047 931.547 459.416 928.588C441.439 927.31 423.116 925.693 405.412 922.288C405.027 920.142 405.279 917.77 405.32 915.586C405.759 878.666 400.827 838.669 383.606 805.516Z"/>
	<path fill="#AC2F29" transform="scale(0.5 0.5)" d="M405.32 915.586L405.75 917.096C409.693 917.937 413.871 918.155 417.883 918.595L436 920.638C474.653 924.644 513.447 925.507 552.25 923.028C573.246 921.686 593.798 919.742 614.516 915.964C614.466 912.017 614.029 907.604 614.833 903.736L614.934 903.301L614.979 921.566L584.5 926.464C543.002 931.294 501.047 931.547 459.416 928.588C441.439 927.31 423.116 925.693 405.412 922.288C405.027 920.142 405.279 917.77 405.32 915.586Z"/>
	<path fill="#EE695C" transform="scale(0.5 0.5)" d="M298.664 175.112C308.402 155.749 321.518 138.617 336.459 122.986C353.864 104.778 375.001 89.1525 397.957 78.6952C401.365 77.1428 405.706 74.5757 409.5 74.4917C412.177 76.7052 411.038 82.9061 411.158 86.2873C411.669 100.61 414.36 114.002 420.407 127.099C422.112 120.935 423.832 115.033 426.684 109.275C442.408 77.5301 476.551 63.5613 500.825 39.9319C504.701 36.1583 508.866 32.0559 511.621 27.3582C513.52 24.1189 514.107 18.7848 517 16.4969C517.626 16.452 518.136 16.4214 518.75 16.5873C522.534 17.6102 526.837 21.6468 530.083 23.9287C546.059 35.1613 560.487 47.5868 573.778 61.9348C581.341 70.0984 588.844 79.0401 594.033 88.9242C602.142 104.371 603.756 119.335 598.582 136.033C607.533 122.771 615.317 108 617.957 92.0691C618.882 86.4881 618.536 80.8129 619.75 75.2713C620.895 73.901 621.027 73.8419 622.75 73.3549C625.244 74.0466 627.347 75.6128 629.5 77.006L640.759 84.59C674.742 108.314 704.414 137.487 725.747 173.207C761.239 149.378 796.44 125.069 833.765 104.141C846.937 96.7558 860.503 89.1928 874.5 83.5046C877.796 82.1653 884.183 78.9692 887.75 79.568C889.58 79.8752 891.033 80.9228 891.986 82.5C897.58 91.7629 886.94 124.844 883.95 134.992C874.654 166.543 862.661 196.793 849.95 227.103L843.045 242.523C841.449 245.771 836.364 253.125 836.551 256.438L836.421 256.859C835.706 259.087 834.653 261.133 833.617 263.223C845.883 283.255 851.411 310.006 851.517 333.328C851.555 341.724 850.697 350.019 849.862 358.359L822.25 351.886L822.081 352.323L822.775 352.518C833.123 355.519 843.083 360.414 852.995 364.626C861.093 368.066 869.413 371.269 877.265 375.236C920.645 397.146 961.975 430.679 985.414 473.907C993.283 488.421 998.303 506.718 993.443 523.042C985.134 550.95 960.178 570.243 935.556 583.496C923.433 590.02 910.511 595.538 897.518 600.108L879.67 605.852C877.75 603.43 876.472 599.303 875.064 596.5C872.725 591.843 869.987 587.182 867.028 582.897C846.928 553.788 817.776 529.812 785.7 515.012C786.702 510.744 788.237 506.693 789.353 502.47C791.286 495.148 792.553 487.225 793.211 479.682C797.365 432.079 775.537 384.783 745.385 349.115C707.75 304.596 657.733 273.816 601.133 259.949C584.738 255.933 568.286 253.741 551.486 252.354C551.545 254.008 551.463 255.828 551.935 257.415C551.562 264.281 551.286 271.1 549.992 277.871C546.442 296.444 536.991 314.746 522.523 327.098L520.838 328.345C518.527 326.039 516.631 323.079 514.639 320.487L505.509 309.519C490.327 292.531 472.848 278.006 452.445 267.697C446.332 264.608 440.078 262.323 433.738 259.791L429.781 256.482C416.201 257.609 403.172 262.903 390.644 268.058C344.049 287.231 300.828 315.928 268.021 354.48C238.067 389.68 218.637 433.76 222.602 480.593C223.328 489.167 224.756 497.384 227.027 505.694C227.943 509.044 230.87 514.636 230.512 517.976C219.641 522.085 210.026 527.346 200.204 533.489C173.706 550.064 152.95 571.518 139.972 600.25L137.493 605.88C113.786 597.223 91.099 587.484 70.242 573.014C53.7515 561.574 37.8129 547.742 30.21 528.667C28.9302 525.456 27.4844 521.802 26.9003 518.41L26.7911 517.75C25.7083 511.774 25.338 504.271 26.3298 498.251C27.8027 489.312 30.4136 481.323 34.3819 473.17C43.613 454.204 58.1949 437.382 73.5901 423.151C103.366 395.627 137.616 375.349 175.335 360.729C182.091 358.11 188.939 355.874 195.935 353.99C200.831 352.671 205.985 351.71 210.77 350.064C199.089 349.817 188.352 351.917 177.504 356.208C171.755 332.021 173.61 308.728 181.184 285.143L185.36 273.763C186.175 271.774 187.376 269.681 187.886 267.599C188.407 265.465 186.731 263.291 185.722 261.51C184.745 257.293 181.213 252.265 179.25 248.324L168.354 225.07C153.334 190.958 140.048 156.038 130.391 120C127.878 110.623 124.928 100.63 123.699 91C123.301 87.8804 123.218 83.9351 125.39 81.4029C126.603 79.9895 128.65 79.0555 130.492 78.9456C136.867 78.5655 144.607 82.7446 150.242 85.2471C166.209 92.338 181.484 101.089 196.577 109.866L260.504 149.24C273.346 157.517 287.023 165.17 298.664 175.112Z"/>
	<path fill="#AC2F29" transform="scale(0.5 0.5)" d="M429.781 256.482C436.591 257.41 442.358 259.753 448.634 262.419C468.208 270.731 487.159 284.399 501.807 299.819C509.136 307.535 515.164 316.236 521.952 324.403L526.429 319.525C543.155 299.643 550.113 272.782 547.112 247.149C546.004 237.683 543.167 228.419 542.345 218.943C548.18 227.685 550.717 241.956 551.486 252.354C551.545 254.008 551.463 255.828 551.935 257.415C551.562 264.281 551.286 271.1 549.992 277.871C546.442 296.444 536.991 314.746 522.523 327.098L520.838 328.345C518.527 326.039 516.631 323.079 514.639 320.487L505.509 309.519C490.327 292.531 472.848 278.006 452.445 267.697C446.332 264.608 440.078 262.323 433.738 259.791L429.781 256.482Z"/>
	<path fill="#AC2F29" transform="scale(0.5 0.5)" d="M802.77 310.619C803.409 310.937 804.018 311.258 804.604 311.67C805.27 312.138 805.889 312.266 805.975 313.159C806.148 314.966 805.541 316.369 804.448 317.75C803.339 318.05 802.457 317.99 801.331 317.838C796.172 317.142 790.732 314.816 785.902 312.929C753.287 300.189 726.09 274.591 705.084 247.154C698.498 238.551 692.602 229.487 687.015 220.212C684.685 216.345 680.596 211.428 681.221 206.75C682.663 205.42 683.594 205.061 685.5 204.649C687.047 205.133 687.268 206.176 688.089 207.533C694.017 219.363 701.435 230.568 709.322 241.175C730.722 269.957 759.486 296.777 794.134 308.247L802.77 310.619Z"/>
	<path fill="#AC2F29" transform="scale(0.5 0.5)" d="M328.991 204.059C330.124 202.576 330.652 201.051 332.837 201.61C334.211 201.962 334.539 202.227 335.527 203.25C335.922 207.381 334.351 211.299 332.895 215.104C327.825 228.353 320.018 240.245 310.983 251.125C290.236 276.11 262.159 297.037 233.587 312.108C228.667 314.703 223.726 317.609 218.5 319.514C216.085 320.394 212.544 322.101 210.016 321.25C209.057 320.009 208.335 319.214 208.503 317.5C208.658 315.927 209.746 314.797 211 313.955C213.273 312.429 217.202 311.476 219.849 310.556L250.5 293.931C257.707 289.715 264.671 284.44 271.206 279.25C284.436 268.742 296.18 257.299 306.846 244.162C316.333 232.477 325.191 218.791 328.991 204.059Z"/>
	<path fill="#AC2F29" transform="scale(0.5 0.5)" d="M298.664 175.112C308.402 155.749 321.518 138.617 336.459 122.986C353.864 104.778 375.001 89.1525 397.957 78.6952C401.365 77.1428 405.706 74.5757 409.5 74.4917C412.177 76.7052 411.038 82.9061 411.158 86.2873C411.669 100.61 414.36 114.002 420.407 127.099C422.112 120.935 423.832 115.033 426.684 109.275C442.408 77.5301 476.551 63.5613 500.825 39.9319C504.701 36.1583 508.866 32.0559 511.621 27.3582C513.52 24.1189 514.107 18.7848 517 16.4969C517.626 16.452 518.136 16.4214 518.75 16.5873C522.534 17.6102 526.837 21.6468 530.083 23.9287C546.059 35.1613 560.487 47.5868 573.778 61.9348C581.341 70.0984 588.844 79.0401 594.033 88.9242C602.142 104.371 603.756 119.335 598.582 136.033C607.533 122.771 615.317 108 617.957 92.0691C618.882 86.4881 618.536 80.8129 619.75 75.2713C620.895 73.901 621.027 73.8419 622.75 73.3549C625.244 74.0466 627.347 75.6128 629.5 77.006L640.759 84.59C674.742 108.314 704.414 137.487 725.747 173.207L721.7 176.244L699.754 146.163C687.543 130.6 673.155 117.034 657.833 104.583L625.61 80.7253C624.939 86.6716 624.403 92.6506 622.974 98.4759C618.184 118.006 606.88 137.615 591.25 150.407C589.258 152.038 587.044 153.461 584.784 154.688C592.539 136.501 602.198 121.24 594.092 100.982C580.906 68.0248 548.267 41.4739 519.59 22.1154C515.518 29.0138 512.118 35.457 506.492 41.2946C500.684 47.3202 493.875 52.3023 487.325 57.4675C464.008 75.8552 439.593 92.9217 427.167 120.963C425.444 124.852 422.315 131.446 422.146 135.691L424.823 141.332C409.295 124.303 406.489 102.811 406.445 80.5633C366.284 97.5897 334.597 127.309 310.973 163.521C309.798 165.322 302.718 176.875 302 177.033C301.696 177.099 301.382 176.968 301.073 176.936L298.664 175.112Z"/>
	<path fill="#F1B45D" transform="scale(0.5 0.5)" d="M219.849 310.556C201.479 279.367 185.475 247.271 171.205 214.012C156.571 179.907 143.948 145.573 135.164 109.464L132.027 95.6414C131.44 93.1007 130.082 88.7461 130.761 86.2475C131.03 85.2557 130.839 85.5966 131.75 85.0461C143.723 89.0503 154.587 94.8342 165.7 100.699L190.993 114.232L220.446 132.695L286.394 174.133L328.991 204.059C325.191 218.791 316.333 232.477 306.846 244.162C296.18 257.299 284.436 268.742 271.206 279.25C264.671 284.44 257.707 289.715 250.5 293.931L219.849 310.556Z"/>
	<path fill="#F1B45D" transform="scale(0.5 0.5)" d="M688.089 207.533L720.888 184.082L769.58 152.303C797.093 134.352 824.457 116.615 853.435 101.069L886.849 84.8701C886.221 104.653 880.325 123.093 874.418 141.841C866.023 168.486 856.977 195.235 845.498 220.737L814.447 286.039L802.77 310.619L794.134 308.247C759.486 296.777 730.722 269.957 709.322 241.175C701.435 230.568 694.017 219.363 688.089 207.533Z"/>
	<path fill="#F3F1BB" transform="scale(0.5 0.5)" d="M551.486 252.354C568.286 253.741 584.738 255.933 601.133 259.949C657.733 273.816 707.75 304.596 745.385 349.115C775.537 384.783 797.365 432.079 793.211 479.682C792.553 487.225 791.286 495.148 789.353 502.47C788.237 506.693 786.702 510.744 785.7 515.012C817.776 529.812 846.928 553.788 867.028 582.897C869.987 587.182 872.725 591.843 875.064 596.5C876.472 599.303 877.75 603.43 879.67 605.852C880.506 607.613 881.07 608.908 881.172 610.869C883.483 619.236 885.18 627.117 886.267 635.744C888.523 653.635 884.328 674.332 873.121 688.719C861.198 704.027 842.681 711.305 823.8 713.386C813.248 714.549 802.726 712.943 792.236 712.236C792.766 714.33 794.373 723.962 795.771 725.006C795.89 726.501 796.22 728.305 795.832 729.764L795.764 730.169C794.859 735.778 794.659 741.365 793.329 746.933C789.321 763.704 777.899 779.363 764.066 789.404L739.056 804.055L737.105 799.744C733.181 792.452 727.697 785.453 720.482 781.208C712.706 776.634 703.843 776.56 695.25 778.501C693.257 778.951 690.822 779.97 688.822 780.095C687.497 780.178 684.921 778.654 683.649 778.128C678.028 775.808 671.408 775.238 665.524 776.865C653.254 780.259 646.873 787.923 640.768 798.607C640.185 799.721 639.514 801.495 638.736 802.435C625.773 799.391 613.816 791.701 605.046 781.75C601.125 777.3 597.931 772.084 594.506 767.243C591.524 773.195 588.956 779.555 585.395 785.183C575.013 801.589 556.846 816.23 538.369 822.39C517.13 829.471 493.028 829.053 472.892 818.775C450.783 807.491 435.091 789.341 424.249 767.311C420.821 771.891 417.773 776.734 414.082 781.112C408.869 787.293 402.613 792.623 396.113 797.405C392.197 800.286 387.27 802.472 383.606 805.516C382.6 804.09 381.903 802.573 381.161 800.997C376.365 793.46 371.296 786.443 364.177 780.929C358.5 776.533 349.88 772.32 342.548 773.335C340.236 773.656 337.986 773.921 335.752 774.64C334.456 775.057 330.467 777.492 329.538 777.41C324.943 777.003 320.146 773.087 315.175 774.34L311.344 775.218C299.113 778.329 291.718 789.164 285.694 799.396C285.018 800.851 284.314 803.137 283.34 804.349C276.692 801.44 270.344 798.803 264.175 794.869C243.949 781.97 229.096 763.949 223.787 740.25L222.176 728.299C221.876 726.206 222.105 723.957 222.169 721.844C223.313 718.591 223.666 714.645 224.336 711.228C220.541 711.842 216.829 712.974 213 713.401C202.688 714.55 191.932 713.734 181.907 711.147C164.801 706.734 148.46 695.409 139.585 679.947C130.579 664.258 128.62 645.093 131.588 627.447C132.519 621.913 134.168 616.578 135.615 611.169C135.851 609.125 136.559 607.699 137.493 605.88L139.972 600.25C152.95 571.518 173.706 550.064 200.204 533.489C210.026 527.346 219.641 522.085 230.512 517.976C230.87 514.636 227.943 509.044 227.027 505.694C224.756 497.384 223.328 489.167 222.602 480.593C218.637 433.76 238.067 389.68 268.021 354.48C300.828 315.928 344.049 287.231 390.644 268.058C403.172 262.903 416.201 257.609 429.781 256.482L433.738 259.791C440.078 262.323 446.332 264.608 452.445 267.697C472.848 278.006 490.327 292.531 505.509 309.519L514.639 320.487C516.631 323.079 518.527 326.039 520.838 328.345L522.523 327.098C536.991 314.746 546.442 296.444 549.992 277.871C551.286 271.1 551.562 264.281 551.935 257.415C551.463 255.828 551.545 254.008 551.486 252.354Z"/>
	<path fill="#9AC0BB" transform="scale(0.5 0.5)" d="M349.565 480.75L349.761 480.704C351.458 480.487 351.703 480.329 353.064 481.433C357.739 485.225 360.772 492.896 363.293 498.302C370.187 513.09 378.009 529.689 378.897 546.227C379.224 552.317 376.851 558.834 372.8 563.352C365.331 571.681 356.125 572.649 345.631 573.164C344.057 573.08 342.44 573.024 340.892 572.706C332.719 571.029 324.419 566.593 319.725 559.473C316.377 554.394 314.776 549.108 315.953 543.078C319.295 525.945 335.085 490.61 349.565 480.75Z"/>
	<path fill="#9AC0BB" transform="scale(0.5 0.5)" d="M662.666 479.75C663.303 479.741 663.6 479.64 664.169 479.96C668.896 482.615 671.743 487.418 674.69 491.813C683.572 505.056 691.076 520.232 695.293 535.665C697.614 544.159 697.6 551.596 693.028 559.275C689.133 565.818 681.567 570.669 674.278 572.473L673.5 572.659C670.561 573.381 667.548 573.617 664.544 573.93C658.576 573.672 653.172 572.933 647.574 570.718C640.344 567.856 634.346 562.143 631.331 554.922C626.799 544.069 634.215 526.293 638.483 516.109L646.4 499.522C650.264 492.026 654.423 483.128 662.666 479.75Z"/>
	<path transform="scale(0.5 0.5)" d="M505.688 485.722C526.173 484.959 547.965 491.559 565.521 501.835C570.685 504.858 575.794 508.066 580.26 512.08C586.672 517.843 591.71 524.027 595.28 531.883C596.245 534.005 597.486 536.62 597.52 538.965C597.54 540.366 597.368 542.058 596.25 543.026C594.77 544.307 592.824 544.415 591.003 544.11C581.645 542.542 572.796 539.285 563.678 536.824C547.205 532.379 528.907 529.39 511.812 529.514C498.582 529.593 485.256 530.476 472.221 532.767C462.199 534.528 452.166 537.284 442.42 540.228C437.665 541.664 432.949 543.758 428.042 544.57C425.447 545 423.782 545.081 421.257 544.25C419.975 543.007 419.523 542.641 419.371 540.75C418.79 533.519 423.636 526.287 428.039 520.919C447.156 497.613 476.807 488.66 505.688 485.722Z"/>
	<path fill="#AC2F29" transform="scale(0.5 0.5)" d="M501.142 490.191C514.91 488.116 532.672 491.899 545.5 496.926C560.173 502.676 574.355 510.676 584.709 522.8C587.506 526.075 590.342 529.651 592.037 533.644C592.776 535.385 593.987 538.047 593.25 539.893C588.836 540.538 584.294 538.85 580.151 537.475C558.984 530.455 537.235 526.58 514.995 525.496C493.633 525.383 472.658 527.366 452.031 533.195C442.975 535.755 433.762 539.904 424.5 541.424C423.234 540.608 423.101 540.671 422.678 539.25C424.604 533.424 427.387 528.205 431.222 523.391C447.545 502.903 475.954 493.042 501.142 490.191Z"/>
	<path transform="scale(0.5 0.5)" d="M642.871 333.688L643.75 333.548C647.368 333.14 651.44 333.815 655 334.465C664.975 336.286 674.431 340.254 682.448 346.498C695.622 356.76 704.744 371.49 706.77 388.168C708.728 404.286 703.8 421.378 693.579 434.008C682.077 448.224 666.396 454.683 648.623 456.758C635.032 458.002 620.77 453.463 609.865 445.362C596.996 435.802 587.764 421.065 585.401 405.14C582.935 388.519 586.526 372.085 596.669 358.572C604.112 348.654 614.669 340.539 626.59 336.817C631.87 335.168 637.411 334.464 642.871 333.688Z"/>
	<path fill="#F3F1BB" transform="scale(0.5 0.5)" d="M642.265 336.199C646.582 335.703 652.349 336.145 656.566 337.233C664.596 339.304 671.728 341.953 678.69 346.548C691.523 355.018 700.925 369.443 703.883 384.508C706.909 399.923 702.951 416.728 694.115 429.613C683.961 444.419 668.684 451.268 651.625 454.491C647.528 454.528 643.285 454.736 639.211 454.309C628.208 453.153 617.364 448.734 608.842 441.688C595.894 430.983 588.575 415.938 587.101 399.306C585.711 383.623 591.343 367.838 601.506 355.989C611.965 343.797 626.431 337.46 642.265 336.199Z"/>
	<path fill="#193C55" transform="scale(0.5 0.5)" d="M643 344.192C654.301 343.241 665.169 346.001 674.75 352.032C687.155 359.841 694.259 371.665 697.364 385.777C700.299 399.117 696.738 412.447 689.37 423.75C680.491 437.372 666.164 443.743 650.873 447.046C638.712 448.313 624.709 444.194 615.15 436.663C603.607 427.569 596.422 414.653 594.763 400.063C593.27 386.935 598.254 373.08 606.467 362.93C615.423 351.863 629.064 345.701 643 344.192Z"/>
	<path fill="#FEFEFE" transform="scale(0.5 0.5)" d="M631.902 352.202C638.087 352.488 643.724 353.383 648.696 357.47C653.752 361.626 656.962 367.399 657.374 374C657.712 379.425 655.557 385.393 652.009 389.462C648.723 393.231 642.257 397.147 637.125 397.536C630.652 397.6 625.474 396.948 620.056 393.06C614.892 389.353 611.423 383.507 610.471 377.221C609.645 371.769 611.326 365.559 614.706 361.25C618.784 356.05 625.451 353.062 631.902 352.202Z"/>
	<path transform="scale(0.5 0.5)" d="M369.142 332.713C384.517 333.332 398.799 337.958 410.298 348.602C422.069 359.499 429.988 374.941 430.484 391.169C431.005 408.184 425.937 424.642 414.12 437.202C402.379 449.681 387.381 455.947 370.388 456.52C365.627 456.397 360.528 455.97 355.911 454.783L355 454.54C346.573 452.384 338.644 448.64 331.905 443.097C317.991 431.653 310.29 416.315 308.68 398.435C307.333 383.464 313.348 366.26 323.017 354.868C335.238 340.468 350.754 334.39 369.142 332.713Z"/>
	<path fill="#F3F1BB" transform="scale(0.5 0.5)" d="M365.355 335.164L365.795 335.082C378.7 332.901 394.457 339.224 404.704 346.748C417.158 355.892 425.363 370.681 427.695 385.84C430.116 401.58 425.975 418.031 416.529 430.807C405.88 445.209 391.379 451.689 374.123 454.312L373.842 454.375C359.381 455.569 345.392 449.998 333.917 441.617C322.07 432.964 313.898 418.814 311.684 404.398C309.24 388.481 313.199 372.107 322.798 359.157C333.698 344.45 347.567 337.905 365.355 335.164Z"/>
	<path fill="#193C55" transform="scale(0.5 0.5)" d="M364.788 343.161C374.162 341.148 387.189 345.421 395.308 350.207C408.517 357.993 416.183 369.876 419.791 384.614C423.018 397.796 419.463 412.859 412.414 424.25C404.094 437.693 390.419 444.056 375.586 447.492C362.007 447.635 350.056 445.738 338.77 437.614C328.318 430.089 319.807 417.445 317.89 404.575C315.703 389.889 319.113 374.887 328.133 363.056C337.231 351.123 350.224 345.164 364.788 343.161Z"/>
	<path fill="#FEFEFE" transform="scale(0.5 0.5)" d="M374.918 352.202C379.758 352.253 384.168 352.7 388.48 355.137C393.221 357.816 397.227 362.577 398.562 367.896C400.04 373.786 399.123 379.61 395.903 384.797C392.216 390.734 386.426 393.89 379.839 395.539C376.781 395.558 373.739 395.456 370.75 394.724C365.167 393.356 360.515 389.585 357.538 384.75C354.852 380.388 353.486 374.163 354.792 369.11L354.962 368.5C355.663 365.922 356.578 363.713 358.227 361.58C362.176 356.469 368.539 352.976 374.918 352.202Z"/>
	<path fill="#F3F1BB" transform="scale(0.5 0.5)" d="M551.486 252.354C568.286 253.741 584.738 255.933 601.133 259.949C657.733 273.816 707.75 304.596 745.385 349.115C775.537 384.783 797.365 432.079 793.211 479.682C792.553 487.225 791.286 495.148 789.353 502.47C788.237 506.693 786.702 510.744 785.7 515.012C817.776 529.812 846.928 553.788 867.028 582.897C869.987 587.182 872.725 591.843 875.064 596.5C876.472 599.303 877.75 603.43 879.67 605.852C880.506 607.613 881.07 608.908 881.172 610.869C883.483 619.236 885.18 627.117 886.267 635.744C888.523 653.635 884.328 674.332 873.121 688.719C861.198 704.027 842.681 711.305 823.8 713.386C813.248 714.549 802.726 712.943 792.236 712.236C792.766 714.33 794.373 723.962 795.771 725.006C795.89 726.501 796.22 728.305 795.832 729.764L795.764 730.169C794.859 735.778 794.659 741.365 793.329 746.933C789.321 763.704 777.899 779.363 764.066 789.404L739.056 804.055L737.105 799.744C733.181 792.452 727.697 785.453 720.482 781.208C712.706 776.634 703.843 776.56 695.25 778.501C693.257 778.951 690.822 779.97 688.822 780.095C687.497 780.178 684.921 778.654 683.649 778.128C678.028 775.808 671.408 775.238 665.524 776.865C653.254 780.259 646.873 787.923 640.768 798.607C640.185 799.721 639.514 801.495 638.736 802.435C625.773 799.391 613.816 791.701 605.046 781.75C601.125 777.3 597.931 772.084 594.506 767.243C591.524 773.195 588.956 779.555 585.395 785.183C575.013 801.589 556.846 816.23 538.369 822.39C517.13 829.471 493.028 829.053 472.892 818.775C450.783 807.491 435.091 789.341 424.249 767.311C420.821 771.891 417.773 776.734 414.082 781.112C408.869 787.293 402.613 792.623 396.113 797.405C392.197 800.286 387.27 802.472 383.606 805.516C382.6 804.09 381.903 802.573 381.161 800.997C376.365 793.46 371.296 786.443 364.177 780.929C358.5 776.533 349.88 772.32 342.548 773.335C340.236 773.656 337.986 773.921 335.752 774.64C334.456 775.057 330.467 777.492 329.538 777.41C324.943 777.003 320.146 773.087 315.175 774.34L311.344 775.218C299.113 778.329 291.718 789.164 285.694 799.396C285.018 800.851 284.314 803.137 283.34 804.349C276.692 801.44 270.344 798.803 264.175 794.869C243.949 781.97 229.096 763.949 223.787 740.25L222.176 728.299C221.876 726.206 222.105 723.957 222.169 721.844C223.313 718.591 223.666 714.645 224.336 711.228C220.541 711.842 216.829 712.974 213 713.401C202.688 714.55 191.932 713.734 181.907 711.147C164.801 706.734 148.46 695.409 139.585 679.947C130.579 664.258 128.62 645.093 131.588 627.447C132.519 621.913 134.168 616.578 135.615 611.169C135.851 609.125 136.559 607.699 137.493 605.88L139.972 600.25C152.95 571.518 173.706 550.064 200.204 533.489C210.026 527.346 219.641 522.085 230.512 517.976C230.87 514.636 227.943 509.044 227.027 505.694C224.756 497.384 223.328 489.167 222.602 480.593C218.637 433.76 238.067 389.68 268.021 354.48C300.828 315.928 344.049 287.231 390.644 268.058C403.172 262.903 416.201 257.609 429.781 256.482L433.738 259.791C428.557 262.06 422.366 263.018 416.904 264.602C410.843 266.359 404.841 268.739 398.954 271.017C357.183 287.179 317.589 311.677 286.056 343.644C253.886 376.256 227.233 420.439 227.72 467.61C228.143 508.542 246.915 546.999 276.05 575.314C316.3 614.433 370.346 635.797 424.685 646.254C450.687 651.258 477.828 654.117 504.336 653.761C526.735 653.461 549.033 652.475 571.25 649.463C632.072 641.216 698.125 618.544 741.691 573.483C770.542 543.641 788.468 505.961 787.599 464.021C786.513 411.637 755.812 364.494 719.063 329.33C685.312 297.035 640.861 275.136 595.652 264.442C581.278 261.041 566.597 259.04 551.935 257.415C551.463 255.828 551.545 254.008 551.486 252.354Z"/>
	<path fill="#8A7370" transform="scale(0.5 0.5)" d="M381.161 800.997C395.778 792.758 408.518 782.202 417.876 768.135C420.283 764.515 422.225 760.53 424.222 756.672C427.352 762.189 429.867 768.052 433.106 773.504C444.285 792.321 460.551 809.182 481.303 817.137C500.308 824.423 522.51 823.291 540.99 815.066C566.252 803.823 583.598 783.011 593.517 757.45C605.028 776.196 619.936 790.674 640.768 798.607C640.185 799.721 639.514 801.495 638.736 802.435C625.773 799.391 613.816 791.701 605.046 781.75C601.125 777.3 597.931 772.084 594.506 767.243C591.524 773.195 588.956 779.555 585.395 785.183C575.013 801.589 556.846 816.23 538.369 822.39C517.13 829.471 493.028 829.053 472.892 818.775C450.783 807.491 435.091 789.341 424.249 767.311C420.821 771.891 417.773 776.734 414.082 781.112C408.869 787.293 402.613 792.623 396.113 797.405C392.197 800.286 387.27 802.472 383.606 805.516C382.6 804.09 381.903 802.573 381.161 800.997Z"/>
	<defs>
		<linearGradient id="gradient_0" gradientUnits="userSpaceOnUse" x1="517.91595" y1="252.49991" x2="504.22742" y2="807.98853">
			<stop offset="0" stop-color="#996F61"/>
			<stop offset="1" stop-color="#887771"/>
		</linearGradient>
	</defs>
	<path fill="url(#gradient_0)" transform="scale(0.5 0.5)" d="M551.486 252.354C568.286 253.741 584.738 255.933 601.133 259.949C657.733 273.816 707.75 304.596 745.385 349.115C775.537 384.783 797.365 432.079 793.211 479.682C792.553 487.225 791.286 495.148 789.353 502.47C788.237 506.693 786.702 510.744 785.7 515.012C817.776 529.812 846.928 553.788 867.028 582.897C869.987 587.182 872.725 591.843 875.064 596.5C876.472 599.303 877.75 603.43 879.67 605.852C880.506 607.613 881.07 608.908 881.172 610.869C883.483 619.236 885.18 627.117 886.267 635.744C888.523 653.635 884.328 674.332 873.121 688.719C861.198 704.027 842.681 711.305 823.8 713.386C813.248 714.549 802.726 712.943 792.236 712.236C792.766 714.33 794.373 723.962 795.771 725.006C795.89 726.501 796.22 728.305 795.832 729.764L795.764 730.169C794.859 735.778 794.659 741.365 793.329 746.933C789.321 763.704 777.899 779.363 764.066 789.404L739.056 804.055L737.105 799.744C755.356 790.066 771.314 778.942 781.261 760.261C787.384 748.761 791.313 734.394 788.285 721.423C787.372 717.51 785.545 714.116 784.5 710.314C784.106 708.88 783.757 707.276 784.75 706.003C785.56 704.965 786.73 704.505 788 704.508C791.408 704.516 795 706.209 798.356 706.872C806.102 708.403 814.425 708.242 822.25 707.341C838.942 705.42 857.753 698.758 868.396 685.117C878.577 672.07 882.181 651.106 880.219 635.015C879.448 628.69 878.482 622.671 876.65 616.544C872.898 604.001 866.087 592.217 858.338 581.736C838.87 555.404 812.51 535.707 783.961 520.208C778.116 533.366 771.76 546.013 763.319 557.75C739.509 590.855 704.634 613.333 668 629.882C654.647 635.914 640.638 640.425 626.576 644.443C576.514 658.746 525.345 662.234 473.543 658.439C436.565 655.729 399.483 649.457 364.656 636.278C321.415 619.914 280.597 595.423 252.734 557.695C244.61 546.694 238.268 535.001 232.674 522.545C224.864 525.477 217.928 529.444 210.762 533.648C192.872 544.141 175.757 557.195 162.861 573.597C145.961 595.092 133.012 623.266 136.502 651.25C138.5 667.275 145.167 682.425 158.25 692.461C175.515 705.705 197.52 710.731 218.918 707.665L219.75 707.541C223.592 707.019 226.763 705.042 230.5 704.158L231.884 705.074C232.441 707.223 229.346 713.88 228.81 716.473C228.205 719.396 227.848 722.5 227.828 725.488C227.698 744.052 235.813 761.604 248.845 774.651C259.384 785.203 271.988 793.526 285.694 799.396C285.018 800.851 284.314 803.137 283.34 804.349C276.692 801.44 270.344 798.803 264.175 794.869C243.949 781.97 229.096 763.949 223.787 740.25L222.176 728.299C221.876 726.206 222.105 723.957 222.169 721.844C223.313 718.591 223.666 714.645 224.336 711.228C220.541 711.842 216.829 712.974 213 713.401C202.688 714.55 191.932 713.734 181.907 711.147C164.801 706.734 148.46 695.409 139.585 679.947C130.579 664.258 128.62 645.093 131.588 627.447C132.519 621.913 134.168 616.578 135.615 611.169C135.851 609.125 136.559 607.699 137.493 605.88L139.972 600.25C152.95 571.518 173.706 550.064 200.204 533.489C210.026 527.346 219.641 522.085 230.512 517.976C230.87 514.636 227.943 509.044 227.027 505.694C224.756 497.384 223.328 489.167 222.602 480.593C218.637 433.76 238.067 389.68 268.021 354.48C300.828 315.928 344.049 287.231 390.644 268.058C403.172 262.903 416.201 257.609 429.781 256.482L433.738 259.791C428.557 262.06 422.366 263.018 416.904 264.602C410.843 266.359 404.841 268.739 398.954 271.017C357.183 287.179 317.589 311.677 286.056 343.644C253.886 376.256 227.233 420.439 227.72 467.61C228.143 508.542 246.915 546.999 276.05 575.314C316.3 614.433 370.346 635.797 424.685 646.254C450.687 651.258 477.828 654.117 504.336 653.761C526.735 653.461 549.033 652.475 571.25 649.463C632.072 641.216 698.125 618.544 741.691 573.483C770.542 543.641 788.468 505.961 787.599 464.021C786.513 411.637 755.812 364.494 719.063 329.33C685.312 297.035 640.861 275.136 595.652 264.442C581.278 261.041 566.597 259.04 551.935 257.415C551.463 255.828 551.545 254.008 551.486 252.354Z"/>
</svg>
