<?xml version="1.0" encoding="utf-8" ?>
<svg xmlns="http://www.w3.org/2000/svg" xmlns:xlink="http://www.w3.org/1999/xlink" width="640" height="640">
	<path fill="#6D6875" transform="translate(0 -0.00195312)" d="M242.198 151.369C234.895 150.442 228.428 152.145 221.25 152.452L220.896 152.031C223.485 148.624 231.691 146.634 235.782 145.756C219.528 132.411 216.834 111.406 215.485 91.8213C214.596 78.9141 222.397 88.1227 225.817 92.7572C231.446 100.384 255.645 125.185 264.531 126.525L265.341 125.625C265.238 122.666 262.583 115.018 262.068 110.31C263.348 111.622 274.269 125.37 274.302 126.835L272.799 128.11C269.696 128.843 265.879 131.444 263.186 133.191L251.908 144.14C249.435 146.652 245.833 151.056 242.198 151.369Z"/>
	<path fill="#B5838D" transform="translate(0 -0.00195312)" d="M238.384 139.213L235.469 137.353C222.527 127.59 222.496 108.154 220.561 93.5853C223.12 97.1202 226.994 100.318 230.109 103.429C239.942 113.251 249.625 123.241 260.682 131.719C259.011 133.279 250.179 141.578 248.967 141.476L247.534 141.209C244.471 140.634 241.419 139.721 238.384 139.213Z"/>
	<path fill="#6D6875" transform="translate(0 -0.00195312)" d="M366.556 128.284L366.916 127.995C370.017 125.471 373.313 122.268 375.822 119.151L379.961 113.505C380.813 112.289 381.599 110.878 382.812 110.003L383.281 110.286C383.153 114.621 380.578 119.342 379.748 123.684C389.898 119.369 403.176 106.972 410.56 98.4613C413.68 94.866 421.19 80.386 425.261 87.8125C425.571 92.0473 424.771 96.5724 424.206 100.768C421.987 117.233 418.091 135.255 404.243 145.882C407.913 146.349 418.104 148.744 420.754 151.769L420.469 152.443C408.283 151.636 408.309 149.646 395.623 151.817C385.019 144.68 378.512 135.489 366.556 128.284Z"/>
	<path fill="#B5838D" transform="translate(0 -0.00195312)" d="M420.577 92.9956C420.703 97.4085 420.201 101.579 419.587 105.938C417.151 123.228 414.621 133.273 399.527 141.933C392.244 146.111 391.011 142.992 384.691 138.202L379.883 134.193C379.078 133.508 378.087 132.837 377.585 131.906C381.925 127.946 386.985 125.026 391.474 121.287C401.885 112.617 411.536 103.077 420.577 92.9956Z"/>
	<path fill="#6D6875" transform="translate(0 -0.00195312)" d="M448.48 225.696C482.788 251.139 493.606 322.901 493.902 361.55C493.946 367.303 494.653 373.017 489.347 376.816C487.714 377.984 487.535 378.138 486.608 379.946L484.067 385.276C474.427 406.806 460.862 412.653 443.532 395.3C442.735 394.502 442.003 393.151 441.109 392.548C439.686 399.71 437.795 407.12 435.379 414.014L426.771 437.389C422.717 449.959 420.401 463.394 419.377 476.562L418.421 500.958C418.406 503.848 417.797 513.558 418.991 515.476C422.998 521.916 450.684 525.164 458.903 529.757C474.618 538.54 471.022 556.801 451.572 560.151C441.762 561.84 429.398 561.684 418.984 562.271L400.833 562.393C396.176 562.395 390.723 562.93 386.192 561.939L385.349 561.757C363.691 557.185 368.384 530.512 368.366 513.819C368.339 488.323 368.861 463.35 375.114 438.489L375.207 438.127C377.24 438.477 381.457 436.156 383.278 435.156C397.119 427.555 399.725 413.976 403.777 400.781C406.365 392.353 412.588 396.381 411.375 407.602C410.6 414.77 409.296 423.474 406.028 429.948L405.83 430.332C409.866 427.665 414.052 425.377 417.489 421.91C436.906 402.319 433.116 365.159 436.952 361.368L437.254 361.388C444.878 362.024 448.493 373.987 452.961 379.27C452.794 372.297 451.648 365.546 451.041 358.626L449.507 337.567C448.196 325.454 445.945 313.308 443.55 301.365C442.348 295.371 435.724 270.08 437.809 266.406C445.27 263.231 447.84 273.23 450.444 277.991C453.086 282.822 456.479 287.738 458.67 292.753L458.795 293.045C458.794 272.264 460.142 251.552 451.281 232.268C450.482 230.528 448.762 227.997 448.526 226.15L448.48 225.696Z"/>
	<path fill="#E5989B" transform="translate(0 -0.00195312)" d="M467.439 311.599C472.835 327.554 471.008 329.411 471.455 345.287L472.911 364.645C473.159 368.805 474.146 382.357 471.191 385.374C466.948 388.394 463.536 393.397 457.602 393.302C454.135 393.247 455.836 386.479 456.061 384.531C457.034 384.414 457.821 383.925 458.674 383.476C458.527 380.652 457.629 377.85 457.392 374.928L453.117 320.731C458.672 318.438 462.85 315.624 467.439 311.599Z"/>
	<defs>
		<linearGradient id="gradient_0" gradientUnits="userSpaceOnUse" x1="488.37814" y1="312.22836" x2="433.46622" y2="333.02954">
			<stop offset="0" stop-color="#AD7C85"/>
			<stop offset="1" stop-color="#F4A8A6"/>
		</linearGradient>
	</defs>
	<path fill="url(#gradient_0)" transform="translate(0 -0.00195312)" d="M467.439 311.599C467.917 310.259 467.259 308.992 466.672 307.73L463.817 301.784C461.793 297.772 462.166 295.284 462.159 290.809L460.531 254.733C460.05 251.3 459.286 247.987 458.953 244.518C478.722 270.031 488.325 323.063 489.603 355.077C489.736 358.405 490.299 362.044 489.915 365.334C489.414 369.625 484.684 372.884 482.572 376.558C477.384 385.583 474.863 398.218 462.344 399.659L461.871 399.719C459.956 399.89 458.109 398.806 456.422 398.018C461.383 396.643 473.288 392.301 471.401 385.862L471.191 385.374C474.146 382.357 473.159 368.805 472.911 364.645L471.455 345.287C471.008 329.411 472.835 327.554 467.439 311.599Z"/>
	<defs>
		<linearGradient id="gradient_1" gradientUnits="userSpaceOnUse" x1="378.41428" y1="552.83118" x2="451.3118" y2="518.69342">
			<stop offset="0" stop-color="#C2838A"/>
			<stop offset="1" stop-color="#F19E9F"/>
		</linearGradient>
	</defs>
	<path fill="url(#gradient_1)" transform="translate(0 -0.00195312)" d="M419.043 521.537C426.249 524.767 434.025 527.161 441.59 529.394C446.213 530.758 451.781 531.698 455.973 534.105C466.337 540.056 465.387 552.242 453.01 553.955C444.577 555.122 436.193 555.137 427.709 555.388L400.797 556.09C396.141 556.108 389.767 556.857 385.324 555.503L384.844 555.35C370.36 551.12 373.707 530.588 373.727 518.335C375.359 518.714 377.274 518.595 378.953 518.667L405.456 519.428C408.784 519.893 412.282 519.732 415.54 520.432L419.043 521.537Z"/>
	<path fill="#6D6875" transform="translate(0 -0.00195312)" d="M388.355 527.118C391.88 527.206 397.942 526.311 400.921 528.191C401.433 529.254 398.776 536.624 398.382 538.165L397.274 540.745C385.794 541.612 388.362 536.292 388.355 527.118Z"/>
	<path fill="#6D6875" transform="translate(0 -0.00195312)" d="M190.888 225.711L191.798 226.094C192.056 228.382 187.721 237.071 186.944 240.015C184.302 250.02 183.913 261.267 183.819 271.606L183.927 289.95C184.808 287.168 187.26 284.122 188.759 281.562C190.836 278.015 199.223 261.697 204.917 265.396C206.272 267.903 201.409 284.218 200.425 287.851C196.157 303.604 192.991 319.826 191.476 336.091C190.497 346.604 190.427 357.289 188.83 367.733C188.278 371.342 188.029 375.585 188.477 379.219L188.794 381.542C190.705 374.025 197.55 364.102 203.768 359.655C205.72 365.249 205.827 371.68 206.38 377.573C208.607 401.317 212.251 418.468 234.202 432.778L234.009 432.358C232.327 428.649 222.814 393.048 233.461 396.719C239.876 402.484 237.929 421.78 258.38 436.78C259.801 437.822 262.176 437.727 263.878 438.109C266.953 446.365 270.226 472.212 270.841 480.68C271.61 491.245 271.257 502.071 271.263 512.667L271.022 534.219C270.049 560.104 262.061 562.25 237.978 562.382L209.561 561.677C198.188 561.311 168.877 562.396 171.756 543.125C174.887 522.158 206.658 526.821 222.011 515.473C222.912 511.537 222.6 507.239 222.596 503.216C222.577 484.505 221.212 462.469 215.447 444.619C211.43 432.18 204.844 420.371 201.459 407.767C200.382 403.756 200.047 399.576 199.393 395.483C194.452 400.406 188.502 405.727 181.139 405.76C164.435 405.834 160.821 391.061 152.876 380.364C151.633 378.69 149.971 377.665 148.561 376.186C140.965 368.219 150.189 319.745 152.193 309.368C157.499 281.897 169.529 245.505 190.888 225.711Z"/>
	<path fill="#E5989B" transform="translate(0 -0.00195312)" d="M163.656 386.766C164.968 386.499 166.001 386.156 167.27 386.762L167.498 386.86C169.136 388.999 179.471 394.349 182.905 395.682L187.869 395.66C186.271 396.823 184.875 397.903 182.969 398.497L182.363 398.694C180.706 399.164 178.906 398.606 177.369 398.015L172.5 396.002C168.705 394.022 164.999 390.952 163.656 386.766Z"/>
	<path fill="#B5838D" transform="translate(0 -0.00195312)" d="M199.693 273.594L189.459 317.687C185.882 317.248 183.054 315.973 179.83 314.462C173.056 310.356 176.087 308.902 180.369 302.501L187.743 291.306C191.517 285.166 193.791 278.091 199.693 273.594Z"/>
	<path fill="#E5989B" transform="translate(0 -0.00195312)" d="M160.004 379.702L159.734 371.009C159.955 367.263 160.633 363.394 161.121 359.666L163.26 342.279C164.006 336.095 163.338 312.1 171.907 312.722L172.131 312.991C175.819 317.314 183.216 320.146 188.7 320.933L185.612 355.938C184.832 365.325 181.871 378.231 184.429 387.477L186.562 386.751C190.039 387.94 188.15 392.93 183.906 390.466L183.193 390.114C182.777 389.91 182.742 389.816 182.274 389.857C179.954 389.801 174.78 385.722 171.559 385.692L168.356 385.505L167.498 386.86L167.27 386.762C166.001 386.156 164.968 386.499 163.656 386.766L163.631 385.67L160.004 379.702Z"/>
	<path fill="#B5838D" transform="translate(0 -0.00195312)" d="M163.631 385.67C165.537 384.334 166.238 384.829 168.356 385.505L167.498 386.86L167.27 386.762C166.001 386.156 164.968 386.499 163.656 386.766L163.631 385.67Z"/>
	<path fill="#B5838D" transform="translate(0 -0.00195312)" d="M160.004 379.702C156.794 376.11 153.208 371.621 151.007 367.333L150.781 366.884C148.19 361.892 149.948 354.834 150.397 349.454C153.295 314.754 160.915 271.637 182.728 243.233C182.378 247.013 182.676 250.822 182.422 254.61L180.569 288.802C180.823 301.094 171.343 304.407 171.876 312.38L171.907 312.722C163.338 312.1 164.006 336.095 163.26 342.279L161.121 359.666C160.633 363.394 159.955 367.263 159.734 371.009L160.004 379.702Z"/>
	<defs>
		<linearGradient id="gradient_2" gradientUnits="userSpaceOnUse" x1="250.47408" y1="561.71674" x2="203.11885" y2="514.37451">
			<stop offset="0" stop-color="#BF7F87"/>
			<stop offset="1" stop-color="#EA9FA1"/>
		</linearGradient>
	</defs>
	<path fill="url(#gradient_2)" transform="translate(0 -0.00195312)" d="M262.479 518.79L267.097 518.414C267.153 525.06 267.509 532.299 266.405 538.859C265.108 546.576 264.812 552.899 255.296 554.518L254.936 554.576C250.915 555.285 246.717 555.206 242.64 555.386L218.48 555.979L209.219 555.337C200.795 555.126 191.999 556.087 183.894 553.507C172.177 547.649 176.075 537.166 186.642 532.609C194.497 529.221 203.48 527.989 211.603 525.195L220.674 521.666C229.336 517.89 228.197 518.967 238.027 518.943L262.479 518.79Z"/>
	<path fill="#6D6875" transform="translate(0 -0.00195312)" d="M249.741 527.39C251.73 527.189 250.808 537.225 250.458 539.075C246.951 540.091 243.401 540.125 239.844 539.356L239.356 539.103C238.788 538.365 238.775 537.455 238.651 536.562L237.828 527.742C241.57 527.057 245.923 527.402 249.741 527.39Z"/>
	<defs>
		<linearGradient id="gradient_3" gradientUnits="userSpaceOnUse" x1="313.70953" y1="119.21563" x2="331.10324" y2="467.9725">
			<stop offset="0" stop-color="#E48C92"/>
			<stop offset="1" stop-color="#FFDFBB"/>
		</linearGradient>
	</defs>
	<path fill="url(#gradient_3)" transform="translate(0 -0.00195312)" d="M280.359 126.43C282.209 124.824 283.691 122.813 285.419 121.076C293.714 112.737 304.834 111.123 315.921 111.166C320.872 111.186 338.668 112.025 341.597 116.25L341.307 116.941C339.768 117.832 338.134 118.489 336.498 119.179L336.731 119.363C337.657 120.07 338.273 120.21 339.375 120.464L340.018 120.64L339.712 121.584C339.105 121.736 339.33 121.635 338.861 121.997L339.697 122.05L347.567 119.449C356.643 116.075 356.957 113.529 354.813 122.282C357.169 124.241 363.046 128.28 366.346 128.317L366.556 128.284C378.512 135.489 385.019 144.68 395.623 151.817L413.85 167.208C415.773 169.004 417.842 170.685 419.514 172.724C415.157 172.09 411.666 170.698 407.605 169.07C408.271 171.956 408.823 174.989 409.78 177.79C411.766 183.601 411.981 181.296 410.709 187.663L411.138 187.678C415.391 187.858 419.542 189.209 423.615 190.353C450.205 197.821 462.656 209.18 473.974 235.217L466.579 229.594C459.566 223.874 452.296 217.709 442.806 217.413C443.945 221.221 445.789 222.874 448.48 225.696L448.526 226.15C448.762 227.997 450.482 230.528 451.281 232.268C460.142 251.552 458.794 272.264 458.795 293.045L458.67 292.753C456.479 287.738 453.086 282.822 450.444 277.991C447.84 273.23 445.27 263.231 437.809 266.406C435.724 270.08 442.348 295.371 443.55 301.365C445.945 313.308 448.196 325.454 449.507 337.567L451.041 358.626C451.648 365.546 452.794 372.297 452.961 379.27C448.493 373.987 444.878 362.024 437.254 361.388L436.952 361.368C433.116 365.159 436.906 402.319 417.489 421.91C414.052 425.377 409.866 427.665 405.83 430.332L406.028 429.948C409.296 423.474 410.6 414.77 411.375 407.602C412.588 396.381 406.365 392.353 403.777 400.781C399.725 413.976 397.119 427.555 383.278 435.156C381.457 436.156 377.24 438.477 375.207 438.127C369.589 435.261 368.084 445.106 366.933 448.633L363.084 460.207C362.14 462.949 361.216 465.826 359.678 468.295L355.208 461.98C353.507 459.752 351.871 457.927 351.01 455.189L350.858 454.688C349.862 451.457 349.794 447.789 349.462 444.423L347.816 423.838L320.957 458.705L289.544 421.752C288.088 437.418 291.338 452.534 281.634 466.831C278.186 460.325 272.488 438.582 266.562 437.218C265.809 437.59 265.222 437.836 264.398 438.007L263.878 438.109C262.176 437.727 259.801 437.822 258.38 436.78C237.929 421.78 239.876 402.484 233.461 396.719C222.814 393.048 232.327 428.649 234.009 432.358L234.202 432.778C212.251 418.468 208.607 401.317 206.38 377.573C205.827 371.68 205.72 365.249 203.768 359.655C197.55 364.102 190.705 374.025 188.794 381.542L188.477 379.219C188.029 375.585 188.278 371.342 188.83 367.733C190.427 357.289 190.497 346.604 191.476 336.091C192.991 319.826 196.157 303.604 200.425 287.851C201.409 284.218 206.272 267.903 204.917 265.396C199.223 261.697 190.836 278.015 188.759 281.562C187.26 284.122 184.808 287.168 183.927 289.95L183.819 271.606C183.913 261.267 184.302 250.02 186.944 240.015C187.721 237.071 192.056 228.382 191.798 226.094L190.888 225.711L191.406 224.86C191.83 224.017 194.918 216.27 194.667 215.479C180.687 220.486 176.567 230.092 165.719 235.037C169.947 221.84 184.314 204.802 196.062 197.459C205.49 191.567 216.836 189.113 227.861 189.394C228.954 181.628 230.025 173.848 232.318 166.327C227.946 168.819 224.3 171.827 220.379 174.952C225.046 163.85 235.045 159.531 242.995 151.642L242.198 151.369C245.833 151.056 249.435 146.652 251.908 144.14L263.186 133.191C265.879 131.444 269.696 128.843 272.799 128.11C275.936 128.581 277.688 127.896 280.359 126.43Z"/>
	<path fill="#E5989B" transform="translate(0 -0.00195312)" d="M343.47 148.518C346.349 146.784 351.38 148.888 353.426 151.109L353.541 151.222L348.076 150.873L348.114 150.495C346.65 149.698 344.991 149.239 343.47 148.518Z"/>
	<path fill="#E5989B" transform="translate(0 -0.00195312)" d="M416.137 193.281L417.034 193.061C420.141 195.002 422.452 197.564 424.973 200.166L431.094 206.473C429.362 205.616 423.749 200.092 422.656 200.03C421.937 199.989 421.596 200.464 420.781 200.24L420.697 199.651C420.249 196.714 418.455 194.992 416.137 193.281Z"/>
	<path fill="#FFB4A2" transform="translate(0 -0.00195312)" d="M280.359 126.43C282.209 124.824 283.691 122.813 285.419 121.076C293.714 112.737 304.834 111.123 315.921 111.166C320.872 111.186 338.668 112.025 341.597 116.25L341.307 116.941C339.768 117.832 338.134 118.489 336.498 119.179L336.731 119.363C337.657 120.07 338.273 120.21 339.375 120.464L340.018 120.64L339.712 121.584C339.105 121.736 339.33 121.635 338.861 121.997L339.697 122.05L339.477 122.216C337.631 123.586 335.386 124.434 333.438 125.701L333.059 125.944C320.328 134.346 335.903 144.381 343.47 148.518C344.991 149.239 346.65 149.698 348.114 150.495L348.076 150.873C336.013 152.124 322.737 159.012 320.591 172.058L320.266 173.614L318.805 175.728L318.779 175.299C317.58 159.014 302.546 149.017 287.026 150.142C286.68 149.69 286.524 149.458 286.337 148.906C296.949 142.565 304.326 140.097 314.509 130.84L313.141 126.926C312.818 126.244 311.598 125.943 310.938 125.67C309.44 125.053 309.163 123.889 308.034 123.118C301.773 118.836 287.212 125.531 280.359 126.43Z"/>
	<path fill="#6D6875" transform="translate(0 -0.00195312)" d="M348.076 150.873L353.541 151.222C372.005 157.236 380.058 182.616 364.01 190.1C361.035 191.487 353.838 191.227 350.478 190.069L349.98 189.851C346.996 190.796 343.071 190.627 339.943 190.703L322.777 190.964L321.532 191.28C320.443 191.637 318.911 191.441 317.783 191.248C318.938 189.721 318.314 178.107 318.273 175.728L320.266 173.614L320.591 172.058C322.737 159.012 336.013 152.124 348.076 150.873Z"/>
	<path fill="#FEFEFE" transform="translate(0 -0.00195312)" d="M323.141 175.224C325.479 164.5 331.446 158.766 341.875 156.222L342.444 156.08C366.856 150.246 376.122 185.016 360.498 188.315C358.259 188.788 353.454 188.987 351.279 188.044L350.784 187.686C354.39 186.1 357.817 184.504 359.469 180.652C362.297 174.057 358.426 164.772 351.734 162.18C333.895 155.269 317.511 179.066 344.607 187.071L349.98 189.851C346.996 190.796 343.071 190.627 339.943 190.703L322.777 190.964L321.532 191.28C320.443 191.637 318.911 191.441 317.783 191.248C318.938 189.721 318.314 178.107 318.273 175.728L320.266 173.614L320.591 172.058L320.986 175.531C321.171 176.801 320.61 177.349 322.5 177.344C322.419 176.183 322.468 176.186 323.141 175.224Z"/>
	<path fill="#B5838D" transform="translate(0 -0.00195312)" d="M320.266 173.614L320.591 172.058L320.986 175.531C321.171 176.801 320.61 177.349 322.5 177.344C322.419 176.183 322.468 176.186 323.141 175.224L322.499 191.16L321.532 191.28C320.443 191.637 318.911 191.441 317.783 191.248C318.938 189.721 318.314 178.107 318.273 175.728L320.266 173.614Z"/>
	<defs>
		<linearGradient id="gradient_4" gradientUnits="userSpaceOnUse" x1="322.09302" y1="184.86838" x2="316.28751" y2="182.12727">
			<stop offset="0" stop-color="#BF7A7A"/>
			<stop offset="1" stop-color="#DF9A8B"/>
		</linearGradient>
	</defs>
	<path fill="url(#gradient_4)" transform="translate(0 -0.00195312)" d="M318.273 175.728L320.266 173.614L320.29 190.938C320.657 191.072 320.997 191.185 321.377 191.28C320.443 191.637 318.911 191.441 317.783 191.248C318.938 189.721 318.314 178.107 318.273 175.728Z"/>
	<path fill="#FEFEFE" transform="translate(0 -0.00195312)" d="M287.026 150.142C302.546 149.017 317.58 159.014 318.779 175.299L318.805 175.728C318.314 178.107 318.938 189.721 317.853 191.248L316.549 191.193C315.719 190.182 316.049 184.665 315.972 183.033L315.966 191.133L301.75 190.874C298.466 190.842 294.778 191.1 291.613 190.169C279.915 191.347 270.778 193.931 267.395 179.869C264.004 165.767 273.452 153.266 287.026 150.142Z"/>
	<path fill="#6D6875" transform="translate(0 -0.00195312)" d="M287.026 150.142C302.546 149.017 317.58 159.014 318.779 175.299L318.805 175.728C318.314 178.107 318.938 189.721 317.853 191.248L316.549 191.193C315.719 190.182 316.049 184.665 315.972 183.033C315.76 166.454 308.776 154.699 290.711 155.104C274.039 155.477 263.337 176.699 274.896 186.584C278.784 189.909 286.692 189.511 291.613 190.095C279.915 191.347 270.778 193.931 267.395 179.869C264.004 165.767 273.452 153.266 287.026 150.142Z"/>
	<path fill="#6D6875" transform="translate(0 -0.00195312)" d="M290.213 161.38C309.659 160.016 316.777 181.179 295.382 188.502C291.351 189.739 285.557 186.726 282.467 184.298C273.002 176.858 276.044 162.74 290.213 161.38Z"/>
	<path fill="#6D6875" transform="translate(0 -0.00195312)" d="M322.252 247.168C317.078 247.923 317.539 242.728 317.112 238.874L303.222 236.048C289.472 233.901 288.786 233.893 283.674 222.812L279.714 215.21C278.875 213.593 278.37 211.137 277.31 209.801L363.234 208.666C355.526 232.577 349.323 236.188 323.281 239.096C322.533 239.776 322.973 240.282 323.186 241.222L325.964 245.151C324.758 245.977 323.597 246.598 322.252 247.168Z"/>
	<path fill="#FEFEFE" transform="translate(0 -0.00195312)" d="M300.149 214.66L318.133 214.706C318.138 220.458 318.53 226.506 317.835 232.211L310.891 229.377C307.067 227.923 303.134 226.545 299.099 225.816C289.967 224.166 290.409 225.898 290.881 215.409L300.149 214.66Z"/>
	<path fill="#FEFEFE" transform="translate(0 -0.00195312)" d="M322.458 214.366L335.183 214.595C339.861 214.594 344.738 214.294 349.321 215.351C349.794 219.469 350.655 222.72 348.619 226.719L348.125 226.823C347.292 225.883 346.331 224.681 345.002 224.506L344.531 224.46C339.249 225.352 335.068 228.165 330.216 230.193C321.154 233.98 322.535 232.62 322.503 225.88L322.458 214.366Z"/>
</svg>
