<?xml version="1.0" encoding="utf-8" ?>
<svg xmlns="http://www.w3.org/2000/svg" xmlns:xlink="http://www.w3.org/1999/xlink" width="640" height="640">
	<defs>
		<linearGradient id="gradient_0" gradientUnits="userSpaceOnUse" x1="411.03799" y1="164.39537" x2="491.2074" y2="117.66975">
			<stop offset="0" stop-color="#FF79A0"/>
			<stop offset="1" stop-color="#FFC2D8"/>
		</linearGradient>
	</defs>
	<path fill="url(#gradient_0)" d="M395.641 127.902C401.134 123.587 406.082 118.761 411.975 114.923C426.955 105.166 444.478 97.9533 461.678 93.263C482.07 87.702 481.768 97.792 479.521 114.422L476.584 134.69C474.798 143.799 472.195 152.787 469.321 161.608L464.714 174.328C462.73 179.204 460.377 184.375 456.078 187.656L454.458 188.744C454.325 183.425 459.245 183.549 454.43 174.125C446.998 159.575 436.791 154.621 424.263 146.351C416.356 141.131 409.236 135.34 399.375 134.869C392.138 134.523 390.217 134.069 395.641 127.902Z"/>
	<defs>
		<linearGradient id="gradient_1" gradientUnits="userSpaceOnUse" x1="338.08005" y1="535.15613" x2="440.6171" y2="468.3089">
			<stop offset="0" stop-color="#9887E9"/>
			<stop offset="1" stop-color="#AFA4FC"/>
		</linearGradient>
	</defs>
	<path fill="url(#gradient_1)" d="M319.79 460.931C320.468 460.163 321.619 459.95 322.571 459.734C338.39 456.155 345.18 458.062 360.312 446.303C364.177 443.299 367.324 439.219 371.219 436.388L372.921 435.156C376.585 434.986 385.798 442.132 390.4 443.716L393.438 444.841C398.799 446.983 409.776 449.001 415.111 447.164C416.471 446.695 425.957 444.848 426.458 444.937L426.368 445.269C425.288 451.504 425.623 458.055 424.897 464.375C422.549 484.84 417.278 505.441 408.156 523.964L408.608 523.893C426.487 521.255 438.502 553.068 433.075 559.81C425.117 569.695 387.187 565.121 376.518 563.553C359.413 561.037 341.892 554.243 340.907 533.69C340.632 527.973 341.11 522.242 340.42 516.543C338.679 502.148 329.82 472.602 319.79 460.931Z"/>
	<path fill="#AF99FF" d="M469.755 252.945C479.883 260.721 485.929 270.793 493.337 280.985L499.374 288.958C500.757 290.849 501.653 291.839 501.451 294.219L500.781 294.902C494.472 294.622 488.669 291.543 482.773 289.532L492.655 304.996C495.763 309.823 500.89 315.824 502.134 321.562L501.875 322.213C496.856 323.356 487.623 318.393 482.241 317.47C482.987 321.145 484.787 323.771 486.487 327.043L493.086 340.482C495.619 346 497.851 350.946 497.697 357.13L488.934 356.784C497.917 378.097 500.409 399.869 498.785 422.659C498.489 426.82 499.525 436.62 493.869 437.377C489.068 432.484 489.326 424.632 485.168 419.71C483.863 423.768 483.562 428.068 482.461 432.183C478.771 445.979 470.998 464.413 457.877 470.934C437.179 481.22 436.572 451.022 434.871 439.869C432.306 441.306 429.152 444.062 426.458 444.937C425.957 444.848 416.471 446.695 415.111 447.164C409.776 449.001 398.799 446.983 393.438 444.841L390.4 443.716C385.798 442.132 376.585 434.986 372.921 435.156L371.219 436.388C367.324 439.219 364.177 443.299 360.312 446.303C345.18 458.062 338.39 456.155 322.571 459.734C321.619 459.95 320.468 460.163 319.79 460.931C309.315 479.438 299.078 500.66 298.977 522.409C298.931 532.245 299.578 540.351 293.396 548.676C286.163 558.415 276.315 561.825 264.758 563.578C253.361 565.306 218.296 568.479 209.327 561.507C205.63 558.633 206.115 554.832 206.825 550.781C209.294 536.688 216.821 525.542 231.877 524.375L226.094 510.68C221.755 498.876 218.416 486.192 215.812 473.901L213.493 460.734C212.211 452.154 212.382 450.941 206.522 444.311C204.907 454.65 201.214 474.909 186.583 472.62L186.094 472.536C183.222 472.077 180.653 470.62 178.349 468.89C162.755 457.187 159.276 437.43 156.921 419.412C151.625 427.343 144.411 453.547 141.194 424.844C139.27 407.68 141.466 390.07 145.894 373.438L150.877 357.531C148.721 357.887 142.726 358.914 141.746 356.094C138.794 347.594 163.12 318.317 156.719 315.791L150.326 319.73C121.939 335.591 153.407 297.843 155.889 289.973C153.625 290.576 138.781 297.895 138.96 292.344C139.122 287.349 162.08 260.263 166.586 256.233L168.594 256.329C177.149 263.196 180.212 274.424 185.221 283.827L193.045 296.929C195.667 301.24 198.058 305.667 200.916 309.834C231.487 354.412 273.231 372.292 325.41 372.279C354.747 372.271 377.85 367.886 401.237 350.127C428.091 329.736 438.308 313.133 454.069 285.512C460.72 273.855 465.852 265.822 469.755 252.945Z"/>
	<defs>
		<linearGradient id="gradient_2" gradientUnits="userSpaceOnUse" x1="175.24742" y1="272.62427" x2="441.75272" y2="148.22649">
			<stop offset="0" stop-color="#FF92B1"/>
			<stop offset="1" stop-color="#FFD0F0"/>
		</linearGradient>
	</defs>
	<path fill="url(#gradient_2)" d="M166.586 256.233C159.619 238.663 177.32 208.712 187.767 195.722L183.856 193.728C177.468 189.963 175.592 181.922 173.407 175.385L168.726 159.813C165.939 149.299 157.249 101.986 162.031 94.2806C162.856 92.9512 164.373 91.9362 165.89 91.5985L166.25 91.5253C170.7 90.5449 176.393 92.9883 180.661 94.1439C202.656 100.099 226.328 110.614 242.425 126.986C256.211 121.847 272.261 121.004 282.727 132.739L282.949 132.996C280.965 127.947 280.249 122.33 276.843 117.938L269.776 109.944C283.804 111.044 293.66 117.211 303.831 126.117C305.176 124.123 306.178 110.155 306.256 107.656L306.329 95.5309C306.345 89.8935 305.599 86.5523 312.093 91.9133L312.491 92.2456C322.707 100.677 326.546 116.916 329.488 129.132C339.092 120.858 348.985 113.48 361.761 111.17C364.153 110.737 370.42 109.579 372.438 110.983L372.43 111.811C370.446 113.441 367.126 114.133 364.779 115.245C355.952 119.424 351.099 123.687 347.765 133.102C351.778 131.554 355.456 129.386 359.462 127.861C371.557 123.259 383.447 124.856 395.641 127.902C390.217 134.069 392.138 134.523 399.375 134.869C409.236 135.34 416.356 141.131 424.263 146.351C436.791 154.621 446.998 159.575 454.43 174.125C459.245 183.549 454.325 183.425 454.458 188.744C451.4 191.342 457.929 205.886 459.093 209.07C462.617 218.709 471.108 242.507 469.755 252.945C465.852 265.822 460.72 273.855 454.069 285.512C438.308 313.133 428.091 329.736 401.237 350.127C377.85 367.886 354.747 372.271 325.41 372.279C273.231 372.292 231.487 354.412 200.916 309.834C198.058 305.667 195.667 301.24 193.045 296.929L185.221 283.827C180.212 274.424 177.149 263.196 168.594 256.329L166.586 256.233ZM348.142 235.269C348.178 237.891 347.922 240.902 348.572 243.438L352.659 253.125L353.909 251.719L353.687 249.927C353.685 248.877 353.257 248.3 353.596 247.16C354.431 250.715 355.454 253.528 357.107 256.784C358.445 258.553 359.782 260.069 361.565 261.404C361.727 261.525 363.181 262.547 363.187 262.593C374.53 268.252 386.625 266.525 394.349 256.003L394.626 258.17L395.644 256.912C402.394 248.199 405.839 236.1 404.428 225.164C402.133 207.367 385.092 194.301 367.396 196.762C346.244 199.705 342.639 221.821 345.39 239.688C345.867 242.784 345.692 239.396 345.776 238.664L347.5 238.906C347.4 239.306 347.299 239.603 347.402 240.017L347.656 240.83C347.694 238.951 347.681 237.107 348.142 235.269Z"/>
	<path fill="#FFC2E2" d="M271.794 265.682L278.89 261.985L278.786 262.365C278.603 263.134 278.73 262.491 278.796 263.35L278.506 264.458C277.706 265.157 277.057 265.881 276.402 266.714L275.898 266.842C275.335 267.007 275.198 267.069 274.844 267.5C276.112 267.486 278.974 265.927 279.297 264.533L279.609 264.377C278.541 269.467 267.044 270.981 262.645 269.707C263.83 269.549 265.054 269.571 266.25 269.534C267.899 268.435 271.574 266.552 273.575 266.155L273.595 265.703C272.92 265.805 272.47 265.749 271.794 265.682Z"/>
	<path fill="#FFC2E2" d="M363.187 262.593C374.53 268.252 386.625 266.525 394.349 256.003L394.626 258.17C383.048 270.95 382.239 274.49 364.112 267.128C360.315 265.747 357.708 263.234 354.878 260.469L355.216 260.408C356.19 261.022 356.987 261.861 357.812 262.656L358.261 262.345C357.767 261.422 357.569 261.039 357.814 260.002L358.438 259.219C357.713 258.595 357.177 257.902 356.663 257.1L357.107 256.784C358.445 258.553 359.782 260.069 361.565 261.404C361.727 261.525 363.181 262.547 363.187 262.593Z"/>
	<path fill="#FEFEFE" d="M262.645 269.707L261.214 269.638C243.662 267.684 230.356 244.146 232.67 227.873L232.751 227.344C235.448 208.963 256.319 193.476 274.648 196.13L275.156 196.209C297.609 199.549 303.318 233.451 291.409 249.531L290.603 247.838C296.264 233.289 290.92 212.395 275.355 206.459C262.471 201.544 245.544 217.433 241.221 228.93C235.681 242.858 241.372 259.723 255.781 265.278L258.689 266.129C262.982 267.235 267.535 266.528 271.794 265.682C272.47 265.749 272.92 265.805 273.595 265.703L273.575 266.155C271.574 266.552 267.899 268.435 266.25 269.534C265.054 269.571 263.83 269.549 262.645 269.707Z"/>
	<path fill="#731C24" d="M307.326 269.155L324.674 269.165C330.155 269.187 335.862 268.874 341.17 270.473C337.496 277.897 323.836 289.772 322.694 293.244C322.371 294.227 322.755 294.822 322.788 295.781C323.093 304.861 321.243 308.036 327.64 315.312C339.861 309.996 342.817 305.907 352.344 299.434C363.434 302.389 331.654 317.752 330.324 318.391C333.952 324.035 334.408 324.173 339.506 327.344C335.876 333.36 327.032 321.064 325.284 318.646C324.173 317.166 321.185 315.037 320.678 313.545L320.156 313.035C319.064 317.049 308.597 327.117 305.349 328.971C303.709 329.907 300.21 330.418 300.138 327.656C304.432 324.897 307.992 321.564 311.704 318.094L309.37 317.186C304.274 315.175 289.871 308.556 287.98 303.215C285.331 295.733 293.448 303.488 294.727 304.461C300.597 308.928 306.206 312.544 313.349 314.511C317.999 307.991 316.772 301.448 318.024 293.981C312.16 290.087 306.82 284.29 302.702 278.637C295.191 268.328 296.624 269.378 307.326 269.155Z"/>
	<path fill="#FF99B6" d="M241.221 228.93C245.544 217.433 262.471 201.544 275.355 206.459C290.92 212.395 296.264 233.289 290.603 247.838L289.741 248.749C288.641 250.493 287.503 252.978 286.086 254.437L286.518 252.344C288.044 249.024 287.304 240.959 286.79 237.042L286.271 236.404C282.338 237.678 283.44 240.028 280.428 241.564L278.534 242.669C273.317 245.212 268.072 238.79 266.308 234.737C258.89 228.209 262.324 232.27 258.284 230.156L258.906 229.062C258.91 228.374 258.853 228.523 259.064 227.891L259.285 226.433C258.233 227.144 257.42 227.951 256.54 228.863L255.868 228.831C255.398 229.427 254.94 229.955 254.615 230.646C252.424 230.192 247.404 230.549 245.861 232.111C245.595 232.955 245.367 233.794 244.928 234.568C243.956 231.58 246.28 227.768 241.221 228.93Z"/>
	<path fill="#AE4A51" d="M284.11 227.496C285.651 228.42 286.736 229.975 287.2 231.719L288.003 237.616C288.55 240.309 287.851 254.795 288.984 248.359L289.219 247.5C289.648 247.935 289.608 248.167 289.741 248.749C288.641 250.493 287.503 252.978 286.086 254.437L286.518 252.344C288.044 249.024 287.304 240.959 286.79 237.042L286.271 236.404C282.338 237.678 283.44 240.028 280.428 241.564C282.646 238.124 282.622 235.846 282.505 231.846L282.799 230.156C282.929 228.925 283.361 228.445 284.11 227.496Z"/>
	<path fill="#FEFEFE" d="M255.868 228.831C257.618 223.895 267.48 223.894 271.46 224.075C273.13 224.116 274.643 224.193 276.278 224.584L276.664 224.671C278.027 225.003 280.998 227.453 281.87 227.031L282.031 226.371C282.865 226.427 283.324 227.146 284.11 227.496C283.361 228.445 282.929 228.925 282.799 230.156L282.505 231.846C282.622 235.846 282.646 238.124 280.428 241.564L278.534 242.669C273.317 245.212 268.072 238.79 266.308 234.737C258.89 228.209 262.324 232.27 258.284 230.156L258.906 229.062C258.91 228.374 258.853 228.523 259.064 227.891L259.285 226.433C258.233 227.144 257.42 227.951 256.54 228.863L255.868 228.831Z"/>
	<path fill="#CB7796" d="M271.46 224.075C273.13 224.116 274.643 224.193 276.278 224.584L276.664 224.671C278.027 225.003 280.998 227.453 281.87 227.031L282.031 226.371C282.865 226.427 283.324 227.146 284.11 227.496C283.361 228.445 282.929 228.925 282.799 230.156L282.505 231.846L282.215 231.054C281.347 228.87 278.968 228.347 276.954 227.453L275.899 228.438C275.923 232.275 272.757 231.503 269.015 231.063L269.254 230.597C269.711 229.818 275.675 227.477 276.857 227.215C276.343 225.302 273.158 225.046 271.46 224.075Z"/>
	<defs>
		<linearGradient id="gradient_3" gradientUnits="userSpaceOnUse" x1="259.93106" y1="230.80624" x2="274.08142" y2="223.7731">
			<stop offset="0" stop-color="#7F2A31"/>
			<stop offset="1" stop-color="#AA5C6F"/>
		</linearGradient>
	</defs>
	<path fill="url(#gradient_3)" d="M255.868 228.831C257.618 223.895 267.48 223.894 271.46 224.075C273.158 225.046 276.343 225.302 276.857 227.215C275.675 227.477 269.711 229.818 269.254 230.597L269.015 231.063C268.14 232.038 266.5 233.431 266.308 234.737C258.89 228.209 262.324 232.27 258.284 230.156L258.906 229.062C258.91 228.374 258.853 228.523 259.064 227.891L259.285 226.433C258.233 227.144 257.42 227.951 256.54 228.863L255.868 228.831Z"/>
	<path fill="#731C24" d="M255.868 228.831L256.54 228.863C257.42 227.951 258.233 227.144 259.285 226.433L259.064 227.891C258.853 228.523 258.91 228.374 258.906 229.062L258.284 230.156C262.324 232.27 258.89 228.209 266.308 234.737C268.072 238.79 273.317 245.212 278.534 242.669L280.428 241.564C283.44 240.028 282.338 237.678 286.271 236.404L286.79 237.042C287.304 240.959 288.044 249.024 286.518 252.344L286.086 254.437C284.116 257.499 281.653 259.676 278.89 261.985L271.794 265.682C267.535 266.528 262.982 267.235 258.689 266.129L255.781 265.278C241.372 259.723 235.681 242.858 241.221 228.93C246.28 227.768 243.956 231.58 244.928 234.568C245.367 233.794 245.595 232.955 245.861 232.111C247.404 230.549 252.424 230.192 254.615 230.646C254.94 229.955 255.398 229.427 255.868 228.831Z"/>
	<path fill="#FFC2E2" d="M244.928 234.568C245.367 233.794 245.595 232.955 245.861 232.111C247.404 230.549 252.424 230.192 254.615 230.646C252.373 235.424 244.034 241.818 244.777 235.312L244.928 234.568Z"/>
	<path fill="#FEFEFE" d="M348.142 235.269C347.681 237.107 347.694 238.951 347.656 240.83L347.402 240.017C347.299 239.603 347.4 239.306 347.5 238.906L345.776 238.664C345.692 239.396 345.867 242.784 345.39 239.688C342.639 221.821 346.244 199.705 367.396 196.762C385.092 194.301 402.133 207.367 404.428 225.164C405.839 236.1 402.394 248.199 395.644 256.912L394.626 258.17L394.349 256.003C386.625 266.525 374.53 268.252 363.187 262.593C363.181 262.547 361.727 261.525 361.565 261.404C359.782 260.069 358.445 258.553 357.107 256.784C355.454 253.528 354.431 250.715 353.596 247.16C353.257 248.3 353.685 248.877 353.687 249.927L353.909 251.719L352.659 253.125L348.572 243.438C347.922 240.902 348.178 237.891 348.142 235.269ZM384.713 222.332L374.062 223.313C372.644 223.511 370.963 223.544 369.643 224.115C359.53 226.07 353.385 233.467 353.438 243.867C353.442 244.664 353.787 246.505 353.596 247.16C354.431 250.715 355.454 253.528 357.107 256.784C358.445 258.553 359.782 260.069 361.565 261.404C361.727 261.525 363.181 262.547 363.187 262.593C374.53 268.252 386.625 266.525 394.349 256.003C399.81 247.372 401.569 236.427 397.055 226.981C395.781 226.481 394.795 225.705 394.075 224.525L393.518 223.985C391.325 221.978 387.518 222.19 384.713 222.332Z"/>
	<path fill="#FF99B6" d="M348.142 235.269C348.163 231.349 350.041 226.209 351.625 222.595C362.314 198.214 379.35 201.634 393.705 221.532C394.973 223.288 396.32 224.918 397.055 226.981C395.781 226.481 394.795 225.705 394.075 224.525L393.518 223.985C391.325 221.978 387.518 222.19 384.713 222.332L374.062 223.313C372.644 223.511 370.963 223.544 369.643 224.115C359.53 226.07 353.385 233.467 353.438 243.867C353.442 244.664 353.787 246.505 353.596 247.16C353.257 248.3 353.685 248.877 353.687 249.927L353.909 251.719L352.659 253.125L348.572 243.438C347.922 240.902 348.178 237.891 348.142 235.269Z"/>
	<defs>
		<linearGradient id="gradient_4" gradientUnits="userSpaceOnUse" x1="363.55121" y1="262.62585" x2="389.63675" y2="221.50682">
			<stop offset="0" stop-color="#651A12"/>
			<stop offset="1" stop-color="#892F2B"/>
		</linearGradient>
	</defs>
	<path fill="url(#gradient_4)" d="M384.713 222.332C387.518 222.19 391.325 221.978 393.518 223.985L394.075 224.525C394.795 225.705 395.781 226.481 397.055 226.981C401.569 236.427 399.81 247.372 394.349 256.003C386.625 266.525 374.53 268.252 363.187 262.593C363.181 262.547 361.727 261.525 361.565 261.404C359.782 260.069 358.445 258.553 357.107 256.784C355.454 253.528 354.431 250.715 353.596 247.16C353.787 246.505 353.442 244.664 353.438 243.867C353.385 233.467 359.53 226.07 369.643 224.115C370.963 223.544 372.644 223.511 374.062 223.313L384.713 222.332ZM387.057 223.299C381.584 223.497 378.189 225.703 373.459 227.711C375.264 229.499 372.267 233.853 371.661 236.307C376.34 237.576 379.791 240.285 384.953 240.567L392.192 241.347C392.299 239.069 392.379 236.586 391.994 234.335L390.427 227.284C389.569 225.359 388.969 224.297 387.057 223.299Z"/>
	<path fill="#AE4A51" d="M369.643 224.115C370.963 223.544 372.644 223.511 374.062 223.313L384.713 222.332C385.371 223.262 385.964 223.11 387.057 223.299C381.584 223.497 378.189 225.703 373.459 227.711L372.978 227.892C372.027 228.464 371.052 229.159 370.049 229.624L373.439 226.877C375.089 226.19 377.434 223.698 373.329 224.06L372.188 224.145C371.297 224.278 370.828 224.324 369.936 224.169L369.643 224.115Z"/>
	<path fill="#9F8BE8" d="M372.978 227.892L373.459 227.711C375.264 229.499 372.267 233.853 371.661 236.307L368.405 235.237C367.316 234.763 366.055 234.469 364.919 234.104L370.049 229.624C371.052 229.159 372.027 228.464 372.978 227.892Z"/>
</svg>
