<?xml version="1.0" encoding="utf-8" ?>
<svg xmlns="http://www.w3.org/2000/svg" xmlns:xlink="http://www.w3.org/1999/xlink" width="512" height="512">
	<path fill="#C9ADFE" transform="scale(0.5 0.5)" d="M545.246 132.349L549.076 129.922C554.657 125.925 560.938 119.176 563.575 112.742C565.113 108.991 565.699 104.561 566.415 100.577C569.415 106.185 571.656 111.812 573.155 118C574.004 121.509 574.054 124.973 574.17 128.567C574.071 132.084 574.174 135.765 573.398 139.206C569.057 150.122 562.697 156.178 551.919 160.719C543.251 164.37 532.752 165.726 523.466 166.815C521.64 167.03 520.073 167.032 518.25 167.367L513.203 167.828C510.265 168.234 506.915 167.827 504 167.373C502.234 167.098 500.283 167.085 498.588 166.553C496.977 166.046 494.75 166.197 493 165.924L491.05 165.75C478.539 164.476 461.828 159.86 453.573 149.75C451.422 147.115 449.724 142.978 448.974 139.68C448.414 136.764 448.457 133.83 448.409 130.871C448.362 120.619 453.066 110.45 457.634 101.517C459.012 105.172 459.722 108.982 461.03 112.641C463.784 120.348 468.869 125.089 475.008 130.191C476.83 135.119 479.554 139.549 482.408 143.942C486.652 150.473 492.696 154.252 499.902 156.808C505.173 159.648 513.925 158.584 519.81 158.56C524.1 157.963 528.38 155.791 532 153.518C533.99 152.268 535.58 150.744 537.224 149.077C541.169 145.077 544.984 138.777 544.931 133.031L545.246 132.349Z"/>
	<path fill="#A895F7" transform="scale(0.5 0.5)" d="M574.17 128.567C574.071 132.084 574.174 135.765 573.398 139.206C569.057 150.122 562.697 156.178 551.919 160.719C543.251 164.37 532.752 165.726 523.466 166.815C521.64 167.03 520.073 167.032 518.25 167.367L513.203 167.828C510.265 168.234 506.915 167.827 504 167.373C502.234 167.098 500.283 167.085 498.588 166.553C496.977 166.046 494.75 166.197 493 165.924L491.05 165.75C478.539 164.476 461.828 159.86 453.573 149.75C451.422 147.115 449.724 142.978 448.974 139.68C448.414 136.764 448.457 133.83 448.409 130.871C450.398 132.716 450.673 135.539 451.537 138C452.507 140.762 453.943 143.633 455.576 146.052C462.685 156.58 476.056 162.528 488.219 164.608L494 165.595L502.75 166.596C506.962 167.685 513 167.522 517.402 166.954C518.958 166.753 520.536 166.776 522.07 166.447C527.11 165.369 532.147 165.137 537.125 163.506C549.534 159.441 561.956 151.899 568.639 140.353C570.793 136.632 572.038 132.722 573.971 128.948L574.17 128.567Z"/>
	<path fill="#C9ADFE" transform="scale(0.5 0.5)" d="M481.442 132.079C481.882 106.015 495.561 83.4958 513.437 65.3095C516.387 67.9869 518.763 71.1544 521.222 74.2721C524.863 78.2988 528.044 82.9613 531.04 87.4844C537.067 96.5852 542.306 106.201 544.056 117.118C544.804 121.786 543.833 128.023 545.246 132.349L544.931 133.031C544.984 138.777 541.169 145.077 537.224 149.077C535.58 150.744 533.99 152.268 532 153.518C528.38 155.791 524.1 157.963 519.81 158.56C513.925 158.584 505.173 159.648 499.902 156.808C492.696 154.252 486.652 150.473 482.408 143.942C479.554 139.549 476.83 135.119 475.008 130.191C476.862 131.041 478.676 132 480.688 132.402L481.442 132.079Z"/>
	<path fill="#A895F7" transform="scale(0.5 0.5)" d="M521.222 74.2721C524.863 78.2988 528.044 82.9613 531.04 87.4844C537.067 96.5852 542.306 106.201 544.056 117.118C544.804 121.786 543.833 128.023 545.246 132.349L544.931 133.031C544.984 138.777 541.169 145.077 537.224 149.077C535.58 150.744 533.99 152.268 532 153.518C528.38 155.791 524.1 157.963 519.81 158.56C513.925 158.584 505.173 159.648 499.902 156.808C492.696 154.252 486.652 150.473 482.408 143.942C479.554 139.549 476.83 135.119 475.008 130.191C476.862 131.041 478.676 132 480.688 132.402L481.442 132.079C481.84 133.811 482.753 135.162 483.492 136.75C486.116 142.39 488.367 146.909 493 151.209C497.108 149.451 501.449 147.733 505 144.967C520.572 132.835 528.592 110.518 525.036 91.1875C524.135 86.2922 520.466 79.4958 521.142 74.7628L521.222 74.2721Z"/>
	<path fill="#FFADCB" transform="scale(0.5 0.5)" d="M317.551 855.559C320.662 856.136 323.974 858.947 326.714 860.557L341.107 868.539L358 876.589C371.896 882.744 386.546 888.084 401.12 892.382C408.986 894.701 418.194 895.851 425.594 899.259C426.98 902.817 427.982 906.22 428.552 910L428.691 910.843C429.316 914.979 428.45 919.996 426.811 923.829C423.749 929.227 419.878 934.001 415.108 937.999C398.664 951.786 373.828 953.849 353.235 952.044C328.757 949.898 299.86 938.882 283.887 919.47C277.047 911.158 272.949 900.123 274.178 889.267C275.244 879.841 280.195 872.459 287.491 866.663C288.373 866.775 289.466 865.968 290.264 865.573C293.328 864.054 296.366 862.431 299.538 861.146C305.427 858.761 311.374 857.014 317.551 855.559Z"/>
	<path fill="#FFADCB" transform="scale(0.5 0.5)" d="M710.333 851.691C722.271 853.489 732.115 856.443 740.324 865.718C747.23 873.664 752.726 882.831 751.86 893.824C750.612 909.671 741.778 920.704 729.874 930.447C712.517 944.653 689.157 951.338 667.143 953.013C660.417 953.524 653.501 953.877 646.776 953.145C630.292 951.351 612.235 946.48 601.358 932.993C599.033 930.111 597.304 926.817 595.978 923.371C593.543 914.583 594.009 907.754 596.87 899.032C598.52 897.997 602.346 897.623 604.344 897.118L623 891.941L652.65 881.326C664.499 876.529 676.24 871.038 687.368 864.748L701.843 856.328C704.616 854.698 707.31 852.821 710.333 851.691Z"/>
	<path fill="#FFADCB" transform="scale(0.5 0.5)" d="M719.475 212.012L740.68 204.445C765.863 194.498 788.82 181.72 809.826 164.549L839.38 138.25C842.71 135.512 848.556 131.395 852.998 133.246C855.996 134.494 857.698 137.711 858.772 140.593C860.733 145.853 860.513 151.602 860.527 157.139C860.588 181.895 854.099 205.575 843.532 227.86C830.653 255.021 811.028 282.396 786.459 300.066C786.106 298.705 784.655 296.753 783.894 295.495L777.865 285.605C766.735 267.266 755.556 249.634 741.156 233.603C734.365 226.042 726.772 219.085 719.475 212.012Z"/>
	<path fill="#FFADCB" transform="scale(0.5 0.5)" d="M240.646 303.683C235.711 300.747 231.374 295.881 227.423 291.75L209.837 272.119C187.687 244.995 171.318 213.814 165.427 179.022C163.749 169.116 162.629 158.511 163.734 148.466C164.406 142.343 165.16 135.636 170.592 131.75C173.113 129.947 176.113 130.218 178.703 131.666C183.934 134.589 188.73 141.879 192.951 146.238L208.29 160.905C231.556 181.198 257.434 195.544 286.816 204.971C293.925 207.251 301.27 209.658 308.609 211.047L309.331 211.18C280.447 236.395 256.03 268.478 240.646 303.683Z"/>
	<path fill="#A895F7" transform="scale(0.5 0.5)" d="M573.398 139.206L593.679 144.282C616.101 150.914 638.954 159.407 659.654 170.322C665.768 173.404 671.414 177.167 677.2 180.796C686.501 186.628 695.639 192.58 704.29 199.354L719.475 212.012C726.772 219.085 734.365 226.042 741.156 233.603C755.556 249.634 766.735 267.266 777.865 285.605L783.894 295.495C784.655 296.753 786.106 298.705 786.459 300.066C793.342 314.202 797.744 329.049 804.027 343.392C807.131 350.477 810.441 357.592 815.27 363.697C822.524 372.866 831.196 378.523 842.193 382.29C853.429 386.139 865.854 386.084 877.42 383.989C881.264 383.292 885.066 382.062 888.964 381.747C883.901 394.756 876.074 405.292 866.144 414.998L866.997 415.36C886.772 423.648 904.271 419.697 923.417 412.49C918.254 430.216 912.139 446.401 897.776 458.866C893.534 462.547 888.268 465.333 884.245 469.123C891.743 477.059 899.251 484.888 907.75 491.771C920.803 502.343 935.463 510.712 950.828 517.42C956.472 519.884 962.455 521.309 968.062 523.761L970.786 524.75C970.732 526.055 970.14 526.279 969.202 527.157C958.163 537.498 943.025 544.978 928.324 548.154L907.688 551.58C912.82 557.464 918.578 562.841 923.504 568.89C934.99 582.996 944.271 598.693 950.109 615.969C952.009 621.593 954.043 628.666 954.155 634.624L954.25 635.803C950.543 637.373 946.33 637.274 942.36 637.393C933.141 637.671 924.391 637.338 915.291 635.601C910.999 634.781 906.675 633.313 902.466 632.12C913.483 660.971 920.423 695.828 907.947 725.49C903.753 717.477 899.191 709.703 893.461 702.679C888.922 697.116 883.491 691.967 878.442 686.849C879.599 719.307 877.72 752.784 862.542 782.267C860.123 786.965 857.523 792.322 853.96 796.266C853.549 796.722 853.158 797.081 852.653 797.426C848.918 784.876 844.11 774.135 836.992 763.136C828.158 798.051 811.775 832.437 782.482 854.632C783.003 842.233 781.721 831.52 778.728 819.45L770.503 832.512C764.332 841.645 757.117 850.161 749.184 857.802C746.347 860.534 743.536 863.425 740.324 865.718C732.115 856.443 722.271 853.489 710.333 851.691C707.31 852.821 704.616 854.698 701.843 856.328L687.368 864.748C676.24 871.038 664.499 876.529 652.65 881.326L623 891.941L604.344 897.118C602.346 897.623 598.52 897.997 596.87 899.032C594.009 907.754 593.543 914.583 595.978 923.371C590.762 926.008 583.301 926.797 577.5 927.993C562.443 931.097 547.278 932.276 531.948 932.991C496.523 934.642 461.315 932.393 426.811 923.829C428.45 919.996 429.316 914.979 428.691 910.843L428.552 910C427.982 906.22 426.98 902.817 425.594 899.259C418.194 895.851 408.986 894.701 401.12 892.382C386.546 888.084 371.896 882.744 358 876.589L341.107 868.539L326.714 860.557C323.974 858.947 320.662 856.136 317.551 855.559C311.374 857.014 305.427 858.761 299.538 861.146C296.366 862.431 293.328 864.054 290.264 865.573C289.466 865.968 288.373 866.775 287.491 866.663L286.678 866.197L285 866.026C282.272 865.453 278.835 861.985 276.84 860.142C268.32 852.271 260.684 843.577 254.323 833.862C250.989 828.769 248.366 823.252 245.625 817.827C241.527 830.561 238.524 842.203 237.891 855.603C232.887 849.766 227.223 844.572 222.302 838.618C204.419 816.982 193.478 791.227 188.837 763.62C180.315 773.609 175.543 787.892 172.716 800.475C155.535 775.864 146.745 747.595 144.639 717.75L143.972 690.572L143.662 690.54C137.179 696.03 131.228 702.134 126.301 709.086C122.615 714.287 119.708 720.001 116.474 725.484C106.155 704.411 108.391 676.009 114.508 654C116.613 646.429 120.12 639.009 121.258 631.272C107.74 634.7 94.3 637.786 80.2459 636.653C77.9958 636.471 75.3908 636.502 73.2322 635.815L72.485 635.559L71.2622 634.974C71.1239 634.312 70.9879 633.679 70.9819 633C70.9284 626.844 73.1353 620.039 75.0928 614.275C83.5467 589.383 97.4541 568.306 115.17 549.048C112.95 549.235 110.248 548.69 108 548.521C88.3322 547.038 71.999 539.086 56.5434 527.267L53.2042 523.977C57.275 521.525 61.6399 519.817 65.9212 517.773L83.6976 508.87C97.3625 502.026 110.523 493.92 122.967 485.064C130.644 479.6 138.322 473.973 145.005 467.295C139.641 464.465 134.245 461.901 129.279 458.368C113.411 447.08 105.029 430.753 101.81 411.864C113.993 416.857 127.208 420.843 140.5 419.893C146.849 419.44 152.89 417.729 158.87 415.651C149.113 405.441 141.746 395.571 137.338 381.889C154.415 384.582 171.333 386.856 187.84 379.907C202.615 373.688 215.771 363.63 223.026 348.975C226.804 341.343 229.139 333.18 231.98 325.188L240.646 303.683C256.03 268.478 280.447 236.395 309.331 211.18C312.567 208.936 315.437 206.229 318.521 203.789L335.285 191.195C356.948 175.558 380.758 163.088 405.596 153.289C414.88 149.626 424.476 146.899 434.067 144.179C438.81 142.835 444.004 141.908 448.505 139.899L448.974 139.68C449.724 142.978 451.422 147.115 453.573 149.75C461.828 159.86 478.539 164.476 491.05 165.75L493 165.924C494.75 166.197 496.977 166.046 498.588 166.553C500.283 167.085 502.234 167.098 504 167.373C506.915 167.827 510.265 168.234 513.203 167.828L518.25 167.367C520.073 167.032 521.64 167.03 523.466 166.815C532.752 165.726 543.251 164.37 551.919 160.719C562.697 156.178 569.057 150.122 573.398 139.206ZM573.398 139.206C569.057 150.122 562.697 156.178 551.919 160.719C543.251 164.37 532.752 165.726 523.466 166.815C521.64 167.03 520.073 167.032 518.25 167.367L513.203 167.828C510.265 168.234 506.915 167.827 504 167.373C502.234 167.098 500.283 167.085 498.588 166.553C496.977 166.046 494.75 166.197 493 165.924L491.05 165.75C478.539 164.476 461.828 159.86 453.573 149.75C451.422 147.115 449.724 142.978 448.974 139.68L448.505 139.899C444.004 141.908 438.81 142.835 434.067 144.179C424.476 146.899 414.88 149.626 405.596 153.289C380.758 163.088 356.948 175.558 335.285 191.195L318.521 203.789C315.437 206.229 312.567 208.936 309.331 211.18C280.447 236.395 256.03 268.478 240.646 303.683L231.98 325.188C229.139 333.18 226.804 341.343 223.026 348.975C215.771 363.63 202.615 373.688 187.84 379.907C171.333 386.856 154.415 384.582 137.338 381.889C141.746 395.571 149.113 405.441 158.87 415.651C178.71 434.635 207.874 437.987 233.983 439.148C230.177 441.963 226.043 444.246 222.185 446.977C213.199 453.339 207.606 460.801 201.396 469.646L194.644 483.771C198.298 488.668 202.104 490.853 208.234 491.715C214.764 492.634 221.588 492.031 228.007 490.648C229.998 490.219 233.128 488.822 235.031 488.993C233.594 502.355 231.374 520.701 240.212 532.14C243.524 536.427 247.48 538.263 252.734 538.789C260.211 539.538 267.519 535.58 273.121 530.957L281.791 522.707C283.739 538.872 286.18 557.965 299.749 568.939C303.402 571.893 307.541 573.444 312.265 572.811C320.835 571.662 327.444 565.017 332.312 558.334L342.249 542.542C348.538 560.41 354.781 580.571 373.455 589.35C380.441 592.635 387.871 592.831 395.012 590.132C406.007 585.977 412.962 576.555 417.561 566.162C419.691 561.349 421.369 556.363 422.543 551.237C427.969 571.743 434.338 591.459 453.994 602.691C462.958 607.812 474.066 609.664 484.08 606.855C496.367 603.407 505.013 594.936 511.032 583.966C515.631 575.583 516.94 567.155 519.504 558.171C521.3 573.775 527.194 588.758 539.834 598.882L542 600.458L542.711 600.963C549.971 606.04 559.483 608.798 568.297 607.143C581.06 604.748 590.028 597.259 597.153 586.697C604.911 575.197 607.275 562.643 607.091 549.005C611.728 563.551 619.019 580.697 633.325 588.172C636.546 589.856 639.894 591.065 643.5 591.558L644.385 591.686C650.809 592.537 657.79 590.064 663.149 586.659L663.819 586.246C673.401 580.14 680.326 567.211 682.508 556.262L685.03 535.748C687.903 546.359 691.729 557.378 701.826 563.23C706.285 565.815 712.896 566.174 717.814 564.682C719.372 564.21 720.724 563.467 722.122 562.653L722.843 562.24C730.91 557.396 735.433 547.324 737.451 538.5C740.432 525.469 739.576 511.634 738.719 498.412C738.369 493.026 738.204 486.698 736.797 481.51C741.005 477.367 744.578 473.559 746.46 467.799L746.675 467.118C747.638 464.166 747.831 460.665 747.15 457.618C745.145 448.64 737.528 442.756 730.283 437.951C725.514 436.216 720.585 434.119 715.626 433.011C705.568 430.765 696.7 430.515 686.458 430.684C690.999 427.57 694.63 422.727 698.159 418.532L698.534 418.306C700.982 416.755 702.531 414.242 704.125 411.881C711.541 400.897 714.925 388.589 717.691 375.786C718.419 370.65 718.346 364.297 717.677 359.154C715.628 343.4 710.065 332.008 701.397 318.899L701.517 318.517C702.171 316.829 701.479 315.111 701.095 313.396L698.066 301.157L679.712 232.491C677.485 223.935 676.01 214.911 673.355 206.504C671.379 200.245 669.148 193.992 666.592 187.945C664.159 182.189 661.089 176.412 659.654 170.322C638.954 159.407 616.101 150.914 593.679 144.282L573.398 139.206ZM199.519 504.296C198.065 508.201 195.878 514.963 193.168 518.102C192.647 522.158 191.066 526.116 189.904 530.029C188.513 534.716 187.439 539.503 185.688 544.079L180.75 573.774C179.798 579.57 178.591 585.384 178.067 591.236C176.98 603.388 177.137 615.339 177.785 627.5C178.552 641.887 180.054 656.358 183.278 670.433C185.488 680.084 188.667 689.233 191.856 698.573C195.161 708.252 198.33 717.236 203.736 725.992C207.835 727.98 211.038 731.622 214.5 734.533L228.438 745.609C239.144 753.844 250.72 761.308 262.286 768.273C286.202 782.673 311.796 795.798 338.647 803.793L360.396 809.302C364.373 810.212 368.606 810.837 372.408 812.329C373.685 810.55 374.756 808.376 376.823 807.576C379.645 803.401 384.567 801.05 389.294 799.81C393.332 798.14 399.201 798.717 403.164 800.405L403.615 800.608L403.626 800.642C408.14 801.817 412.503 805.319 415.506 808.796L416.439 810.041C418.038 812.063 419.105 814.38 419.819 816.856L420.254 818.816C425.867 819.606 430.671 819.178 436.25 819.044L455.153 818.889C460.856 818.576 466.559 817.523 472.231 816.832C475.128 823.321 480.086 829.503 485.122 834.433C496.472 845.545 511.424 850.882 527.25 850.478C543.762 850.056 558.568 843.084 569.94 831.329C581.479 819.401 585.186 804.078 584.889 787.932C597.124 782.165 608.923 773.993 619.375 765.462C666.085 727.334 693.065 673.783 703.337 615.007C704.7 607.205 705.342 599.348 706.134 591.476C700.678 587.709 696.549 582.616 692.373 577.548C689.799 584.439 687.891 591.666 684.178 598.061C679.037 606.916 669.633 613.408 659.824 615.968L659.021 616.174C653.506 617.669 645.138 617.817 639.568 616.284L638.75 616.049C626.358 612.681 619.255 604.156 611.882 594.244C605.436 607.539 600.063 620.516 586.65 628.385C577.301 633.869 565.534 635.318 555.087 632.643C543.117 629.578 533.649 621.846 526.794 611.711C524.233 607.925 522.285 603.72 519.946 599.786C515.192 608.885 509.801 618.14 501.432 624.406C492.512 631.083 480.376 634.962 469.25 633.531C465.227 633.014 461.286 632.088 457.5 630.618C439.649 623.686 431.11 608.918 423.666 592.224C416.695 602.529 410.858 610.599 398.983 615.677C390.266 619.404 379.802 618.911 371.121 615.262C360.047 610.608 351.817 600.789 346.801 590.109C344.389 584.973 342.68 579.584 340.476 574.365L334.88 582.411C328.608 590.772 320.186 596.538 309.718 597.844C303.62 598.605 297.145 595.194 292.5 591.487C279.505 581.117 276.544 563.846 274.79 548.356C269.91 552.593 264.146 555.856 257.825 557.343C250.243 559.126 242.879 557.237 236.422 553.082C228.7 548.115 225.076 538.067 223.25 529.501C221.478 521.189 223.013 512.111 223.622 503.701C215.014 506.75 208.23 508.328 199.519 504.296ZM389.294 799.81C384.567 801.05 379.645 803.401 376.823 807.576C374.756 808.376 373.685 810.55 372.408 812.329C369.175 817.672 368.086 823.854 369.369 830L369.512 830.71C370.787 836.687 374.574 842.181 379.75 845.45C386.489 849.707 394.74 850.982 402.433 848.973C408.708 847.334 414.434 842.535 417.583 836.983C419.033 834.428 420.075 831.393 420.565 828.5L420.695 827.776C421.183 824.841 420.965 821.699 420.254 818.816L419.819 816.856C419.105 814.38 418.038 812.063 416.439 810.041L415.506 808.796C412.503 805.319 408.14 801.817 403.626 800.642L403.615 800.608L403.164 800.405C399.201 798.717 393.332 798.14 389.294 799.81Z"/>
	<path fill="#FFADCB" transform="scale(0.5 0.5)" d="M658.396 783.103C661.844 782.804 665.524 783.244 668.634 784.882C671.889 786.598 673.967 789.866 675.007 793.312C676.079 796.859 675.837 801.603 674.022 804.848C671.461 809.429 667.274 811.709 662.405 813.126L659.5 813.037C655.286 812.651 651.017 810.449 648.462 807.045C646.098 803.895 644.626 799.829 645.331 795.87L645.453 795.25C645.821 793.275 646.407 791.558 647.489 789.844C650.026 785.822 653.962 784.149 658.396 783.103Z"/>
	<path fill="#FFADCB" transform="scale(0.5 0.5)" d="M742.868 389.089C746.204 388.6 749.201 389.002 752.291 390.356C756.399 392.155 759.635 395.585 761.108 399.849C762.514 403.919 762.27 408.578 760.323 412.434C757.715 417.598 753.291 419.659 748.109 421.449C744.847 421.838 741.441 421.503 738.453 420.089C734.8 418.36 731.125 414.36 729.805 410.513C728.437 406.525 728.927 401.751 730.855 398.026C733.472 392.971 737.638 390.771 742.868 389.089Z"/>
	<path fill="#FFADCB" transform="scale(0.5 0.5)" d="M733.269 284.573C737.287 284.415 740.575 284.59 744.308 286.286C748.768 288.313 751.768 291.915 753.415 296.454C754.989 300.794 753.814 306.583 751.8 310.562C749.481 315.144 745.011 317.341 740.329 318.839L734.376 318.549C730.315 318.234 726.332 316.069 723.752 312.892C720.832 309.296 719.181 304.434 719.827 299.8L719.949 299C720.206 297.233 720.505 295.721 721.284 294.094C723.934 288.557 727.813 286.621 733.269 284.573Z"/>
	<path fill="#FFADCB" transform="scale(0.5 0.5)" d="M778.327 610.533C781.758 610.439 784.705 610.423 787.975 611.681C792.675 613.489 796.509 617.491 798.315 622.162C799.986 626.484 799.906 631.514 797.984 635.75C795.389 641.472 790.818 643.947 785.179 645.969C782.237 646.46 778.171 646.161 775.364 645.092C770.409 643.204 766.989 639.448 765.096 634.555C763.198 629.652 764.356 623.435 766.607 618.834C768.856 614.239 773.804 612.156 778.327 610.533Z"/>
	<path fill="#C9ADFE" transform="scale(0.5 0.5)" d="M717.691 375.786C720.272 379.293 720.518 386.38 721.367 390.634L726.753 418.536C727.908 425.034 728.702 431.53 730.283 437.951C725.514 436.216 720.585 434.119 715.626 433.011C705.568 430.765 696.7 430.515 686.458 430.684C690.999 427.57 694.63 422.727 698.159 418.532L698.534 418.306C700.982 416.755 702.531 414.242 704.125 411.881C711.541 400.897 714.925 388.589 717.691 375.786Z"/>
	<path fill="#FFADCB" transform="scale(0.5 0.5)" d="M389.294 799.81C393.332 798.14 399.201 798.717 403.164 800.405L403.615 800.608L403.626 800.642C408.14 801.817 412.503 805.319 415.506 808.796L416.439 810.041C418.038 812.063 419.105 814.38 419.819 816.856L420.254 818.816C420.965 821.699 421.183 824.841 420.695 827.776L420.565 828.5C420.075 831.393 419.033 834.428 417.583 836.983C414.434 842.535 408.708 847.334 402.433 848.973C394.74 850.982 386.489 849.707 379.75 845.45C374.574 842.181 370.787 836.687 369.512 830.71L369.369 830C368.086 823.854 369.175 817.672 372.408 812.329C373.685 810.55 374.756 808.376 376.823 807.576C379.645 803.401 384.567 801.05 389.294 799.81ZM389.294 799.81L388.974 800.602L388.17 801.5C387.991 804.795 387.921 807.01 389.511 810C389.255 811.419 388.858 812.454 388.25 813.764L389.289 814.824L388.618 815.263C391.088 816.483 398.23 816.95 401.219 816.935C406.516 817.505 413.543 819.075 418.669 818.25L418.524 817.25C419.228 816.855 418.809 817.022 419.819 816.856C419.105 814.38 418.038 812.063 416.439 810.041L415.506 808.796C412.503 805.319 408.14 801.817 403.626 800.642L403.615 800.608L403.164 800.405C399.201 798.717 393.332 798.14 389.294 799.81ZM389.294 799.81C384.567 801.05 379.645 803.401 376.823 807.576L374.44 812.723C379.102 813.915 383.807 814.918 388.618 815.263L389.289 814.824L388.25 813.764C388.858 812.454 389.255 811.419 389.511 810C387.921 807.01 387.991 804.795 388.17 801.5L388.974 800.602L389.294 799.81Z"/>
	<path fill="#FEFEFE" fill-opacity="0.42352942" transform="scale(0.5 0.5)" d="M389.294 799.81L388.974 800.602L388.17 801.5C387.991 804.795 387.921 807.01 389.511 810C389.255 811.419 388.858 812.454 388.25 813.764L389.289 814.824L388.618 815.263C383.807 814.918 379.102 813.915 374.44 812.723L376.823 807.576C379.645 803.401 384.567 801.05 389.294 799.81ZM379.759 806.25L378.216 807.75C378.463 809.5 378.354 809.416 379.75 810.482L381.75 810.755C383.118 809.679 383.226 809.67 383.655 808C383.126 806.5 382.908 806.576 381.5 805.776L379.759 806.25Z"/>
	<path fill="#FEFEFE" fill-opacity="0.32941177" transform="scale(0.5 0.5)" d="M379.759 806.25L381.5 805.776C382.908 806.576 383.126 806.5 383.655 808C383.226 809.67 383.118 809.679 381.75 810.755L379.75 810.482C378.354 809.416 378.463 809.5 378.216 807.75L379.759 806.25Z"/>
	<defs>
		<linearGradient id="gradient_0" gradientUnits="userSpaceOnUse" x1="403.76834" y1="801.92041" x2="397.91104" y2="817.08942">
			<stop offset="0" stop-color="#FEFEFE" stop-opacity="0.73725492"/>
			<stop offset="1" stop-color="#FEFFFE" stop-opacity="0.84313726"/>
		</linearGradient>
	</defs>
	<path fill="url(#gradient_0)" transform="scale(0.5 0.5)" d="M389.294 799.81C393.332 798.14 399.201 798.717 403.164 800.405L403.615 800.608L403.626 800.642C408.14 801.817 412.503 805.319 415.506 808.796L416.439 810.041C418.038 812.063 419.105 814.38 419.819 816.856C418.809 817.022 419.228 816.855 418.524 817.25L418.669 818.25C413.543 819.075 406.516 817.505 401.219 816.935C398.23 816.95 391.088 816.483 388.618 815.263L389.289 814.824L388.25 813.764C388.858 812.454 389.255 811.419 389.511 810C387.921 807.01 387.991 804.795 388.17 801.5L388.974 800.602L389.294 799.81ZM416.439 810.041L415.902 810.733C415.551 811.295 415.459 812.457 415.069 812.903C414.248 813.841 411.668 814.849 410.479 815.401C408.232 815.098 406.022 814.766 403.75 814.755L403.25 815.255L402.625 815.503C403.742 816.114 403.195 815.874 404.25 816.255L401.219 816.935C406.516 817.505 413.543 819.075 418.669 818.25L418.524 817.25C419.228 816.855 418.809 817.022 419.819 816.856C419.105 814.38 418.038 812.063 416.439 810.041ZM403.626 800.642C404.533 801.576 405.248 802.577 406.502 802.997L407.75 804.755L407.304 805.5C407.468 806.446 407.549 807.354 408.31 808.027L412.75 810.83C413.596 810.398 413.821 810.011 414.487 809.439L415.506 808.796C412.503 805.319 408.14 801.817 403.626 800.642Z"/>
	<path fill="#FEFEFE" fill-opacity="0.70588237" transform="scale(0.5 0.5)" d="M403.626 800.642C408.14 801.817 412.503 805.319 415.506 808.796L414.487 809.439C413.821 810.011 413.596 810.398 412.75 810.83L408.31 808.027C407.549 807.354 407.468 806.446 407.304 805.5L407.75 804.755L406.502 802.997C405.248 802.577 404.533 801.576 403.626 800.642Z"/>
	<path fill="#FEFEFE" fill-opacity="0.8509804" transform="scale(0.5 0.5)" d="M416.439 810.041C418.038 812.063 419.105 814.38 419.819 816.856C418.809 817.022 419.228 816.855 418.524 817.25L418.669 818.25C413.543 819.075 406.516 817.505 401.219 816.935L404.25 816.255C403.195 815.874 403.742 816.114 402.625 815.503L403.25 815.255L403.75 814.755C406.022 814.766 408.232 815.098 410.479 815.401C411.668 814.849 414.248 813.841 415.069 812.903C415.459 812.457 415.551 811.295 415.902 810.733L416.439 810.041Z"/>
	<path fill="#FFADCB" transform="scale(0.5 0.5)" d="M726.355 674.197C732.033 673.559 738.598 673.674 744.117 675.217C752.169 677.468 759.314 680.581 766.038 685.646C777.287 694.119 784.341 707.417 786.462 721.173C788.645 735.335 784.467 749.476 775.989 760.868C767.343 772.486 754.734 779.748 740.477 781.853C732.598 782.785 724.469 782.576 716.888 779.974C703.779 775.474 690.888 765.128 684.887 752.482C678.429 738.874 676.559 722.816 681.69 708.506C686.67 694.621 696.166 684.663 709.37 678.339C714.75 675.763 720.5 674.917 726.355 674.197Z"/>
	<path fill="#C9ADFE" transform="scale(0.5 0.5)" d="M199.519 504.296C208.23 508.328 215.014 506.75 223.622 503.701C223.013 512.111 221.478 521.189 223.25 529.501C225.076 538.067 228.7 548.115 236.422 553.082C242.879 557.237 250.243 559.126 257.825 557.343C264.146 555.856 269.91 552.593 274.79 548.356C276.544 563.846 279.505 581.117 292.5 591.487C297.145 595.194 303.62 598.605 309.718 597.844C320.186 596.538 328.608 590.772 334.88 582.411L340.476 574.365C342.68 579.584 344.389 584.973 346.801 590.109C351.817 600.789 360.047 610.608 371.121 615.262C379.802 618.911 390.266 619.404 398.983 615.677C410.858 610.599 416.695 602.529 423.666 592.224C431.11 608.918 439.649 623.686 457.5 630.618C461.286 632.088 465.227 633.014 469.25 633.531C480.376 634.962 492.512 631.083 501.432 624.406C509.801 618.14 515.192 608.885 519.946 599.786C522.285 603.72 524.233 607.925 526.794 611.711C533.649 621.846 543.117 629.578 555.087 632.643C565.534 635.318 577.301 633.869 586.65 628.385C600.063 620.516 605.436 607.539 611.882 594.244C619.255 604.156 626.358 612.681 638.75 616.049L639.568 616.284C645.138 617.817 653.506 617.669 659.021 616.174L659.824 615.968C669.633 613.408 679.037 606.916 684.178 598.061C687.891 591.666 689.799 584.439 692.373 577.548C696.549 582.616 700.678 587.709 706.134 591.476C705.342 599.348 704.7 607.205 703.337 615.007C693.065 673.783 666.085 727.334 619.375 765.462C608.923 773.993 597.124 782.165 584.889 787.932C585.186 804.078 581.479 819.401 569.94 831.329C558.568 843.084 543.762 850.056 527.25 850.478C511.424 850.882 496.472 845.545 485.122 834.433C480.086 829.503 475.128 823.321 472.231 816.832C466.559 817.523 460.856 818.576 455.153 818.889L436.25 819.044C430.671 819.178 425.867 819.606 420.254 818.816L419.819 816.856C419.105 814.38 418.038 812.063 416.439 810.041L415.506 808.796C412.503 805.319 408.14 801.817 403.626 800.642L403.615 800.608L403.164 800.405C399.201 798.717 393.332 798.14 389.294 799.81C384.567 801.05 379.645 803.401 376.823 807.576C374.756 808.376 373.685 810.55 372.408 812.329C368.606 810.837 364.373 810.212 360.396 809.302L338.647 803.793C311.796 795.798 286.202 782.673 262.286 768.273C250.72 761.308 239.144 753.844 228.438 745.609L214.5 734.533C211.038 731.622 207.835 727.98 203.736 725.992C198.33 717.236 195.161 708.252 191.856 698.573C188.667 689.233 185.488 680.084 183.278 670.433C180.054 656.358 178.552 641.887 177.785 627.5C177.137 615.339 176.98 603.388 178.067 591.236C178.591 585.384 179.798 579.57 180.75 573.774L185.688 544.079C187.439 539.503 188.513 534.716 189.904 530.029C191.066 526.116 192.647 522.158 193.168 518.102C195.878 514.963 198.065 508.201 199.519 504.296ZM588.559 643.111C582.263 645.602 575.664 650.189 572.376 656.25C571.274 658.28 569.577 660.825 569.12 663.087C568.499 666.161 568.943 669.552 568.591 672.698C568.263 675.623 568.913 679.062 570.137 681.716L570.209 682.063C570.506 683.672 571.379 685.38 572.165 686.812C575.687 693.234 582.651 698.615 589.751 700.458L590.5 700.643C594.734 701.748 599.957 702.146 604.186 700.873L605 700.612L609.491 699.078C617.195 695.768 622.875 690.471 625.897 682.549C628.968 674.503 628.84 666.156 625.263 658.287C621.642 650.322 615.528 645.771 607.522 642.75C602.65 640.912 595.661 640.457 590.698 642.271L588.559 643.111ZM233.433 612.745C231.581 612.613 231.082 613.012 229.507 613.985L228.553 613.817C227.477 613.659 226.915 613.853 225.928 614.246C224.283 614.902 223.036 614.742 221.32 614.51L220.125 615.375L220.251 616.28C218.924 616.428 218.89 616.141 218.001 617.243L216.524 616.865L216 617.25L215.203 617.087C210.829 616.282 208.067 617.721 204.7 620.378L199.238 626.01C198.11 625.926 197.622 625.883 196.669 625.285L196 625L195.739 624.27L194.697 628.309L194.533 627.849C194.293 627.229 193.991 626.702 193.654 626.132L193.152 626.412L192.389 625.967C191.995 629.818 192.171 633.469 193.899 637C196.434 642.178 200.861 646.613 206.413 648.354C213.384 650.539 220.415 650.109 226.938 646.55C231.22 644.214 235.46 639.791 236.835 635.029L237.052 634.25C238.055 630.875 238.698 626.063 237.81 622.615L237.639 622C236.695 618.405 235.653 615.745 233.433 612.745ZM399.295 658.572C393.152 660.434 388.418 662.607 385.198 668.51C382.531 673.399 381.647 678.179 383.274 683.505C384.659 688.038 387.911 692.26 392 694.677L392.492 694.974L393 695.242L393.436 695.506C396.391 697.229 400.849 697.58 404.167 696.905C409.851 695.339 415.187 693.119 418.329 687.781C421.119 683.042 421.494 676.947 419.878 671.75C418.504 667.333 414.893 662.743 410.742 660.645C409.241 659.887 407.603 659.45 406 658.971L405.345 658.765C403.442 658.194 401.253 658.381 399.295 658.572ZM193.231 618.944C192.351 621.295 192.401 623.501 192.389 625.967L193.152 626.412L193.654 626.132C193.991 626.702 194.293 627.229 194.533 627.849L194.697 628.309L195.739 624.27L196 625L196.669 625.285C197.622 625.883 198.11 625.926 199.238 626.01L204.7 620.378C208.067 617.721 210.829 616.282 215.203 617.087L216 617.25L216.524 616.865L218.001 617.243C218.89 616.141 218.924 616.428 220.251 616.28L220.125 615.375L221.32 614.51L221.205 614.193L209.125 611.41C209.469 610.843 209.769 610.767 210.375 610.497L211 610.245C211.5 609.951 211.799 609.526 212.358 609.246C213.149 608.85 212.647 609.149 213.508 608.607L214.015 608.279C211.817 607.643 210.04 607.345 207.75 607.434C206.975 606.757 207.06 606.509 205.96 606.608C204.7 606.722 203.044 607.572 202.266 608.579L202 608.978C201.39 609.686 200.417 610.23 199.653 610.75L199.497 611.317C199.219 612.166 199.009 612.12 198.514 612.75L198.163 613.317C197.681 614.021 197.281 614.17 196.525 614.5L193.939 619.375L193.231 618.944ZM214.015 608.279L213.508 608.607C212.647 609.149 213.149 608.85 212.358 609.246C211.799 609.526 211.5 609.951 211 610.245L210.375 610.497C209.769 610.767 209.469 610.843 209.125 611.41L221.205 614.193L221.32 614.51C223.036 614.742 224.283 614.902 225.928 614.246C226.915 613.853 227.477 613.659 228.553 613.817L229.507 613.985C231.082 613.012 231.581 612.613 233.433 612.745C231.826 610.833 230.181 608.981 227.95 607.805L227.283 607.791C226.136 607.705 225.178 607.326 224.114 606.929C220.22 608.024 218.113 608.779 214.015 608.279ZM193.231 618.944L193.939 619.375L196.525 614.5C197.281 614.17 197.681 614.021 198.163 613.317L198.514 612.75C199.009 612.12 199.219 612.166 199.497 611.317L199.653 610.75C200.417 610.23 201.39 609.686 202 608.978L202.266 608.579C203.044 607.572 204.7 606.722 205.96 606.608C207.06 606.509 206.975 606.757 207.75 607.434C210.04 607.345 211.817 607.643 214.015 608.279C218.113 608.779 220.22 608.024 224.114 606.929C225.178 607.326 226.136 607.705 227.283 607.791L227.95 607.805C222.516 604.334 216.263 602.957 209.875 604.374C203.864 605.708 198.669 608.653 195.385 613.996C194.453 615.512 193.741 617.239 193.231 618.944Z"/>
	<path fill="#FEFEFE" fill-opacity="0.25098041" transform="scale(0.5 0.5)" d="M214.015 608.279C218.113 608.779 220.22 608.024 224.114 606.929C225.178 607.326 226.136 607.705 227.283 607.791L227.95 607.805C230.181 608.981 231.826 610.833 233.433 612.745C231.581 612.613 231.082 613.012 229.507 613.985L228.553 613.817C227.477 613.659 226.915 613.853 225.928 614.246C224.283 614.902 223.036 614.742 221.32 614.51L221.205 614.193L209.125 611.41C209.469 610.843 209.769 610.767 210.375 610.497L211 610.245C211.5 609.951 211.799 609.526 212.358 609.246C213.149 608.85 212.647 609.149 213.508 608.607L214.015 608.279Z"/>
	<defs>
		<linearGradient id="gradient_1" gradientUnits="userSpaceOnUse" x1="204.18997" y1="610.1911" x2="208.00792" y2="616.38525">
			<stop offset="0" stop-color="white" stop-opacity="0.20784314"/>
			<stop offset="1" stop-color="#FFFEFD" stop-opacity="0.32156864"/>
		</linearGradient>
	</defs>
	<path fill="url(#gradient_1)" transform="scale(0.5 0.5)" d="M193.231 618.944L193.939 619.375L196.525 614.5C197.281 614.17 197.681 614.021 198.163 613.317L198.514 612.75C199.009 612.12 199.219 612.166 199.497 611.317L199.653 610.75C200.417 610.23 201.39 609.686 202 608.978L202.266 608.579C203.044 607.572 204.7 606.722 205.96 606.608C207.06 606.509 206.975 606.757 207.75 607.434C210.04 607.345 211.817 607.643 214.015 608.279L213.508 608.607C212.647 609.149 213.149 608.85 212.358 609.246C211.799 609.526 211.5 609.951 211 610.245L210.375 610.497C209.769 610.767 209.469 610.843 209.125 611.41L221.205 614.193L221.32 614.51L220.125 615.375L220.251 616.28C218.924 616.428 218.89 616.141 218.001 617.243L216.524 616.865L216 617.25L215.203 617.087C210.829 616.282 208.067 617.721 204.7 620.378L199.238 626.01C198.11 625.926 197.622 625.883 196.669 625.285L196 625L195.739 624.27L194.697 628.309L194.533 627.849C194.293 627.229 193.991 626.702 193.654 626.132L193.152 626.412L192.389 625.967C192.401 623.501 192.351 621.295 193.231 618.944Z"/>
	<defs>
		<linearGradient id="gradient_2" gradientUnits="userSpaceOnUse" x1="396.58301" y1="659.81165" x2="405.06229" y2="695.51013">
			<stop offset="0" stop-color="#FEFEFE" stop-opacity="0.76078433"/>
			<stop offset="1" stop-color="#FEFFFE" stop-opacity="0.85882354"/>
		</linearGradient>
	</defs>
	<path fill="url(#gradient_2)" transform="scale(0.5 0.5)" d="M399.295 658.572C401.253 658.381 403.442 658.194 405.345 658.765L406 658.971C407.603 659.45 409.241 659.887 410.742 660.645C414.893 662.743 418.504 667.333 419.878 671.75C421.494 676.947 421.119 683.042 418.329 687.781C415.187 693.119 409.851 695.339 404.167 696.905C400.849 697.58 396.391 697.229 393.436 695.506L393 695.242L392.492 694.974L392 694.677C387.911 692.26 384.659 688.038 383.274 683.505C381.647 678.179 382.531 673.399 385.198 668.51C388.418 662.607 393.152 660.434 399.295 658.572Z"/>
	<defs>
		<linearGradient id="gradient_3" gradientUnits="userSpaceOnUse" x1="195.54671" y1="620.16791" x2="233.09306" y2="635.26862">
			<stop offset="0" stop-color="#FEFEFD" stop-opacity="0.40392157"/>
			<stop offset="1" stop-color="#FEFEFD" stop-opacity="0.43529412"/>
		</linearGradient>
	</defs>
	<path fill="url(#gradient_3)" transform="scale(0.5 0.5)" d="M233.433 612.745C235.653 615.745 236.695 618.405 237.639 622L237.81 622.615C238.698 626.063 238.055 630.875 237.052 634.25L236.835 635.029C235.46 639.791 231.22 644.214 226.938 646.55C220.415 650.109 213.384 650.539 206.413 648.354C200.861 646.613 196.434 642.178 193.899 637C192.171 633.469 191.995 629.818 192.389 625.967L193.152 626.412L193.654 626.132C193.991 626.702 194.293 627.229 194.533 627.849L194.697 628.309L195.739 624.27L196 625L196.669 625.285C197.622 625.883 198.11 625.926 199.238 626.01L204.7 620.378C208.067 617.721 210.829 616.282 215.203 617.087L216 617.25L216.524 616.865L218.001 617.243C218.89 616.141 218.924 616.428 220.251 616.28L220.125 615.375L221.32 614.51C223.036 614.742 224.283 614.902 225.928 614.246C226.915 613.853 227.477 613.659 228.553 613.817L229.507 613.985C231.082 613.012 231.581 612.613 233.433 612.745Z"/>
	<defs>
		<linearGradient id="gradient_4" gradientUnits="userSpaceOnUse" x1="579.40002" y1="650.79181" x2="617.56335" y2="692.52771">
			<stop offset="0" stop-color="#FEFEFE" stop-opacity="0.74509805"/>
			<stop offset="1" stop-color="white" stop-opacity="0.92941177"/>
		</linearGradient>
	</defs>
	<path fill="url(#gradient_4)" transform="scale(0.5 0.5)" d="M588.559 643.111L590.698 642.271C595.661 640.457 602.65 640.912 607.522 642.75C615.528 645.771 621.642 650.322 625.263 658.287C628.84 666.156 628.968 674.503 625.897 682.549C622.875 690.471 617.195 695.768 609.491 699.078L605 700.612L604.186 700.873C599.957 702.146 594.734 701.748 590.5 700.643L589.751 700.458C582.651 698.615 575.687 693.234 572.165 686.812C571.379 685.38 570.506 683.672 570.209 682.063L570.137 681.716C568.913 679.062 568.263 675.623 568.591 672.698C568.943 669.552 568.499 666.161 569.12 663.087C569.577 660.825 571.274 658.28 572.376 656.25C575.664 650.189 582.263 645.602 588.559 643.111ZM588.559 643.111C582.263 645.602 575.664 650.189 572.376 656.25C571.274 658.28 569.577 660.825 569.12 663.087C568.499 666.161 568.943 669.552 568.591 672.698C568.263 675.623 568.913 679.062 570.137 681.716C570.782 677.907 569.668 673.911 570.197 670.09C570.625 669.874 570.943 669.744 571.316 669.465C573.524 667.815 573.088 665.114 573.597 662.75L574.232 662.278C576.859 660.221 580.893 652.72 581.123 649.375L581.135 648.75L582.554 647.502C583.974 646.594 585.137 647.354 586.928 646.75C586.92 645.008 587.556 644.426 588.559 643.111ZM582.554 647.502L581.135 648.75L581.123 649.375C580.893 652.72 576.859 660.221 574.232 662.278L573.597 662.75C573.088 665.114 573.524 667.815 571.316 669.465C570.943 669.744 570.625 669.874 570.197 670.09C569.668 673.911 570.782 677.907 570.137 681.716L570.209 682.063L570.77 682.119C571.69 679.383 573.564 674.823 572.92 672.028C572.634 670.782 574.231 667.839 574.722 666.501C574.379 665.293 574.326 664.398 574.34 663.161C575.468 662.707 576.388 662.065 577.383 661.382C578.011 659.28 579.588 657.706 580.095 655.754C580.633 653.678 581.791 652.337 582.825 650.511C581.975 649.394 582.375 648.831 582.554 647.502Z"/>
	<path fill="#FEFEFE" fill-opacity="0.70980394" transform="scale(0.5 0.5)" d="M582.554 647.502C582.375 648.831 581.975 649.394 582.825 650.511C581.791 652.337 580.633 653.678 580.095 655.754C579.588 657.706 578.011 659.28 577.383 661.382C576.388 662.065 575.468 662.707 574.34 663.161C574.326 664.398 574.379 665.293 574.722 666.501C574.231 667.839 572.634 670.782 572.92 672.028C573.564 674.823 571.69 679.383 570.77 682.119L570.209 682.063L570.137 681.716C570.782 677.907 569.668 673.911 570.197 670.09C570.625 669.874 570.943 669.744 571.316 669.465C573.524 667.815 573.088 665.114 573.597 662.75L574.232 662.278C576.859 660.221 580.893 652.72 581.123 649.375L581.135 648.75L582.554 647.502Z"/>
	<path fill="#FEFEFE" fill-opacity="0.6156863" transform="scale(0.5 0.5)" d="M588.559 643.111C587.556 644.426 586.92 645.008 586.928 646.75C585.137 647.354 583.974 646.594 582.554 647.502L581.135 648.75L581.123 649.375C580.893 652.72 576.859 660.221 574.232 662.278L573.597 662.75C573.088 665.114 573.524 667.815 571.316 669.465C570.943 669.744 570.625 669.874 570.197 670.09C569.668 673.911 570.782 677.907 570.137 681.716C568.913 679.062 568.263 675.623 568.591 672.698C568.943 669.552 568.499 666.161 569.12 663.087C569.577 660.825 571.274 658.28 572.376 656.25C575.664 650.189 582.263 645.602 588.559 643.111Z"/>
	<path fill="#FFADCB" transform="scale(0.5 0.5)" d="M302.905 658.21C316.326 658.692 328.12 661.309 338.978 669.686L339.702 670.25L340.492 670.839C350.739 678.547 358.627 693.503 360.282 706.153C362.36 722.027 358.745 737.137 348.857 749.806C338.805 762.686 324.931 768.583 309.067 770.405L299.991 769.97C285.042 768.116 271.391 760.952 262.196 748.839C252.699 736.329 248.574 720.608 250.847 705.06L250.974 704.25L251.355 701.802C253.805 688.961 261.803 676.058 272.717 668.7C282.326 662.221 291.409 659.02 302.905 658.21Z"/>
	<path fill="#FFADCB" transform="scale(0.5 0.5)" d="M472.231 816.832C470.148 810.985 468.229 805.248 467.099 799.123C464.506 785.067 469.557 768.062 477.504 756.5L478.376 755.245C486.702 744.022 501.788 735.082 515.495 732.931C530.972 730.501 547.918 734.502 560.558 743.753C575.884 754.971 582.059 769.661 584.889 787.932C585.186 804.078 581.479 819.401 569.94 831.329C558.568 843.084 543.762 850.056 527.25 850.478C511.424 850.882 496.472 845.545 485.122 834.433C480.086 829.503 475.128 823.321 472.231 816.832Z"/>
	<path fill="#C9ADFE" transform="scale(0.5 0.5)" d="M573.398 139.206L593.679 144.282C616.101 150.914 638.954 159.407 659.654 170.322C661.089 176.412 664.159 182.189 666.592 187.945C669.148 193.992 671.379 200.245 673.355 206.504C676.01 214.911 677.485 223.935 679.712 232.491L698.066 301.157L701.095 313.396C701.479 315.111 702.171 316.829 701.517 318.517L701.397 318.899C710.065 332.008 715.628 343.4 717.677 359.154C718.346 364.297 718.419 370.65 717.691 375.786C714.925 388.589 711.541 400.897 704.125 411.881C702.531 414.242 700.982 416.755 698.534 418.306L698.159 418.532C694.63 422.727 690.999 427.57 686.458 430.684C696.7 430.515 705.568 430.765 715.626 433.011C720.585 434.119 725.514 436.216 730.283 437.951C737.528 442.756 745.145 448.64 747.15 457.618C747.831 460.665 747.638 464.166 746.675 467.118L746.46 467.799C744.578 473.559 741.005 477.367 736.797 481.51C738.204 486.698 738.369 493.026 738.719 498.412C739.576 511.634 740.432 525.469 737.451 538.5C735.433 547.324 730.91 557.396 722.843 562.24L722.122 562.653C720.724 563.467 719.372 564.21 717.814 564.682C712.896 566.174 706.285 565.815 701.826 563.23C691.729 557.378 687.903 546.359 685.03 535.748L682.508 556.262C680.326 567.211 673.401 580.14 663.819 586.246L663.149 586.659C657.79 590.064 650.809 592.537 644.385 591.686L643.5 591.558C639.894 591.065 636.546 589.856 633.325 588.172C619.019 580.697 611.728 563.551 607.091 549.005C607.275 562.643 604.911 575.197 597.153 586.697C590.028 597.259 581.06 604.748 568.297 607.143C559.483 608.798 549.971 606.04 542.711 600.963L542 600.458L539.834 598.882C527.194 588.758 521.3 573.775 519.504 558.171C516.94 567.155 515.631 575.583 511.032 583.966C505.013 594.936 496.367 603.407 484.08 606.855C474.066 609.664 462.958 607.812 453.994 602.691C434.338 591.459 427.969 571.743 422.543 551.237C421.369 556.363 419.691 561.349 417.561 566.162C412.962 576.555 406.007 585.977 395.012 590.132C387.871 592.831 380.441 592.635 373.455 589.35C354.781 580.571 348.538 560.41 342.249 542.542L332.312 558.334C327.444 565.017 320.835 571.662 312.265 572.811C307.541 573.444 303.402 571.893 299.749 568.939C286.18 557.965 283.739 538.872 281.791 522.707L273.121 530.957C267.519 535.58 260.211 539.538 252.734 538.789C247.48 538.263 243.524 536.427 240.212 532.14C231.374 520.701 233.594 502.355 235.031 488.993C233.128 488.822 229.998 490.219 228.007 490.648C221.588 492.031 214.764 492.634 208.234 491.715C202.104 490.853 198.298 488.668 194.644 483.771L201.396 469.646C207.606 460.801 213.199 453.339 222.185 446.977C226.043 444.246 230.177 441.963 233.983 439.148C207.874 437.987 178.71 434.635 158.87 415.651C149.113 405.441 141.746 395.571 137.338 381.889C154.415 384.582 171.333 386.856 187.84 379.907C202.615 373.688 215.771 363.63 223.026 348.975C226.804 341.343 229.139 333.18 231.98 325.188L240.646 303.683C256.03 268.478 280.447 236.395 309.331 211.18C312.567 208.936 315.437 206.229 318.521 203.789L335.285 191.195C356.948 175.558 380.758 163.088 405.596 153.289C414.88 149.626 424.476 146.899 434.067 144.179C438.81 142.835 444.004 141.908 448.505 139.899L448.974 139.68C449.724 142.978 451.422 147.115 453.573 149.75C461.828 159.86 478.539 164.476 491.05 165.75L493 165.924C494.75 166.197 496.977 166.046 498.588 166.553C500.283 167.085 502.234 167.098 504 167.373C506.915 167.827 510.265 168.234 513.203 167.828L518.25 167.367C520.073 167.032 521.64 167.03 523.466 166.815C532.752 165.726 543.251 164.37 551.919 160.719C562.697 156.178 569.057 150.122 573.398 139.206ZM584.186 335.625C575.367 352.438 570.596 369.799 576.363 388.573C579.229 397.902 583.793 405.657 590.504 412.75C589.929 413.343 589.469 413.777 588.782 414.25L591.669 417.502C592.916 419.641 594.482 420.39 595.895 422.188C604.488 433.121 616.538 440.635 630.022 444.122L651.082 447.731C661.925 438.548 672.58 433.661 686.458 430.684C690.999 427.57 694.63 422.727 698.159 418.532L698.534 418.306C700.982 416.755 702.531 414.242 704.125 411.881C711.541 400.897 714.925 388.589 717.691 375.786C718.419 370.65 718.346 364.297 717.677 359.154C715.628 343.4 710.065 332.008 701.397 318.899C687.492 303.868 671.349 293.845 650.417 292.958C631.892 292.173 613.897 298.538 600.32 311.257C595.799 315.492 592.282 320.485 589.012 325.704C586.998 328.916 584.933 331.843 584.186 335.625ZM371.628 300.749C351.988 304.058 335.84 312.87 324.13 329.438C312.022 346.572 308.416 366.119 311.994 386.657C313.736 396.656 318.644 407.011 324.506 415.25C326.845 418.538 329.687 421.544 331.891 424.908L333.502 426.254C342.587 435.505 354.04 440.665 366.379 444.214C371.904 444.885 377.419 445.681 383 445.509C394.13 445.167 405.353 441.494 414.955 435.911C426.239 429.348 439.093 416.313 442.371 403.359C442.096 402.568 444.493 398.327 444.96 397.298C447.988 390.62 449.838 383.578 450.35 376.25C451.244 363.477 447.56 349.21 440.94 338.25C439.166 335.313 436.623 332.639 434.375 330.057L434.197 329.389C434.276 328.766 434.269 328.64 434.5 327.943L434.796 327.25C427.061 316.15 416.469 308.325 403.663 304.037C402.374 303.503 401.008 303.499 399.644 303.693L399.043 303.801L398.209 302.852C390.411 300.21 379.811 299.491 371.628 300.749Z"/>
	<path fill="#FFADCB" transform="scale(0.5 0.5)" d="M310.027 271.655C313.006 271.786 315.312 272.302 317.994 273.608C322.39 275.748 325.667 279.932 327.038 284.606C328.431 289.358 327.983 293.475 325.39 297.748C322.506 302.501 317.665 305.062 312.404 306.279C308.882 306.242 305.043 305.773 302.051 303.732C297.908 300.906 295.04 296.07 294.097 291.182C293.19 286.481 294.629 281.975 297.43 278.173C300.497 274.01 305.106 272.394 310.027 271.655Z"/>
	<path fill="#B739F1" transform="scale(0.5 0.5)" d="M586.499 448.25L586.967 448.641C586.425 450.54 585.224 452.233 584.207 453.913C580.183 460.557 574.757 466.405 568.647 471.186C548.208 487.18 522.301 492.504 496.885 489.158C481.651 487.153 466.42 479.938 455.25 469.431C450.619 465.074 446.786 460.024 442.947 454.98L439.473 448.95C443.028 451.353 445.987 455.826 449.197 458.802C458.069 467.03 468.348 472.483 479.372 477.165C492.557 482.766 508.387 483.823 522.5 482.454C547.93 479.988 570.185 467.844 586.499 448.25Z"/>
	<path fill="#6D50DF" transform="scale(0.5 0.5)" d="M331.891 424.908L331.26 424.719C329.737 424.18 328.462 422.313 327.404 421.113C322.216 415.232 317.328 408.51 314.005 401.386C305.205 382.519 304.406 360.538 311.464 341C318.062 322.738 332.059 308.225 349.559 300.084C365.707 292.573 384.339 291.334 401.127 297.563C417.963 303.811 431.792 316.024 439.381 332.417L435.912 328.036C435.039 328.382 434.819 329.252 434.375 330.057L434.197 329.389C434.276 328.766 434.269 328.64 434.5 327.943L434.796 327.25C427.061 316.15 416.469 308.325 403.663 304.037C402.374 303.503 401.008 303.499 399.644 303.693L399.043 303.801L398.209 302.852C390.411 300.21 379.811 299.491 371.628 300.749C351.988 304.058 335.84 312.87 324.13 329.438C312.022 346.572 308.416 366.119 311.994 386.657C313.736 396.656 318.644 407.011 324.506 415.25C326.845 418.538 329.687 421.544 331.891 424.908Z"/>
	<path fill="#231D87" transform="scale(0.5 0.5)" d="M505.55 400.694L512.137 400.294C518.695 400.453 531.493 401.463 535.898 407.045C536.854 408.256 536.93 409.663 536.659 411.119C534.82 421.007 525.009 429.307 517.203 434.76C515.813 435.515 514.419 436.251 512.858 436.581C509.424 437.305 505.541 434.21 502.861 432.325C496.941 428.162 487.282 419.086 486.481 411.5C486.238 409.19 486.465 407.761 487.949 405.962C491.581 401.558 500.248 401.343 505.55 400.694Z"/>
	<path fill="#FFADCB" transform="scale(0.5 0.5)" d="M372.142 217.612C378.56 216.95 384.834 217.576 390.387 221.201C396.976 225.503 401.319 232.036 402.648 239.831C403.794 246.551 402.127 253.82 398.15 259.359C393.7 265.556 388.163 268.537 380.801 269.814C374.895 270.522 369.305 269.64 364.039 266.829C357.724 263.457 352.946 257.084 351.082 250.236C349.151 243.141 350.552 235.143 354.341 228.908C358.291 222.407 365.026 219.215 372.142 217.612Z"/>
	<path fill="#FFADCB" transform="scale(0.5 0.5)" d="M637.127 184.163C640.875 183.948 644.609 184.102 648.225 185.203C651.835 186.303 655.233 187.511 658.452 189.546C666.579 194.681 671.701 205.497 673.646 214.634C675.197 221.924 672.945 228.806 668.985 234.916C663.464 243.435 656.111 247.359 646.383 249.391C638.63 250.226 631.942 249.098 625.207 245.034C617.128 240.159 611.684 232.03 609.388 223C608.433 219.246 608.162 215.625 608.807 211.781C609.805 205.832 611.365 201.28 614.989 196.316C620.282 189.066 628.506 185.427 637.127 184.163Z"/>
	<path fill="#FFADCB" transform="scale(0.5 0.5)" d="M333.502 426.254C342.587 435.505 354.04 440.665 366.379 444.214L370.285 450.164C374.054 457.044 375.642 464.11 373.277 471.764C370.895 479.471 365.485 484.751 358.503 488.405C344.286 495.848 327.7 496.498 312.595 491.696C301.291 488.102 288.79 481.341 283.219 470.323L282.858 469.589C281.998 467.868 281.346 466.19 280.914 464.311C279.541 458.347 281.399 452.147 284.632 447.103L285.025 446.5L285.78 445.351C292.389 436.148 305.529 429.758 316.556 428.033C322.196 427.151 327.89 427.257 333.502 426.254Z"/>
	<path fill="#FFADCB" transform="scale(0.5 0.5)" d="M651.082 447.731C661.925 438.548 672.58 433.661 686.458 430.684C696.7 430.515 705.568 430.765 715.626 433.011C720.585 434.119 725.514 436.216 730.283 437.951C737.528 442.756 745.145 448.64 747.15 457.618C747.831 460.665 747.638 464.166 746.675 467.118L746.46 467.799C744.578 473.559 741.005 477.367 736.797 481.51C730.186 485.854 723.113 489.308 715.473 491.42C697.89 496.282 677.913 495.894 661.773 486.696C654.353 482.467 646.863 476.044 644.81 467.349C643.085 460.043 647.322 453.558 651.082 447.731Z"/>
	<path fill="#FFADCB" transform="scale(0.5 0.5)" d="M493.061 169.676C504.492 167.523 516.844 173.119 526.188 179.06C538.658 186.99 545.811 198.459 549.021 212.74C552.347 227.539 549.664 241.147 541.331 253.878C532.628 267.176 519.235 273.429 504.214 276.408C497.538 276.609 490.73 276.187 484.25 274.45C472.067 271.183 460.256 262.33 454.155 251.258C446.95 238.184 443.943 222.4 448.239 207.813C449.936 202.052 452.389 195.992 456.069 191.2C465.354 179.108 477.947 171.791 493.061 169.676Z"/>
	<path fill="#365DF3" transform="scale(0.5 0.5)" d="M371.628 300.749C379.811 299.491 390.411 300.21 398.209 302.852L399.043 303.801L399.644 303.693C401.008 303.499 402.374 303.503 403.663 304.037C416.469 308.325 427.061 316.15 434.796 327.25L434.5 327.943C434.269 328.64 434.276 328.766 434.197 329.389L434.375 330.057C436.623 332.639 439.166 335.313 440.94 338.25C447.56 349.21 451.244 363.477 450.35 376.25C449.838 383.578 447.988 390.62 444.96 397.298C444.493 398.327 442.096 402.568 442.371 403.359C439.093 416.313 426.239 429.348 414.955 435.911C405.353 441.494 394.13 445.167 383 445.509C377.419 445.681 371.904 444.885 366.379 444.214C354.04 440.665 342.587 435.505 333.502 426.254L331.891 424.908C329.687 421.544 326.845 418.538 324.506 415.25C318.644 407.011 313.736 396.656 311.994 386.657C308.416 366.119 312.022 346.572 324.13 329.438C335.84 312.87 351.988 304.058 371.628 300.749ZM395.559 336.012C394.763 335.451 394.1 335.007 393.161 334.702C391.759 334.246 389.799 334.372 388.315 334.399C381.464 334.522 374.818 336.808 369.032 340.429C361.533 345.121 356.032 353.014 354.132 361.624C353.142 366.114 353.115 371.218 353.889 375.75L354.033 376.649C355.562 385.803 361.255 394.603 368.879 399.903C377.064 405.594 388.886 407.036 398.457 405C407.635 403.048 416.097 396.823 421.103 388.934C423.255 385.542 424.566 381.879 425.53 378C427.124 371.583 427.597 363.036 424.149 357.167C423.705 356.412 423.246 355.85 422.626 355.242C424.31 352.524 425.938 349.456 426.096 346.199C426.29 342.21 424.589 337.95 421.928 335.023C418.605 331.367 413.748 328.994 408.75 329.024C402.85 329.06 399.474 332.116 395.559 336.012ZM371.628 300.749C351.988 304.058 335.84 312.87 324.13 329.438C312.022 346.572 308.416 366.119 311.994 386.657C313.736 396.656 318.644 407.011 324.506 415.25C326.845 418.538 329.687 421.544 331.891 424.908L333.502 426.254C342.587 435.505 354.04 440.665 366.379 444.214C371.904 444.885 377.419 445.681 383 445.509C394.13 445.167 405.353 441.494 414.955 435.911C426.239 429.348 439.093 416.313 442.371 403.359C439.06 407.174 436.087 411.196 432.471 414.75C425.74 421.365 416.481 426.481 407.438 429.058C392.456 433.328 375.089 431.667 361.5 424.075C347.853 416.45 337.334 402.859 333.214 387.774C329.029 372.454 330.84 355.514 338.793 341.707C347.688 326.264 361.232 317.863 378.074 313.411L378.229 312.848L377.589 312.339C377.071 311.65 377.086 310.895 376.393 310.237C373.51 307.499 369.463 309.222 366.792 307.25C366.698 305.417 367.086 305.215 368.101 303.75L369.75 303.076C370.71 302.484 371.19 301.923 372.326 301.442L372.75 301.267L371.628 300.749ZM371.628 300.749L372.75 301.267L372.326 301.442C371.19 301.923 370.71 302.484 369.75 303.076L368.101 303.75C367.086 305.215 366.698 305.417 366.792 307.25C369.463 309.222 373.51 307.499 376.393 310.237C377.086 310.895 377.071 311.65 377.589 312.339L378.229 312.848L378.074 313.411C379.401 313.46 382.036 312.909 383.25 312.376C386.47 310.964 392.74 312.14 396.39 312.379L395.998 311.803L395.997 311L395.571 309.25C395.408 307 397.444 307.045 398.521 305.553C398.692 305.316 398.641 304.926 398.874 304.75C399.065 304.606 401.303 305.091 401.75 305.025C402.23 304.953 403.189 304.282 403.663 304.037C402.374 303.503 401.008 303.499 399.644 303.693L399.043 303.801L398.209 302.852C390.411 300.21 379.811 299.491 371.628 300.749ZM403.663 304.037C403.189 304.282 402.23 304.953 401.75 305.025C401.303 305.091 399.065 304.606 398.874 304.75C398.641 304.926 398.692 305.316 398.521 305.553C397.444 307.045 395.408 307 395.571 309.25L395.997 311L395.998 311.803L396.39 312.379C411.124 314.187 423.009 319.652 434.197 329.389C434.276 328.766 434.269 328.64 434.5 327.943L434.796 327.25C427.061 316.15 416.469 308.325 403.663 304.037Z"/>
	<path fill="#FEFEFE" fill-opacity="0.41176471" transform="scale(0.5 0.5)" d="M371.628 300.749C379.811 299.491 390.411 300.21 398.209 302.852L399.043 303.801L399.644 303.693C401.008 303.499 402.374 303.503 403.663 304.037C403.189 304.282 402.23 304.953 401.75 305.025C401.303 305.091 399.065 304.606 398.874 304.75C398.641 304.926 398.692 305.316 398.521 305.553C397.444 307.045 395.408 307 395.571 309.25L395.997 311L395.998 311.803L396.39 312.379C392.74 312.14 386.47 310.964 383.25 312.376C382.036 312.909 379.401 313.46 378.074 313.411L378.229 312.848L377.589 312.339C377.071 311.65 377.086 310.895 376.393 310.237C373.51 307.499 369.463 309.222 366.792 307.25C366.698 305.417 367.086 305.215 368.101 303.75L369.75 303.076C370.71 302.484 371.19 301.923 372.326 301.442L372.75 301.267L371.628 300.749Z"/>
	<path fill="#231D87" transform="scale(0.5 0.5)" d="M395.559 336.012C399.474 332.116 402.85 329.06 408.75 329.024C413.748 328.994 418.605 331.367 421.928 335.023C424.589 337.95 426.29 342.21 426.096 346.199C425.938 349.456 424.31 352.524 422.626 355.242C423.246 355.85 423.705 356.412 424.149 357.167C427.597 363.036 427.124 371.583 425.53 378C424.566 381.879 423.255 385.542 421.103 388.934C416.097 396.823 407.635 403.048 398.457 405C388.886 407.036 377.064 405.594 368.879 399.903C361.255 394.603 355.562 385.803 354.033 376.649L353.889 375.75C353.115 371.218 353.142 366.114 354.132 361.624C356.032 353.014 361.533 345.121 369.032 340.429C374.818 336.808 381.464 334.522 388.315 334.399C389.799 334.372 391.759 334.246 393.161 334.702C394.1 335.007 394.763 335.451 395.559 336.012ZM395.559 336.012C393.047 340.165 391.473 343.993 392.547 348.99C393.509 353.467 396.322 357.648 400.205 360.102C404.108 362.57 408.723 362.96 413.109 361.823C417.161 360.772 419.808 358.125 422.626 355.242C424.31 352.524 425.938 349.456 426.096 346.199C426.29 342.21 424.589 337.95 421.928 335.023C418.605 331.367 413.748 328.994 408.75 329.024C402.85 329.06 399.474 332.116 395.559 336.012ZM386.291 357.982C383.437 359.437 380.762 360.843 379.666 364.102C378.869 366.476 378.784 368.852 379.986 371.117C381.239 373.477 383.245 375.056 385.829 375.739C387.017 376.053 388.117 376.089 389.336 376.046C392.293 374.842 394.635 373.45 395.889 370.366C396.85 368.002 396.776 365.276 395.706 362.948C394.86 361.107 392.659 358.911 390.678 358.316C389.198 357.871 387.816 357.875 386.291 357.982Z"/>
	<path fill="#365DF3" transform="scale(0.5 0.5)" d="M584.186 335.625C584.933 331.843 586.998 328.916 589.012 325.704C592.282 320.485 595.799 315.492 600.32 311.257C613.897 298.538 631.892 292.173 650.417 292.958C671.349 293.845 687.492 303.868 701.397 318.899C710.065 332.008 715.628 343.4 717.677 359.154C718.346 364.297 718.419 370.65 717.691 375.786C714.925 388.589 711.541 400.897 704.125 411.881C702.531 414.242 700.982 416.755 698.534 418.306L698.159 418.532C694.63 422.727 690.999 427.57 686.458 430.684C672.58 433.661 661.925 438.548 651.082 447.731L630.022 444.122C616.538 440.635 604.488 433.121 595.895 422.188C594.482 420.39 592.916 419.641 591.669 417.502L588.782 414.25C589.469 413.777 589.929 413.343 590.504 412.75C583.793 405.657 579.229 397.902 576.363 388.573C570.596 369.799 575.367 352.438 584.186 335.625ZM584.186 335.625C584.804 335.087 585.265 334.503 585.782 333.871C589.116 330.718 592.107 327.169 595.669 324.25C597.509 322.742 599.62 321.527 601.55 320.124L602.101 319.445C606.804 317.621 611.4 315.402 616.25 313.999C629.38 310.201 644.86 311.522 657.356 317.021C670.924 322.992 683.344 335.227 688.466 349.253C694.093 364.664 694.193 381.849 687.095 396.839C680.803 410.128 668.934 422.444 654.906 427.399C638.557 433.175 622.653 432.748 607.016 425.095C604.024 423.631 601.029 422.056 598.328 420.099C596.409 418.709 594.735 416.713 592.576 415.75L591.669 417.502C592.916 419.641 594.482 420.39 595.895 422.188C604.488 433.121 616.538 440.635 630.022 444.122L651.082 447.731C661.925 438.548 672.58 433.661 686.458 430.684C690.999 427.57 694.63 422.727 698.159 418.532L698.534 418.306C700.982 416.755 702.531 414.242 704.125 411.881C711.541 400.897 714.925 388.589 717.691 375.786C718.419 370.65 718.346 364.297 717.677 359.154C715.628 343.4 710.065 332.008 701.397 318.899C687.492 303.868 671.349 293.845 650.417 292.958C631.892 292.173 613.897 298.538 600.32 311.257C595.799 315.492 592.282 320.485 589.012 325.704C586.998 328.916 584.933 331.843 584.186 335.625ZM663.767 360.484C660.986 361.657 658.565 362.688 655.532 362.973L654.852 363.042L654.441 363.068L651 362.558C646.583 361.598 642.734 358.388 640.38 354.584C637.755 350.34 637.097 346.397 638.165 341.535C639 339.127 639.905 337.064 641.166 334.84C632.573 332.229 622.368 333.656 614.482 337.941C606.274 342.402 599.934 349.921 597.234 358.894L596.492 361.75C594.154 371.323 595.359 381.522 600.39 390.045C604.668 397.293 612.116 403.717 620.37 405.79C630.316 408.288 640.868 406.825 649.577 401.374C656.588 396.986 662.592 388.342 664.304 380.224C665.318 375.419 665.324 370.355 664.646 365.5L663.767 360.484ZM651.679 328.262C647.274 329.783 644.551 331.662 641.166 334.84C639.905 337.064 639 339.127 638.165 341.535C637.097 346.397 637.755 350.34 640.38 354.584C642.734 358.388 646.583 361.598 651 362.558L654.441 363.068L654.852 363.042L655.532 362.973C658.565 362.688 660.986 361.657 663.767 360.484C667.054 357.948 670.402 354.092 671.332 349.937C672.308 345.571 671.421 340.221 669.011 336.479C666.036 331.858 661.436 329.441 656.214 328.268L651.679 328.262Z"/>
	<defs>
		<linearGradient id="gradient_5" gradientUnits="userSpaceOnUse" x1="649.88776" y1="333.68323" x2="662.39673" y2="356.36584">
			<stop offset="0" stop-color="#FFFFFE" stop-opacity="0.71764708"/>
			<stop offset="1" stop-color="#FEFFFE" stop-opacity="0.81960785"/>
		</linearGradient>
	</defs>
	<path fill="url(#gradient_5)" transform="scale(0.5 0.5)" d="M651.679 328.262L656.214 328.268C661.436 329.441 666.036 331.858 669.011 336.479C671.421 340.221 672.308 345.571 671.332 349.937C670.402 354.092 667.054 357.948 663.767 360.484C660.986 361.657 658.565 362.688 655.532 362.973L654.852 363.042L654.441 363.068L651 362.558C646.583 361.598 642.734 358.388 640.38 354.584C637.755 350.34 637.097 346.397 638.165 341.535C639 339.127 639.905 337.064 641.166 334.84C644.551 331.662 647.274 329.783 651.679 328.262ZM638.165 341.535C637.097 346.397 637.755 350.34 640.38 354.584C642.734 358.388 646.583 361.598 651 362.558L654.441 363.068L657.162 362.084C657.454 360.309 658.157 358.787 658.378 357C656.669 355.464 654.341 355.564 652.095 355.236C651.925 355.211 650.668 355.028 650.668 355.028C650.446 354.856 649.667 352.852 649.479 352.459C648.733 350.896 647.886 349.563 646.798 348.211C644.292 347.457 643.101 348.931 640.639 348.958C640.238 346.868 639.974 344.097 638.755 342.328L638.165 341.535ZM651.679 328.262L652.423 331.25C651.605 331.979 650.833 332.64 649.918 333.25L649.75 334.755C651.793 336.294 653.989 335.98 656.5 336.156L657.909 335.454C658.219 334.276 658.514 333.827 657.718 332.75L655.91 331.25L656.214 328.268L651.679 328.262Z"/>
	<path fill="#FEFEFE" fill-opacity="0.87450981" transform="scale(0.5 0.5)" d="M651.679 328.262L656.214 328.268L655.91 331.25L657.718 332.75C658.514 333.827 658.219 334.276 657.909 335.454L656.5 336.156C653.989 335.98 651.793 336.294 649.75 334.755L649.918 333.25C650.833 332.64 651.605 331.979 652.423 331.25L651.679 328.262Z"/>
	<path fill="#FEFEFE" fill-opacity="0.3764706" transform="scale(0.5 0.5)" d="M638.165 341.535L638.755 342.328C639.974 344.097 640.238 346.868 640.639 348.958C643.101 348.931 644.292 347.457 646.798 348.211C647.886 349.563 648.733 350.896 649.479 352.459C649.667 352.852 650.446 354.856 650.668 355.028C650.668 355.028 651.925 355.211 652.095 355.236C654.341 355.564 656.669 355.464 658.378 357C658.157 358.787 657.454 360.309 657.162 362.084L654.441 363.068L651 362.558C646.583 361.598 642.734 358.388 640.38 354.584C637.755 350.34 637.097 346.397 638.165 341.535Z"/>
	<path fill="#231D87" transform="scale(0.5 0.5)" d="M663.767 360.484L664.646 365.5C665.324 370.355 665.318 375.419 664.304 380.224C662.592 388.342 656.588 396.986 649.577 401.374C640.868 406.825 630.316 408.288 620.37 405.79C612.116 403.717 604.668 397.293 600.39 390.045C595.359 381.522 594.154 371.323 596.492 361.75L597.234 358.894C599.934 349.921 606.274 342.402 614.482 337.941C622.368 333.656 632.573 332.229 641.166 334.84C639.905 337.064 639 339.127 638.165 341.535C637.097 346.397 637.755 350.34 640.38 354.584C642.734 358.388 646.583 361.598 651 362.558L654.441 363.068L654.852 363.042L655.532 362.973C658.565 362.688 660.986 361.657 663.767 360.484ZM639.543 359.212L637.121 361.502C636.244 362.389 635.048 362.817 633.927 363.309L633.381 363.554C631.356 364.398 629.059 363.676 627.056 363.034C625.887 365.886 625.606 368.157 626.901 371.046C627.339 372.024 628.178 373.582 629.095 374.18C631.078 373.597 632.615 374.812 634.562 374.554L635.25 374.442L635.428 375.25L636.75 375.333L636.894 374.75L638.75 374.302L638.269 373.25C638.829 371.437 638.827 367.616 639.654 366.25C640.347 365.105 640.702 365.049 641.13 363.57L642 363.341C642.18 362.593 642.079 362.888 642.375 362.167L642.59 361.66C641.822 360.425 640.763 359.915 639.543 359.212ZM629.095 374.18C629.987 374.973 630.855 375.773 631.969 376.244C634.04 377.122 636.654 376.891 638.531 375.859C640.981 374.512 643.321 372.65 644.066 369.828C644.931 366.547 644.325 364.507 642.59 361.66L642.375 362.167C642.079 362.888 642.18 362.593 642 363.341L641.13 363.57C640.702 365.049 640.347 365.105 639.654 366.25C638.827 367.616 638.829 371.437 638.269 373.25L638.75 374.302L636.894 374.75L636.75 375.333L635.428 375.25L635.25 374.442L634.562 374.554C632.615 374.812 631.078 373.597 629.095 374.18ZM627.056 363.034C629.059 363.676 631.356 364.398 633.381 363.554L633.927 363.309C635.048 362.817 636.244 362.389 637.121 361.502L639.543 359.212C636.239 358.062 634.5 357.645 631.194 359.25C629.38 360.131 628.268 361.466 627.056 363.034Z"/>
	<path fill="#FEFEFE" fill-opacity="0.32941177" transform="scale(0.5 0.5)" d="M639.543 359.212C640.763 359.915 641.822 360.425 642.59 361.66L642.375 362.167C642.079 362.888 642.18 362.593 642 363.341L641.13 363.57C640.702 365.049 640.347 365.105 639.654 366.25C638.827 367.616 638.829 371.437 638.269 373.25L638.75 374.302L636.894 374.75L636.75 375.333L635.428 375.25L635.25 374.442L634.562 374.554C632.615 374.812 631.078 373.597 629.095 374.18C628.178 373.582 627.339 372.024 626.901 371.046C625.606 368.157 625.887 365.886 627.056 363.034C629.059 363.676 631.356 364.398 633.381 363.554L633.927 363.309C635.048 362.817 636.244 362.389 637.121 361.502L639.543 359.212Z"/>
	<path fill="#6D50DF" transform="scale(0.5 0.5)" d="M584.186 335.625C584.933 331.843 586.998 328.916 589.012 325.704C592.282 320.485 595.799 315.492 600.32 311.257C613.897 298.538 631.892 292.173 650.417 292.958C671.349 293.845 687.492 303.868 701.397 318.899C710.065 332.008 715.628 343.4 717.677 359.154C718.346 364.297 718.419 370.65 717.691 375.786C714.925 388.589 711.541 400.897 704.125 411.881C702.531 414.242 700.982 416.755 698.534 418.306L698.159 418.532C709.188 402.573 715.748 385.618 714.295 365.859C712.874 346.55 704.662 328.911 689.785 316.234C676.948 305.295 658.958 297.747 641.829 299.245C626.53 300.584 609.007 305.355 598.75 317.657L599.119 318.862C600.248 318.912 601.046 319.035 602.101 319.445L601.55 320.124C599.62 321.527 597.509 322.742 595.669 324.25C592.107 327.169 589.116 330.718 585.782 333.871C585.265 334.503 584.804 335.087 584.186 335.625Z"/>
	<path fill="#FEFEFE" transform="scale(0.5 0.5)" d="M585.782 333.871L585.875 333.58C587.353 328.139 592.644 323.075 596.592 319.25C597.83 320.118 600.036 320.002 601.55 320.124C599.62 321.527 597.509 322.742 595.669 324.25C592.107 327.169 589.116 330.718 585.782 333.871Z"/>
</svg>
