<?xml version="1.0" encoding="utf-8" ?>
<svg xmlns="http://www.w3.org/2000/svg" xmlns:xlink="http://www.w3.org/1999/xlink" width="640" height="640">
	<path fill="#EB9050" transform="translate(0 -0.00195312)" d="M390.668 484.967C402.51 478.546 415.117 474.231 425.394 465.21C424.501 471.518 424.873 478.143 424.866 484.488L424.873 519.517C424.816 524.668 425.783 523.039 430.625 522.873C444.032 522.414 452.706 526.761 457.969 539.946C459.682 544.238 460.993 560.922 456.492 564.076L455.769 564.575C454.844 565.182 453.771 565.315 452.686 565.371L372.062 565.372C355.921 564.633 340.982 552.723 338.385 536.402C336.753 526.148 338.02 493.492 340.166 484.981C341.648 482.041 343.443 479.815 345.57 477.334L352.255 487.89C355.24 492.237 358.752 496.289 362.219 500.258L390.668 484.967Z"/>
	<path fill="#BF734F" transform="translate(0 -0.00195312)" d="M390.668 484.967C402.51 478.546 415.117 474.231 425.394 465.21C424.501 471.518 424.873 478.143 424.866 484.488L424.873 519.517C424.672 520.574 424.775 521.63 424.387 522.656C417.787 522.964 410.949 524.053 404.353 523.22L403.75 523.14C386.864 521.003 394.401 495.747 390.668 484.967Z"/>
	<path fill="#EB9050" transform="translate(0 -0.00195312)" d="M215.039 464.921L215.517 464.797C227.391 473.75 238.915 477.49 249.785 484.868L280.17 500.699C281.284 499.654 282.057 498.117 282.816 496.803L286.719 490.183C289.225 486.143 291.988 482.155 294.896 478.394C297.339 480.928 299.46 483.439 301.487 486.32C302.512 498.119 302.278 509.971 302.28 521.796L302.265 532.006C302.086 548.429 290.333 559.96 274.935 564.485L274.151 564.752C271.916 565.599 269.123 565.429 266.756 565.45L189.198 565.337C185.915 565.171 183.872 564.183 182.187 561.25L181.989 560.921C181.054 559.285 181.239 556.869 181.236 555.034C181.201 533.591 191.012 518.406 215.538 523.421L215.308 488.637C215.306 480.898 215.901 472.586 215.039 464.921Z"/>
	<path fill="#BF734F" transform="translate(0 -0.00195312)" d="M215.039 464.921L215.517 464.797C227.391 473.75 238.915 477.49 249.785 484.868L249.652 485.327C247.623 502.146 255.352 519.001 233.906 522.868L233.446 522.954C227.618 524.004 221.426 523.598 215.538 523.436L215.308 488.637C215.306 480.898 215.901 472.586 215.039 464.921Z"/>
	<path fill="#90BD92" transform="translate(0 -0.00195312)" d="M153.771 301.654C152.18 302.764 134.132 311.828 132.656 311.881L132.247 311.25C132.951 306.353 144.268 284.517 146.788 280.39C126.199 290.256 141.091 272.796 146.899 266.406C148.966 264.133 151.877 262.047 153.143 259.219C152.321 258.187 146.855 259.438 144.219 257.144C144.622 251.798 169.142 229.16 174.942 222.087C170.115 217.429 157.926 214.421 151.24 208.829C160.028 196.506 183.215 190.21 196.866 186.619C184.298 174.991 177.819 173.765 173.246 156.324L185.947 155.727C190.797 155.749 195.686 155.637 200.524 155.993L210.408 156.916C211.636 157.064 213.808 157.71 214.919 157.352L215.239 157.195L233.511 173.418C241.992 180.413 251.342 186.448 255.632 196.946L255.741 197.187C252.209 203.347 249.16 209.554 251.059 216.865C254.025 228.282 267.256 236.966 279.001 234.848L279.206 235.419C263.542 244.654 240.2 262.712 235.245 281.517L234.977 282.741C221.4 273.87 202.373 270.134 186.325 273.618C172.146 276.696 162.548 287.193 155.046 299.062C154.6 299.768 153.703 300.857 153.771 301.654Z"/>
	<path fill="#90BD92" transform="translate(0 -0.00195312)" d="M425.382 155.927L466.768 155.394C461.853 175.285 452.609 175.589 441.964 186.986L454.399 189.742C463.927 192.028 483.496 199.492 488.933 208.714L489.101 209.054C482.192 214.533 472.889 217.777 464.925 221.506C473.605 232.43 493.163 249.399 498.663 259.853C494.902 258.79 491.306 257.927 487.416 257.487C490.694 266.868 500.755 273.876 506.222 282.089C503.464 281.245 501.343 279.888 498.823 278.546L490.979 274.763C492.753 276.622 500.833 283.331 500.999 285.098L500.981 285.469C500.259 285.897 499.55 286.145 498.76 286.406C498.809 292.401 506.8 305.63 509.153 312.242L487.69 302.13C486.89 300.017 484.253 297.537 482.822 295.697C470.143 279.397 465.279 271.379 442.63 272.005C431.861 272.303 421.641 274.744 412.25 280.03C410.79 280.852 408.662 282.502 407.062 282.768L406.585 282.83C399.114 267.571 388.891 255.558 374.958 245.822L364.766 239.153C361.152 236.627 357.803 233.836 354.47 230.959C354.28 230.894 353.221 229.06 353.04 228.775C350.452 226.808 347.778 225.226 344.93 223.667L347.031 223.597L347.135 220.382L346.331 217.433C343.704 204.389 351.911 190.93 365.366 188.736L367.344 188.453C373.587 187.986 379.414 189.377 384.297 193.387L425.382 155.927Z"/>
	<path fill="#F2F0EB" transform="translate(0 -0.00195312)" d="M347.135 220.382L346.331 217.433C343.704 204.389 351.911 190.93 365.366 188.736L367.344 188.453C373.587 187.986 379.414 189.377 384.297 193.387C406.398 220.383 373.863 244.109 353.883 228.531L353.04 228.775C350.452 226.808 347.778 225.226 344.93 223.667L347.031 223.597L347.135 220.382Z"/>
	<path fill="#638666" transform="translate(0 -0.00195312)" d="M347.135 220.382C348.169 222.634 352.118 226.698 353.883 228.531L353.04 228.775C350.452 226.808 347.778 225.226 344.93 223.667L347.031 223.597L347.135 220.382Z"/>
	<path fill="#364F3A" transform="translate(0 -0.00195312)" d="M370.365 199.449C383.508 198.638 384.596 218.109 372.071 220.472C357.368 220.03 356.526 201.752 370.365 199.449Z"/>
	<path fill="#C1D7BF" transform="translate(0 -0.00195312)" d="M406.585 282.83L407.062 282.768C408.662 282.502 410.79 280.852 412.25 280.03C421.641 274.744 431.861 272.303 442.63 272.005C465.279 271.379 470.143 279.397 482.822 295.697C484.253 297.537 486.89 300.017 487.69 302.13L487.76 302.472C489.328 309.672 500.812 327.575 504.258 337.148L508.32 348.716C508.985 351.024 509.219 355.298 506.562 356.544C503.713 356.279 497.815 350.458 493.602 348.836C496.467 364.648 499.044 379.021 496.736 395.197L485.128 390.318L480.317 414.522C479.123 419.378 473.35 438.888 469.062 441.922L468.281 441.82C466.11 437.995 466.718 430.158 463.963 424.548C457.385 432.128 448.072 455.452 440.781 459.706C437.911 459.457 438.125 456.442 438.636 454.315L439.296 451.272C435.924 455.647 426.246 460.663 425.394 465.21C415.117 474.231 402.51 478.546 390.668 484.967L362.219 500.258C358.752 496.289 355.24 492.237 352.255 487.89L345.57 477.334C352.485 468.288 361.475 461.661 365.741 450.758C367.666 454.688 368.968 458.507 370.215 462.689C376.381 457.118 387.221 444.974 392.422 438.678C423.7 400.816 426.199 351.45 411.051 305.976L407.509 296.794C407.381 291.817 405.065 288.087 406.585 282.83Z"/>
	<path fill="#C1D7BF" transform="translate(0 -0.00195312)" d="M153.771 301.654C153.703 300.857 154.6 299.768 155.046 299.062C162.548 287.193 172.146 276.696 186.325 273.618C202.373 270.134 221.4 273.87 234.977 282.741C234.925 286.466 233.988 290.518 233.43 294.238C227.489 309.451 221.993 329.524 220.44 345.525C217.597 374.835 226.892 409.393 244.407 432.858C250.169 440.577 256.941 447.321 263.461 454.37L270.495 462.637L275.177 452.698C277.534 456.12 278.954 459.656 281.728 462.889L291.577 473.619C292.754 474.997 294.331 476.669 294.896 478.394C291.988 482.155 289.225 486.143 286.719 490.183L282.816 496.803C282.057 498.117 281.284 499.654 280.17 500.699L249.785 484.868C238.915 477.49 227.391 473.75 215.517 464.797L214.836 464.921C213.682 462.756 210.233 460.953 208.472 459.048C206.62 457.043 205.3 454.34 203.63 452.135C202.852 454.398 202.408 457.434 200.469 458.938L199.375 458.803C193.317 457.313 183.454 434.977 180.656 429.375L177.453 423.611L171.222 442.25C164.417 434.09 159.649 411.314 157.543 401.212C154.335 385.826 158.171 390.346 144.369 394.921C142.406 385.176 142.395 374.147 143.537 364.309L146.219 347.709C142.288 348.888 135.252 358.178 130.811 354.844C128.344 347.322 143.175 321.752 146.852 315.312C149.173 311.248 152.729 306.552 153.713 301.948L153.771 301.654Z"/>
	<path fill="#364F3A" transform="translate(0 -0.00195312)" d="M215.239 157.195C208.137 146.446 182.346 140.04 214.472 137.623C222.782 136.998 230.898 136.447 239.219 137.249C233.617 133.163 227.363 131.569 221.065 128.954C217.488 127.469 211.427 123.16 216.781 119.272C221.234 116.038 234.723 120.285 239.086 122.437L234.034 91.9381C233.136 86.0484 230.833 81.022 239.523 83.7329C257.095 89.2146 267.963 102.659 276.204 118.377C275.775 113.544 275.734 108.724 275.752 103.874C275.794 92.19 274.999 68.916 291.721 84.9587C296.154 89.2112 299.682 93.7962 302.633 99.1559C306.972 92.6264 310.835 68.7611 317.464 65.4688C326.615 60.924 333.69 91.3477 336.579 98.5144L342.386 91.0513C345.457 87.481 349.193 83.4939 353.125 80.9304C366.632 72.1245 365.021 109.613 364.768 115.621C372.952 102.992 381.808 92.5878 395.729 86.0288C398.477 84.7341 404.075 81.7436 406.877 84.375C407.735 88.6194 401.408 117.383 400.125 121.507L413.594 118.944C416.939 118.39 424.255 116.902 424.637 122.165C425.255 130.662 405.984 130.099 401.658 135.469L401.845 135.849C407.389 137.608 440.417 136.399 441.229 141.543C441.89 145.736 433.351 148.248 430.528 150.366C428.48 151.902 426.919 153.904 425.382 155.927L384.297 193.387C379.414 189.377 373.587 187.986 367.344 188.453L365.366 188.736C351.911 190.93 343.704 204.389 346.331 217.433L347.135 220.382L347.031 223.597L344.93 223.667C338.497 220.937 330.782 217.616 323.752 217.323C314.272 216.928 307.35 221.933 298.594 223.917L298.263 222.7L298.131 224.062C294.167 226.421 290.789 228.888 287.36 231.997L285.879 234.26C283.497 234.753 281.684 235.442 279.206 235.419L279.001 234.848C267.256 236.966 254.025 228.282 251.059 216.865C249.16 209.554 252.209 203.347 255.741 197.187L255.632 196.946C251.342 186.448 241.992 180.413 233.511 173.418L215.239 157.195Z"/>
	<path fill="#F2F0EB" transform="translate(0 -0.00195312)" d="M255.741 197.187C270.704 180.118 297.25 190.359 298.241 213.181L298.242 222.7L298.131 224.062C294.167 226.421 290.789 228.888 287.36 231.997L285.879 234.26C283.497 234.753 281.684 235.442 279.206 235.419L279.001 234.848C267.256 236.966 254.025 228.282 251.059 216.865C249.16 209.554 252.209 203.347 255.741 197.187Z"/>
	<path fill="#F2E2C8" transform="translate(0 -0.00195312)" d="M279.001 234.848L279.022 234.746C281.506 233.556 284.61 232.245 287.36 231.997L285.879 234.26C283.497 234.753 281.684 235.442 279.206 235.419L279.001 234.848Z"/>
	<path fill="#364F3A" transform="translate(0 -0.00195312)" d="M271.434 200.045C285.719 198.876 289.578 215.766 276.515 220.655C261.955 223.224 258.562 203.554 271.434 200.045Z"/>
	<path fill="#F2E2C8" transform="translate(0 -0.00195312)" d="M298.263 222.7L298.594 223.917C307.35 221.933 314.272 216.928 323.752 217.323C330.782 217.616 338.497 220.937 344.93 223.667C347.778 225.226 350.452 226.808 353.04 228.775C353.221 229.06 354.28 230.894 354.47 230.959C357.803 233.836 361.152 236.627 364.766 239.153L374.958 245.822C388.891 255.558 399.114 267.571 406.585 282.83C405.065 288.087 407.381 291.817 407.509 296.794L411.051 305.976C426.199 351.45 423.7 400.816 392.422 438.678C387.221 444.974 376.381 457.118 370.215 462.689C368.968 458.507 367.666 454.688 365.741 450.758C361.475 461.661 352.485 468.288 345.57 477.334C343.443 479.815 341.648 482.041 340.166 484.981L339.894 485.179C331.601 491.415 328.266 501.517 313.317 496.384L312.966 496.268C311.029 495.612 309.245 494.478 307.656 493.216L307.251 492.903C305.094 491.192 303.664 487.362 301.487 486.32C299.46 483.439 297.339 480.928 294.896 478.394C294.331 476.669 292.754 474.997 291.577 473.619L281.728 462.889C278.954 459.656 277.534 456.12 275.177 452.698L270.495 462.637L263.461 454.37C256.941 447.321 250.169 440.577 244.407 432.858C226.892 409.393 217.597 374.835 220.44 345.525C221.993 329.524 227.489 309.451 233.43 294.238C233.988 290.518 234.925 286.466 234.977 282.741L235.245 281.517C240.2 262.712 263.542 244.654 279.206 235.419C281.684 235.442 283.497 234.753 285.879 234.26L287.36 231.997C290.789 228.888 294.167 226.421 298.131 224.062L298.263 222.7Z"/>
	<path fill="#EABBB1" transform="translate(0 -0.00195312)" d="M298.263 222.7L298.594 223.917C307.35 221.933 314.272 216.928 323.752 217.323C330.782 217.616 338.497 220.937 344.93 223.667C347.778 225.226 350.452 226.808 353.04 228.775C353.221 229.06 354.28 230.894 354.47 230.959C357.803 233.836 361.152 236.627 364.766 239.153L374.958 245.822C388.891 255.558 399.114 267.571 406.585 282.83C405.065 288.087 407.381 291.817 407.509 296.794C404.474 305.607 402.736 314.127 398.11 322.388C385.459 344.976 363.939 359.117 339.385 365.92C302.333 376.187 253.911 353.889 239.97 317.3C237.106 309.782 235.562 301.966 233.43 294.238C233.988 290.518 234.925 286.466 234.977 282.741L235.245 281.517C240.2 262.712 263.542 244.654 279.206 235.419C281.684 235.442 283.497 234.753 285.879 234.26L287.36 231.997C290.789 228.888 294.167 226.421 298.131 224.062L298.263 222.7Z"/>
	<path fill="#364F3A" transform="translate(0 -0.00195312)" d="M269.209 299.219C272.454 298.621 275.29 301.526 277.905 303.001C300.554 315.784 338.956 314.017 361.757 303.313C367.612 300.564 378.029 293.351 371.883 308.594C369.685 314.043 366.769 319.001 363.565 323.91C355.394 336.083 347.942 341.079 333.199 343.752C315.624 346.938 295.664 346.504 283.312 331.667C280.191 327.918 262.259 303.607 269.209 299.219Z"/>
	<path fill="#EABBB1" transform="translate(0 -0.00195312)" d="M303.727 314.531L315.3 314.892C315.381 321.878 315.115 326.554 307.76 328.931L303.91 329.346C288.13 329.846 301.517 315.435 303.727 314.531Z"/>
	<path fill="#EABBB1" transform="translate(0 -0.00195312)" d="M330.922 313.255L338.021 313.119C340.188 314.936 345.37 325.521 344.015 328.594C342.003 329.826 339.641 329.97 337.338 330.053C328.311 330.026 325.199 321.924 323.281 314.281L330.922 313.255Z"/>
	<path fill="#BF734F" transform="translate(0 -0.00195312)" d="M298.263 222.7L298.594 223.917C307.35 221.933 314.272 216.928 323.752 217.323C330.782 217.616 338.497 220.937 344.93 223.667C347.778 225.226 350.452 226.808 353.04 228.775C353.221 229.06 354.28 230.894 354.47 230.959C357.379 237.727 359.836 246.794 357.918 254.219L357.774 254.799C355.318 264.453 347.753 275.478 337.54 277.83L337.519 278.229C337.043 285.832 326.162 290.233 319.654 289.85C309.997 289.28 295.948 276.361 289.788 269.163C280.169 257.924 281.805 247.109 285.879 234.26L287.36 231.997C290.789 228.888 294.167 226.421 298.131 224.062L298.263 222.7Z"/>
	<path fill="#364F3A" transform="translate(0 -0.00195312)" d="M336.911 247.836C348.249 247.166 351.33 257.663 341.617 264.028C331.545 267.908 327.691 252.238 336.911 247.836Z"/>
	<path fill="#364F3A" transform="translate(0 -0.00195312)" d="M300.674 247.575C311.788 246.783 315.45 261.332 304.166 264.064C292.837 264.306 290.379 251.328 300.674 247.575Z"/>
</svg>
