<?xml version="1.0" encoding="utf-8" ?>
<svg xmlns="http://www.w3.org/2000/svg" xmlns:xlink="http://www.w3.org/1999/xlink" width="640" height="640">
	<path fill="#227C9D" transform="translate(0 -0.00195312)" d="M354.973 496.58C375.905 496.649 390.861 487.909 407.969 478.225L409.091 478.597L408.436 524.245L425.305 524.25C429.1 524.256 433.228 523.89 436.904 524.887L437.412 525.022C457.867 530.582 468.248 565.443 452.656 566.214L377.144 566.29C359.277 566.256 364.867 557.58 362.969 544.12L354.973 496.58Z"/>
	<path fill="#227C9D" transform="translate(0 -0.00195312)" d="M231.784 476.656C234.984 476.699 238.583 480.656 241.378 482.52C249.02 487.616 275.629 498.367 284.761 495.566L275.704 559.688C274.742 567.733 267.487 566.32 261.95 566.315L187.188 566.289C172.837 565.806 181.699 532.213 202.589 525.128C206.652 523.75 211.548 524.245 215.82 524.237L231.748 524.171L231.784 476.656Z"/>
	<path fill="#FFCB77" transform="translate(0 -0.00195312)" d="M193.813 212.942C178.931 190.126 172.669 157.519 172.521 130.476C172.375 104.01 180.433 98.7566 204.419 102.235C226.89 105.493 247.19 111.072 262.456 129.066C264.76 131.782 267.133 134.73 268.537 138.03C246.375 142.929 216.362 180.035 208.864 200.021C202.633 216.631 208.687 209.658 193.813 212.942Z"/>
	<path fill="#FFCB77" transform="translate(0 -0.00195312)" d="M372.846 136.652C384.442 112.635 414.292 104.806 438.594 101.872C449.423 100.564 459.698 99.7342 465.278 110.938L465.502 111.382C469.194 118.885 468.359 141.575 466.94 149.844L465.728 158.887C462.033 181.877 457.485 192.699 448.274 213.582L435.431 211.83C424.841 180.461 409.892 159.87 381.36 141.134C378.751 139.421 375.975 137.168 372.846 136.652Z"/>
	<path fill="#17C3B2" transform="translate(0 -0.00195312)" d="M268.537 138.03L272.052 141.787C275.26 128.27 279.885 114.941 281.338 101.061C282.112 93.6727 281.591 85.7043 281.565 78.2558L285.156 79.3396C295.133 83.6131 304.607 104.419 309.154 114.708C310.66 106.447 311.2 98.9305 309.258 90.6464L306.275 77.166C317.317 81.5971 330.581 104.083 334.727 114.166L343.399 98.5875C350.724 85.6988 352.733 88.2586 357.303 101.165C361.852 114.013 363.903 127.467 367.916 140.439C369.737 139.341 371.295 138.092 372.846 136.652C375.975 137.168 378.751 139.421 381.36 141.134C409.892 159.87 424.841 180.461 435.431 211.83L448.274 213.582C462.058 218.471 473.996 224.835 481.426 237.955C466.746 236.516 458.74 234.866 442.861 236.871C446.965 239.08 450.685 240.865 454.739 242.968C467.249 249.458 474.645 257.124 478.716 270.31C474.81 270.349 470.727 270.026 466.945 271.124C469.239 275.746 473.565 279.519 477.146 283.164L491.214 297.734C500.659 308.279 507.395 320.177 513.324 332.954C503.399 327.292 478.589 320.342 466.253 320.205C470.249 325.083 475.348 329.118 479.62 333.809C492.36 347.797 503.041 365.85 507.168 384.359L490.861 370.17C486.908 366.772 478.957 358.756 473.506 358.229C472.334 360.002 474.987 364.638 475.672 366.331L479.427 376.061C485.685 393.316 491.839 413.822 489.471 432.46C480.22 427.463 467.738 415.279 460.37 412.123C460.502 434.421 461.921 452.237 452.773 473.366C446.572 487.689 445.995 483.843 441.197 473.032L435.465 461.104C433.449 456.991 431.685 452.76 428.521 449.387C425.496 456.838 422.688 465.638 416.229 470.926C412.388 474.07 409.538 473.175 409.091 478.597L407.969 478.225C390.861 487.909 375.905 496.649 354.973 496.61C343.095 491.053 339.653 502.603 339.652 486.674L340.662 465.031C333.451 474.397 330.595 481.284 326.941 492.355C320.428 512.09 318.928 505.715 313.979 492.491L307.099 476.284C305.506 472.72 303.873 467.639 300.873 465.144C300.431 467.295 300.614 469.602 300.608 471.794L300.586 484.409C300.574 489.719 302.201 494.84 296.423 494.923L287.658 495.074C286.689 495.123 285.585 495.032 284.761 495.605C275.629 498.367 249.02 487.616 241.378 482.52C238.583 480.656 234.984 476.699 231.536 476.656L231.227 476.553C222.931 473.146 215.262 455.905 212.441 448.28C208.872 454.157 205.609 460.084 202.678 466.309C200.038 471.916 198.21 479.599 192.897 483.271C180.081 469.117 180.169 429.619 180.509 411.94C178.787 414.764 153.855 430.826 150.874 432.293C148.4 415.278 156.889 387.63 162.498 372.031L167.627 358.567C162.417 359.815 159.053 362.345 155.006 365.697L142.969 376.212C139.978 378.862 137.073 381.626 133.511 383.493C136.212 364.177 150.425 345.79 162.656 331.489L168.79 324.861C170.161 323.426 171.672 322.086 172.611 320.321L172.344 319.871C163.248 319.849 135.135 328.562 127.469 332.086C133.206 318 141.651 305.482 152.075 294.479C155.162 291.221 171.271 276.143 171.88 273.125C170.392 270.963 163.998 270.597 161.298 269.626L162.473 265.888C169.67 247.971 183.809 244.214 198.886 237.722C194.215 236.417 189.481 236.682 184.673 236.654L159.568 237.586L160.357 235.678C165.281 225.37 183.86 216.33 193.813 212.942C208.687 209.658 202.633 216.631 208.864 200.021C216.362 180.035 246.375 142.929 268.537 138.03Z"/>
	<path fill="#227C9D" transform="translate(0 -0.00195312)" d="M394.676 302.355C406.282 302.418 420.1 300.153 430.312 307.177C442.983 315.891 433.912 333.548 426.809 342.822C393.958 385.714 319.56 393.941 270.361 378.851C246.669 371.584 207.883 349.592 204.818 322.149C202.598 302.259 233.829 303.31 247.403 302.328C267.571 322.159 290.091 338.02 319.888 337.76C350.911 337.489 372.483 321.826 394.676 302.355Z"/>
	<path fill="#FFE2B3" transform="translate(0 -0.00195312)" d="M247.403 302.328C238.609 292.41 232.651 281.039 230.633 267.834C221.551 208.386 276.535 150.912 337.344 163.052C364.307 168.435 388.674 189.853 400.785 214.355C413.713 240.51 415.156 279.481 394.676 302.355C372.483 321.826 350.911 337.489 319.888 337.76C290.091 338.02 267.571 322.159 247.403 302.328Z"/>
	<path fill="#682427" transform="translate(0 -0.00195312)" d="M318.351 225.438C358.063 223.332 362.828 284.057 321.949 288.647C281.813 290.388 277.47 229.668 318.351 225.438Z"/>
	<path fill="#FEFEFE" transform="translate(0 -0.00195312)" d="M312.151 246.094C319.594 244.425 325.353 258.372 316.594 261.31C307.414 261.459 303.064 250.259 312.151 246.094Z"/>
	<path fill="#FEFEFE" transform="translate(0 -0.00195312)" d="M328.223 232.56C340.108 233.476 344.674 246.833 332.258 250.351C319.31 250.38 316 235.519 328.223 232.56Z"/>
</svg>
