<?xml version="1.0" encoding="utf-8" ?>
<svg xmlns="http://www.w3.org/2000/svg" xmlns:xlink="http://www.w3.org/1999/xlink" width="640" height="640">
	<path fill="#E76F51" d="M139.606 424.541C140.586 423.529 141.757 423.103 142.874 422.376C142.173 432.741 145.964 441.993 156.094 445.557L156.547 445.72C160.67 447.169 165.921 447.259 170.156 446.297L170.644 446.191C182.451 443.532 182.995 430.47 194.325 431.564C190.282 441.359 189.621 452.07 184.246 461.406C178.054 472.16 164.237 481.568 152.035 474.154C136.949 464.99 138.33 440.22 139.606 424.541Z"/>
	<path fill="#E76F51" d="M446.308 430.06C453.409 431.402 469.734 457.81 489.968 441.963C496.207 437.076 497.749 430.662 498.774 423.22C499.518 423.314 500.014 423.806 500.612 424.237C501.604 440.447 503.722 473.855 480.781 476.925L480.268 476.998C458.367 479.815 448.882 445.444 445.063 430.292L446.308 430.06Z"/>
	<path fill="#264653" d="M335.359 128.722C339.423 112.331 354.443 94.7753 368.411 86.3816C382.94 77.6503 398.337 74.8566 415.059 75.0083L415.051 93.2207C387.018 93.3106 361.424 105.445 352.927 133.615C349.766 134.107 338.158 129.983 335.359 128.722Z"/>
	<path fill="#264653" d="M287.301 133.525C281.651 115.805 266.543 101.203 248.826 95.8988C240.997 93.5551 233.104 93.3403 225.013 93.2602L224.805 74.8651C259.383 75.4294 285.854 87.099 301.893 120.527C302.965 122.761 303.902 125.877 305.395 127.784L305.671 128.119C304.157 130.785 290.071 133.451 287.301 133.525Z"/>
	<path fill="#F4A261" d="M259.512 524.134L259.782 523.901C264.565 524.196 279.353 522.424 281.562 522.874L281.989 522.943C289.045 524.343 295.528 529.551 298.921 530.249C307.854 536.975 306.891 549.987 306.99 559.785C306.592 560.151 306.464 560.026 305.922 560.025L215.351 560.184C215.184 555.701 214.76 550.34 215.552 545.938C217.456 535.358 226.838 525.882 237.606 524.65C244.682 523.84 252.105 525.226 259.145 524.193L259.512 524.134Z"/>
	<path fill="#E9C46A" d="M241.273 449.586C238.559 438.789 238.66 425.896 248.323 418.798C249.496 427.994 266.482 435.841 268.611 440.072C273.143 443.034 278.193 443.892 283.008 446.015C284.36 445.892 285.434 445.583 286.531 446.545L286.917 446.915C294.225 446.696 301.757 449.27 308.025 452.917L308.491 453.711L308.395 457.791C309.218 463.971 309.121 470.165 309.116 476.371L309.099 509.682C309.193 520.203 307.092 523.039 298.921 530.249C295.528 529.551 289.045 524.343 281.989 522.943L281.562 522.874C279.353 522.424 264.565 524.196 259.782 523.901L259.512 523.882L258.939 523.454C248.944 513.605 241.48 465.482 241.273 449.586Z"/>
	<path fill="#F4A261" d="M283.008 446.015C284.36 445.892 285.434 445.583 286.531 446.545L286.917 446.915C286.804 447.868 286.649 448.615 286.321 449.517L283.008 446.015Z"/>
	<path fill="#264653" d="M286.917 446.915C294.225 446.696 301.757 449.27 308.025 452.917L308.491 453.711L308.395 457.791L306.773 460.467C297.634 462.1 290.013 458.117 286.321 449.517C286.649 448.615 286.804 447.868 286.917 446.915Z"/>
	<path fill="#264653" d="M265.937 470.697C281.737 470.719 283.657 489.784 268.74 493.576C253.9 495.106 250.055 473.43 265.937 470.697Z"/>
	<path fill="#264653" d="M241.273 449.586C238.559 438.789 238.66 425.896 248.323 418.798C249.496 427.994 266.482 435.841 268.611 440.072L268.328 440.261C266.286 441.668 265.433 443.754 264.244 445.855C257.818 457.207 250.557 454.146 241.273 449.586Z"/>
	<path fill="#F4A261" d="M391.254 419.054C399.935 420.086 400.572 438.033 399.611 444.452L398.967 447.877C399.963 464.378 388.323 517.202 378.944 524.468L393.074 524.512C396.73 524.511 400.589 524.314 404.209 524.861C421.932 527.537 425.646 543.605 425.369 558.378L425.301 560.012L333.22 560.105C331.057 551.324 333.755 540.099 338.264 532.613L340.955 528.435C331.198 522.244 331.845 515.306 332.465 505.093C332.775 499.985 332.086 495.124 331.923 490.057L331.721 469.266C331.673 466.191 331.122 462.71 331.647 459.707L330.717 454.614C332.219 449.005 348.538 441.297 352.699 449.084C353.053 448.449 369.826 441.061 373.185 438.808C379.75 431.843 386.482 427.636 391.254 419.054Z"/>
	<path fill="#264653" d="M330.717 454.614C332.219 449.005 348.538 441.297 352.699 449.084C352.384 455.474 349.404 460.325 342.812 461.303L342.28 461.387C338.157 462.006 335.466 461.147 331.642 459.707L330.717 454.614Z"/>
	<path fill="#264653" d="M371.536 470.35C388.184 468.606 389.194 490.351 374.765 493.071C358.021 492.757 356.792 474.384 371.536 470.35Z"/>
	<path fill="#264653" d="M391.254 419.054C399.935 420.086 400.572 438.033 399.611 444.452L398.967 447.877C395.412 453.207 389.246 454.855 383.282 452.323C377.499 449.866 375.365 444.241 373.185 438.808C379.75 431.843 386.482 427.636 391.254 419.054Z"/>
	<path fill="#E9C46A" d="M213.22 256.154L219.748 248.456L220.744 250.51C221.719 252.467 224.951 259.366 221.094 259.222L220.625 259.534C219.553 259.534 218.099 260.508 217.266 261.172C216.768 260.19 216.046 255.681 214.847 257.188L215.115 257.676C215.923 259.17 216.285 260.756 216.73 262.383C223.796 257.029 232.487 261.165 234.384 269.739C236.036 262.92 226.641 261.436 229.377 260.228L230.104 260.539C231.738 259.678 234.07 259.257 235.918 259.015C238.093 258.73 241.203 257.958 241.094 260L240.784 260.312C240.783 261.033 240.056 267.598 239.534 268.125L239.652 268.464C241.055 273.73 236.835 295.8 235.926 301.875L232.057 329.375C231.514 333.712 232.13 338.159 231.581 342.465C229.586 344.759 228.614 348.571 227.534 351.356L206.813 396.996C201.762 408.163 197.979 419.884 194.325 431.564C182.995 430.47 182.451 443.532 170.644 446.191L170.156 446.297C165.921 447.259 160.67 447.169 156.547 445.72L156.094 445.557C145.964 441.993 142.173 432.741 142.874 422.376C141.757 423.103 140.586 423.529 139.684 424.541C139.625 420.775 140.606 416.281 141.17 412.53C145.072 386.564 154.066 356.296 165.376 332.388C166.533 326.379 170.399 320.603 173.957 315.765C176.917 306.257 203.997 264.546 213.22 256.154Z"/>
	<path fill="#264653" d="M216.73 262.383C223.796 257.029 232.487 261.165 234.384 269.739C234.562 291.52 200.725 279.439 216.73 262.383Z"/>
	<path fill="#264653" d="M221.203 292.542C235.059 291.783 236.717 313.657 222.469 315.094C208.384 314.315 206.472 296.11 221.203 292.542Z"/>
	<path fill="#264653" d="M173.957 315.765C183.299 313.456 192.937 326.561 187.824 334.72C183.185 342.121 167.14 343.427 165.495 333.264L165.376 332.388C166.533 326.379 170.399 320.603 173.957 315.765Z"/>
	<path fill="#264653" d="M165.876 362.26C181.301 361.29 183.731 384.297 168.016 386.372C151.61 386.054 150.975 365.221 165.876 362.26Z"/>
	<path fill="#E9C46A" d="M404.335 228.875C412.306 234.72 423.901 251.297 429.654 259.312C432.358 262.208 434.736 265.57 437.113 268.74L449.697 286.61C454.834 294.394 460.794 302.712 464.015 311.498C466.823 315.292 469.51 319.398 470.844 323.971C474.231 328.832 476.179 334.809 478.388 340.273C486.792 361.062 500.141 400.192 500.397 423.188L500.612 424.237C500.014 423.806 499.518 423.314 498.774 423.22C497.749 430.662 496.207 437.076 489.968 441.963C469.734 457.81 453.409 431.402 446.308 430.06L445.063 430.292C443.039 422.431 441.05 414.511 438.011 406.968C430.975 389.502 421.35 373.431 414.448 355.261C411.485 347.461 410.12 338.934 407.902 330.889C407.482 329.363 407.467 327.416 406.842 326.023L406.453 326.486L406.281 326.387C405.366 317.867 405.468 310.17 404.718 301.934C403.919 293.165 402.192 284.278 400.407 275.656C395.172 266.377 399.613 248.364 396.966 244.629L401.574 235.536C402.633 233.377 403.802 231.235 404.335 228.875Z"/>
	<path fill="#264653" d="M417.648 292.567C432.015 291.21 433.928 311.504 419.224 314.566C405.175 315.678 402.396 297.436 417.648 292.567Z"/>
	<path fill="#264653" d="M406.525 272.584C407.065 259.618 417.881 255.74 427.337 263.358C438.415 278.891 411.442 291.955 406.525 272.584Z"/>
	<path fill="#264653" d="M470.844 323.971C470.54 328.432 468.397 333.041 464.062 334.928C450.721 340.738 440.03 316.988 456.231 310.873C459.193 309.755 461.271 310.287 464.015 311.498C466.823 315.292 469.51 319.398 470.844 323.971Z"/>
	<path fill="#264653" d="M470.23 359.455C485.802 358.611 488.707 379.476 473.76 383.465C457.877 384.699 454.829 363.459 470.23 359.455Z"/>
	<path fill="#F4A261" d="M446.308 430.06L447.063 430.038C454.181 429.568 468.626 420.658 467.784 412.132L467.493 409.548C466.641 405.82 464.153 402.281 460.921 400.214L460.516 399.965C465.405 401.308 467.071 404.361 470.034 408.045C473.841 412.78 479.853 406.778 486.271 409.207L486.719 409.391C495.107 412.778 496.247 421.219 500.397 423.188L500.612 424.237C500.014 423.806 499.518 423.314 498.774 423.22C497.749 430.662 496.207 437.076 489.968 441.963C469.734 457.81 453.409 431.402 446.308 430.06Z"/>
	<path fill="#E76F51" d="M237.196 228.366C237.962 236.597 247.361 255.516 253.147 260.292L260.039 265.822L260.152 266.09C266.903 282.444 266.521 294.037 285.941 303.103C287.318 303.746 289.027 304.328 290.218 305.258C293.266 305.999 296.975 305.323 299.984 304.607L301.025 304.845C295.211 329.85 333.875 338.387 338.942 313.477C341.724 299.799 335.337 307.661 352.086 305.876L354.483 305.094C366.288 300.687 373.883 287.388 377.106 275.851L378.733 269.062C378.966 267.982 379.092 266.578 379.602 265.607L379.78 265.331L396.966 244.629C399.613 248.364 395.172 266.377 400.407 275.656C402.192 284.278 403.919 293.165 404.718 301.934C405.468 310.17 405.366 317.867 406.281 326.387L406.453 326.486L407.769 358.365C407.744 380.343 404.21 394.485 393.015 413.268C391.909 415.123 390.205 416.911 391.254 419.054C386.482 427.636 379.75 431.843 373.185 438.808C369.826 441.061 353.053 448.449 352.699 449.084C348.538 441.297 332.219 449.005 330.717 454.614L330.553 453.594C325.924 454.145 309.823 453.274 308.491 453.727L308.025 452.917C301.757 449.27 294.225 446.696 286.917 446.915L286.531 446.545C285.434 445.583 284.36 445.892 283.008 446.015C278.193 443.892 273.143 443.034 268.611 440.072C266.482 435.841 249.496 427.994 248.323 418.798C248.879 416.506 245.711 412.29 244.69 410.33C229.616 381.375 232.574 371.956 231.588 342.465C232.13 338.159 231.514 333.712 232.057 329.375L235.926 301.875C236.835 295.8 241.055 273.73 239.652 268.464L239.534 268.125C240.056 267.598 240.783 261.033 240.784 260.312L241.094 260C241.203 257.958 238.093 258.73 235.918 259.015C234.07 259.257 231.738 259.678 230.104 260.539L229.377 260.228C226.641 261.436 236.036 262.92 234.384 269.739C232.487 261.165 223.796 257.029 216.73 262.383C216.285 260.756 215.923 259.17 215.115 257.676L214.847 257.188C216.046 255.681 216.768 260.19 217.266 261.172C218.099 260.508 219.553 259.534 220.625 259.534L221.094 259.222C224.951 259.366 221.719 252.467 220.744 250.51L219.748 248.456L213.22 256.154C214.404 254.192 216.004 252.321 217.398 250.492L226.805 239.019C229.981 235.407 233.336 231.242 237.196 228.366Z"/>
	<path fill="#264653" d="M279.972 363.496C291.912 362.762 294.831 381.545 282.039 383.925C268.784 382.4 267.38 366.028 279.972 363.496Z"/>
	<path fill="#264653" d="M361.311 403.159C373.513 401.828 380.026 416.778 366.594 421.865C352.171 424.858 349.269 407.63 361.311 403.159Z"/>
	<path fill="#264653" d="M316.298 365.361C329.762 365.348 334.538 380.233 321.988 384.997C309.258 387.789 304.226 370.581 316.298 365.361Z"/>
	<path fill="#264653" d="M254.651 324.423C267.208 323.807 270.559 340.121 257.481 343.773C242.138 345.35 242.301 327.543 254.651 324.423Z"/>
	<path fill="#264653" d="M382.538 325.084C396.825 323.296 399.158 340.882 386.781 344.738C373.001 345.19 369.928 329.987 382.538 325.084Z"/>
	<path fill="#264653" d="M273.805 403.201C284.574 402.157 289.831 411.826 285.775 418.934C284.47 421.22 282.276 421.955 279.886 422.517C277.946 422.596 275.734 422.73 273.885 422.093L273.438 421.927C263.572 418.344 264.975 406.7 273.805 403.201Z"/>
	<path fill="#264653" d="M318.999 406.941C330.816 406.131 336.937 424.343 321.556 426.783C307.034 427.587 306.827 409.43 318.999 406.941Z"/>
	<path fill="#264653" d="M355.685 363.517C369.723 362.096 371.997 379.009 360.569 384.265C347.382 386.1 343.846 367.798 355.685 363.517Z"/>
	<path fill="#264653" d="M290.218 305.258C293.266 305.999 296.975 305.323 299.984 304.607L301.025 304.845C295.211 329.85 333.875 338.387 338.942 313.477C341.724 299.799 335.337 307.661 352.086 305.876L352.314 306.482C353.502 312.175 352.459 324.299 349.498 328.77C339.274 344.211 313.049 346.107 298.576 336.277C289.272 329.957 286.146 315.122 290.218 305.258Z"/>
	<path fill="#2A9D8F" d="M237.196 228.366C238.656 225.596 231.493 219.829 229.803 217.972L214.924 200.384C202.12 184.73 191.509 168.751 183.54 149.99C179.223 139.827 171.004 121.717 192.154 128.315C210.515 134.044 235.977 146.305 252.609 156.6C261.889 145.49 274.016 138.716 287.301 133.525C290.071 133.451 304.157 130.785 305.671 128.119C315.263 128.909 324.068 126.792 335.359 128.722C338.158 129.983 349.766 134.107 352.927 133.615C366.721 137.724 378.45 145.793 387.985 156.478L388.192 156.237C392.606 151.451 440.342 131.499 447.274 129.131C469.342 121.59 461.593 138.71 456.464 150.442C450.778 163.446 443.838 175.712 435.61 187.283L409.868 219.234C407.393 222.27 404.343 224.654 404.335 228.875C403.802 231.235 402.633 233.377 401.574 235.536L396.966 244.629L379.78 265.331L379.602 265.607C379.092 266.578 378.966 267.982 378.733 269.062L377.106 275.851C373.883 287.388 366.288 300.687 354.483 305.094L352.086 305.876C335.337 307.661 341.724 299.799 338.942 313.477C333.875 338.387 295.211 329.85 301.025 304.845L299.984 304.607C296.975 305.323 293.266 305.999 290.218 305.258C289.027 304.328 287.318 303.746 285.941 303.103C266.521 294.037 266.903 282.444 260.152 266.09L260.039 265.822L253.147 260.292C247.361 255.516 237.962 236.597 237.196 228.366Z"/>
	<path fill="#E9C46A" d="M260.039 265.822C259.676 262.866 259.054 259.864 258.825 256.907C256.746 230.03 267.868 197.02 291.645 182.741C312.59 170.162 342.666 173.189 359.723 191.156C380.165 212.689 380.451 238.24 379.819 265.331L379.602 265.607C379.092 266.578 378.966 267.982 378.733 269.062L377.106 275.851C373.883 287.388 366.288 300.687 354.483 305.094L352.086 305.876C335.337 307.661 341.724 299.799 338.942 313.477C333.875 338.387 295.211 329.85 301.025 304.845L299.984 304.607C296.975 305.323 293.266 305.999 290.218 305.258C289.027 304.328 287.318 303.746 285.941 303.103C266.521 294.037 266.903 282.444 260.152 266.09L260.039 265.822Z"/>
	<path fill="#264653" d="M341.703 204.429C354.966 203.735 359.348 222.565 347.792 226.869C339.588 227.157 333.667 220.308 335.165 211.979L335.247 211.562C335.956 207.802 338.07 205.682 341.703 204.429Z"/>
	<path fill="#264653" d="M294.15 204.094C307.908 203.296 308.26 222.34 296.697 226.391C281.501 227.692 282.706 208.823 294.15 204.094Z"/>
	<path fill="#264653" d="M310.977 242.32L328.886 242.237C331.802 242.261 336.026 241.899 338.715 243.027C362.456 252.984 349.983 271.285 337.075 285.303C333.981 288.662 330.978 292.065 327.252 294.748C317.445 300.667 310.281 292.985 303.574 286.177C296.426 278.921 285.333 267.782 288.004 256.492L288.105 256.094C290.904 244.688 300.508 242.876 310.977 242.32Z"/>
</svg>
