<?xml version="1.0" encoding="utf-8" ?>
<svg xmlns="http://www.w3.org/2000/svg" xmlns:xlink="http://www.w3.org/1999/xlink" width="640" height="640">
	<path fill="#FFC8DD" d="M196.934 92.2063C223.136 56.3937 277.156 132.415 280.289 156.714L280.539 159.247C266.638 168.291 258.263 181.685 247.504 193.77C247.288 167.671 234.049 140.984 218.598 120.75L201.593 99.8906C199.776 97.4252 198.645 94.674 196.934 92.2063Z"/>
	<path fill="#FFC8DD" d="M361.955 158.828L362.387 154.596C366.386 132.762 389.323 102.861 407.475 90.3812C420.76 81.2475 434.128 77.7585 444.195 93.1821L444.072 93.412C441.708 97.7731 438.456 101.326 435.226 105.043L427.132 114.958C408.144 140.068 398.26 162.764 394.206 193.509L380.94 177.035C376.778 171.681 372.459 165.311 366.801 161.45L366.347 161.147C364.925 160.182 363.524 159.507 361.955 158.828Z"/>
	<path fill="#FFAFCC" d="M444.195 93.1821C454.732 107.83 457.565 123.675 457.533 141.627C457.486 168.63 446.36 194.854 423.766 210.784L421.837 212.069C417.96 214.582 413.463 216.362 408.978 217.402C407.928 214.16 405.394 210.948 403.555 208.094L394.206 193.509C398.26 162.764 408.144 140.068 427.132 114.958L435.226 105.043C438.456 101.326 441.708 97.7731 444.072 93.412L444.195 93.1821Z"/>
	<path fill="#FFAFCC" d="M196.934 92.2063C198.645 94.674 199.776 97.4252 201.593 99.8906L218.598 120.75C234.049 140.984 247.288 167.671 247.504 193.77C243.335 198.9 233.614 211.323 231.53 217.661C220.522 219.073 205.399 202.349 199.844 194.424C178.739 164.318 175.727 122.8 196.934 92.2063Z"/>
	<path fill="#CDB4DB" d="M393.611 351.093L394.351 350.785C408.338 344.401 420.414 320.851 422.553 306.514C422.767 305.083 422.78 303.247 423.346 301.936L423.554 301.488C446.087 327.651 446.93 378.591 440.986 410.221C439.974 415.609 439.144 422.744 436.698 427.634C432.327 436.371 426.855 425.716 423.61 422.551C421.752 420.739 419.612 419.318 417.416 417.957C426.048 442.621 422.318 480.787 413.09 504.539C420.435 505.838 427.761 506.288 433.819 511.169L434.252 511.51C439.034 515.336 441.943 520.349 442.824 526.406L442.907 526.946C444.212 536.042 438.975 547.414 428.906 548.695C424.377 549.271 419.472 548.934 414.894 548.934L361.053 548.93C356.246 548.929 351.179 549.272 346.406 548.81C335.907 547.795 335.585 504.643 335.617 496.273C335.662 484.511 335.626 471.828 339.962 460.71C348.637 451.981 359.62 444.417 363.694 432.201L363.872 431.652C365.736 426.016 365.307 419.978 366.713 414.254L366.843 413.75C368.232 408.087 375.35 409.641 379.775 408.671C390.246 406.376 395.937 384.887 396.436 376.239C396.899 368.205 395.376 358.99 393.611 351.093Z"/>
	<path fill="#CDB4DB" d="M303.204 462.521C305.168 470.142 305.498 477.558 305.521 485.386L305.313 506.825C304.805 516.156 303.369 525.647 301.654 534.828C298.312 552.716 293.531 549.011 278.554 548.997L224.512 548.99C220.177 548.995 215.24 549.497 211.01 548.606L210.625 548.52C204.332 547.191 198.496 541.633 197.505 535.194L197.432 534.688C195.314 521.023 203.706 508.978 217.388 506.273C220.854 505.587 224.194 505.291 227.556 504.085C216.144 478.331 216.652 446.754 222.327 419.405C218.357 421.821 215.313 426.852 212.315 430.279C202.069 441.993 196.743 396.643 196.047 386.469C194.21 359.599 196.401 321.142 215.164 301.164C217.371 319.628 225.947 336.397 240.672 348.055L249.589 354.566C249.155 357.196 248.25 359.232 247.523 361.719C244.426 372.311 245.864 382.362 248.769 392.729C254.654 413.731 256.567 407.245 273.965 407.8C275.73 423.228 275.214 439.865 288.594 450.572C294.396 455.215 298.415 456.316 303.204 462.521Z"/>
	<path fill="#BDE0FE" d="M280.539 159.247C293.02 152.897 307.991 151.783 321.737 151.786C338.625 151.789 346.117 154.06 361.955 158.828C363.524 159.507 364.925 160.182 366.347 161.147L366.801 161.45C372.459 165.311 376.778 171.681 380.94 177.035L394.206 193.509L403.555 208.094C405.394 210.948 407.928 214.16 408.978 217.402C410.495 222.131 413.007 226.388 414.97 230.938C423.746 251.286 425.434 270.982 423.728 292.812C423.595 294.519 422.723 300.145 423.527 301.488L423.346 301.936C422.78 303.247 422.767 305.083 422.553 306.514C420.414 320.851 408.338 344.401 394.351 350.785L393.611 351.093C395.376 358.99 396.899 368.205 396.436 376.239C395.937 384.887 390.246 406.376 379.775 408.671C375.35 409.641 368.232 408.087 366.843 413.75L366.713 414.254C365.307 419.978 365.736 426.016 363.872 431.652L363.694 432.201C359.62 444.417 348.637 451.981 339.962 460.71C317.726 478.124 324.048 478.848 303.204 462.521C298.415 456.316 294.396 455.215 288.594 450.572C275.214 439.865 275.73 423.228 273.965 407.8C256.567 407.245 254.654 413.731 248.769 392.729C245.864 382.362 244.426 372.311 247.523 361.719C248.25 359.232 249.155 357.196 249.589 354.566L240.672 348.055C225.947 336.397 217.371 319.628 215.164 301.164C216.854 298.587 215.121 291.126 215.043 288.125C214.573 270.011 217.131 252.036 224.12 235.19C226.505 229.443 229.933 223.654 231.53 217.661C233.614 211.323 243.335 198.9 247.504 193.77C258.263 181.685 266.638 168.291 280.539 159.247Z"/>
	<path fill="#171730" d="M333.999 300.476C336.13 306.143 328.23 305.559 325.682 307.457C325.659 306.393 325.836 305.992 325.107 305.182C328.621 304.201 331.024 302.492 333.999 300.476Z"/>
	<path fill="#51287B" d="M278.118 339.649L278.475 339.21C278.531 338.514 278.51 338.255 278.906 337.659L279.695 338.408C279.07 339.277 279.312 340.733 279.338 341.742C279.77 358.666 284.385 364.763 302.473 366.907C316.773 368.602 336.511 369.028 349.941 364.644L351.234 364.2L351.37 364.899C345.609 368.562 333.086 369.334 326.145 369.381C301.531 369.547 278.085 372.039 278.118 339.649Z"/>
	<path fill="#FFC8DD" d="M268.895 239.647L268.125 239.375C267.799 238.92 267.59 238.751 267.343 238.201L267.109 237.655C266.833 237.057 266.662 236.43 266.372 235.849L265.859 234.842C262.633 238.113 263.318 239.109 266.89 242.278L264.294 239.985C255.424 228.601 267.322 212.152 281.093 214.66L282.88 214.994C283.692 215.208 284.572 215.642 284.978 216.38L284.072 217.59C270.91 216.287 261.338 227.251 268.895 239.647Z"/>
	<defs>
		<linearGradient id="gradient_0" gradientUnits="userSpaceOnUse" x1="361.40903" y1="229.28746" x2="376.68024" y2="221.76419">
			<stop offset="0" stop-color="#D8F1FB"/>
			<stop offset="1" stop-color="white"/>
		</linearGradient>
	</defs>
	<path fill="url(#gradient_0)" d="M364.495 217.848C362.382 215.789 357.541 215.245 354.688 214.534L355.145 214.445C358.333 213.728 361.033 213.322 364.381 214.291L364.89 214.433C385.077 220.197 383.476 241.496 369.637 244.173L368.876 243.211C379.316 234.932 375.37 223.84 364.788 218.015L364.495 217.848Z"/>
	<path fill="#171730" d="M368.876 243.211C347.805 256.17 335.421 217.253 364.495 217.848L364.788 218.015C375.37 223.84 379.316 234.932 368.876 243.211Z"/>
	<path fill="#51287B" d="M357.647 234.233C352.203 234.97 351.908 226.645 357.333 226.278C354.429 229.559 354.258 231.314 357.647 234.233Z"/>
	<path fill="#A2D2FF" d="M357.333 226.278C365.493 221.31 368.073 236.491 357.647 234.233C354.258 231.314 354.429 229.559 357.333 226.278Z"/>
	<path fill="#171730" d="M268.895 239.647C261.338 227.251 270.91 216.287 284.072 217.59C307.159 226.608 285.977 259.303 268.895 239.647Z"/>
	<path fill="#CDB4DB" d="M279.522 229.557C281.557 230.169 283.43 230.806 285.54 231.18C283.302 232.155 279.548 233.061 279.522 229.557Z"/>
	<path fill="#BDE0FE" d="M279.522 229.557C277.34 222.869 284.241 221.871 288.031 227.086C287.38 228.652 286.839 230.02 285.54 231.18C283.43 230.806 281.557 230.169 279.522 229.557Z"/>
	<path d="M278.114 339.649L276.698 332.851C290.14 337.626 300.422 344.203 315.316 346.944L314.631 307.779C313.656 307.436 312.45 306.889 311.406 306.85L310.781 306.893C309.507 305.514 308.756 303.442 308.322 301.624L308.194 301.044C312.567 305.121 315.142 305.663 321.076 305.46L325.107 305.286C325.836 305.992 325.659 306.393 325.682 307.457L325.278 346.865L329.239 346.173C338.241 344.984 347.666 340.809 355.912 337.065C366.114 332.434 363.64 330.941 363.119 340.842C362.537 351.907 362.582 360.129 351.37 364.899L351.234 364.2C362.962 360.531 361.59 348.158 362.919 338.246L341.754 346.799C319.97 353.996 299.498 348.439 279.695 338.408L278.906 337.659C278.51 338.255 278.531 338.514 278.475 339.21L278.114 339.649Z"/>
	<path fill="#FFAFCC" d="M279.549 338.408C299.498 348.439 319.97 353.996 341.754 346.799L362.919 338.246C361.59 348.158 362.962 360.531 351.234 364.2L349.941 364.644C336.511 369.028 316.773 368.602 302.473 366.907C284.385 364.763 279.77 358.666 279.338 341.742C279.312 340.733 279.07 339.277 279.549 338.408Z"/>
	<path fill="#FFC8DD" d="M308.194 301.044C299.315 288.198 283.004 275.341 286.927 258.594C287.282 257.079 288.154 253.649 289.524 252.907C301.07 246.659 315.606 246.016 328.385 246.133C334.909 246.193 344.487 246.979 348.96 252.63C366.153 274.349 334.783 291.549 334.021 300.071L333.999 300.476C331.024 302.492 328.621 304.201 325.107 305.182L321.076 305.46C315.142 305.663 312.567 305.121 308.194 301.044Z"/>
	<path fill="#A2D2FF" d="M249.589 354.566L265.342 361.369C273.531 364.56 282.199 366.503 282.931 378.089C283.313 384.133 281.218 387.481 283.059 395.429C285.983 395.674 288.872 395.389 291.788 395.162C292.115 397.115 292.328 401.084 293.432 402.729C295.173 405.325 302.808 405.639 305.277 404.26C307.035 403.278 308.85 400.91 310.44 399.537C317.454 402.884 313.6 413.634 315.798 422.48L316.225 422.64C324.9 424.904 324.85 418.701 324.895 412.967L324.955 401.202C328.944 401.197 335.758 402.91 338.893 401.972L339.219 401.863C343.354 400.532 343.005 394.948 347.104 394.537C359.782 393.264 358.671 392.418 357.428 380.85C356.068 368.191 355.304 369.389 366.953 364.415L376.748 359.885C382.395 357.072 387.841 353.596 393.611 351.093C395.376 358.99 396.899 368.205 396.436 376.239C395.937 384.887 390.246 406.376 379.775 408.671C375.35 409.641 368.232 408.087 366.843 413.75L366.713 414.254C365.307 419.978 365.736 426.016 363.872 431.652L363.694 432.201C359.62 444.417 348.637 451.981 339.962 460.71C317.726 478.124 324.048 478.848 303.204 462.521C298.415 456.316 294.396 455.215 288.594 450.572C275.214 439.865 275.73 423.228 273.965 407.8C256.567 407.245 254.654 413.731 248.769 392.729C245.864 382.362 244.426 372.311 247.523 361.719C248.25 359.232 249.155 357.196 249.589 354.566Z"/>
</svg>
