<?xml version="1.0" encoding="utf-8" ?>
<svg xmlns="http://www.w3.org/2000/svg" xmlns:xlink="http://www.w3.org/1999/xlink" width="512" height="512">
	<defs>
		<linearGradient id="gradient_0" gradientUnits="userSpaceOnUse" x1="199.7354" y1="523.72101" x2="246.08687" y2="579.39124">
			<stop offset="0" stop-color="#B6E60A"/>
			<stop offset="1" stop-color="#008A54"/>
		</linearGradient>
	</defs>
	<path fill="url(#gradient_0)" transform="scale(0.8 0.8)" d="M219.264 525.886C231.251 525.817 239.296 525.965 250.467 531.593L250.5 531.689C253.185 532.825 256.506 536.001 259.451 535.591C267.435 538.381 274.526 547.02 271.566 555.75L270.898 557.42C268.486 563.094 263.49 564.729 257.915 564.779L220.668 564.799L196.265 564.787C191.791 564.774 184.88 565.992 180.908 563.592L180.469 563.322C171.048 557.749 175.109 546.521 181.11 539.899C191.14 528.834 205.196 526.46 219.264 525.886Z"/>
	<defs>
		<linearGradient id="gradient_1" gradientUnits="userSpaceOnUse" x1="550.09003" y1="419.1423" x2="392.64722" y2="350.20813">
			<stop offset="0" stop-color="#50AA2B"/>
			<stop offset="1" stop-color="#2E9C52"/>
		</linearGradient>
	</defs>
	<path fill="url(#gradient_1)" transform="scale(0.8 0.8)" d="M438.569 244.747C448.925 248.123 462.981 262.317 471.066 270.557L504.296 305.802C503.959 306.97 503.427 308.198 503.98 309.377L504.114 309.609L503.241 309.466C504.414 312.392 506.671 314.989 508.573 317.48L514.902 326.208C519.45 332.813 541.337 367.077 538.305 372.522C536.211 376.281 527.904 372.268 523.013 372.093C525.501 376.757 528.548 380.856 530.598 385.79C536.831 400.793 541.071 418.987 541.318 435.332C541.362 438.226 542.037 442.134 539.641 444.278C536.165 444.278 514.809 432.955 510.521 430.518C518.034 438.346 522.78 449.657 522.493 460.585C522.257 469.582 511.781 464.568 506.88 463.241C506.87 481.558 493.223 504.704 478.417 514.39C475.585 507.657 473.643 500.462 471.039 493.62C467.215 483.576 454.897 454.556 446.306 448.067L446.354 447.969C448.306 436.597 452.744 426.047 454.174 413.711C454.703 413.737 454.751 413.838 455.142 414.219C466.241 425.026 474.743 438.975 489.367 445.597C492.371 440.43 492.969 433.849 493.728 428.041C497.464 399.431 490.348 359.294 474.615 334.103C469.907 326.564 463.131 317.632 456.86 311.304C447.515 301.876 450.232 309.503 447.674 292.86C446.037 282.202 439.735 281.704 438.858 278.931C438.423 277.555 438.74 275.291 438.736 273.784L438.741 258.918C438.741 256.092 437.564 246.585 438.569 244.747Z"/>
	<defs>
		<linearGradient id="gradient_2" gradientUnits="userSpaceOnUse" x1="90.456711" y1="390.05844" x2="215.1189" y2="377.38239">
			<stop offset="0" stop-color="#BCE202"/>
			<stop offset="1" stop-color="#1F9742"/>
		</linearGradient>
	</defs>
	<path fill="url(#gradient_2)" transform="scale(0.8 0.8)" d="M131.162 311.739C131.96 309.646 134.376 307.76 135.938 306.18L159.585 281.818C164.905 276.324 194.404 244.495 201.172 244.217C201.176 246.457 201.566 244.486 201.868 243.588L201.426 276.935C201.409 282.627 191.768 284.355 190.79 294.67C190.226 300.623 190.992 305.234 186.108 309.682C187.269 312.489 183.18 326.901 183.14 332.534L186.534 392.779C186.889 401.046 186.244 409.277 186.238 417.52C186.588 423.089 187.876 428.799 189.296 434.193L192.344 444.441C192.691 445.504 193.718 447.634 193.666 448.689C182.983 458.642 170.944 487.743 166.218 501.221L162.839 511.25C162.118 513.446 161.472 516.271 160.146 518.151C145.031 505.518 136.439 482.752 131.519 464.443C122.821 466.875 112.771 472.058 113.685 457.117C114.264 447.669 120.855 439.704 124.583 431.348L112.087 437.755C108.263 439.489 102.34 442.004 98.0753 442.361C94.2733 442.679 95.1847 431.882 95.4982 429.749C98.038 412.47 106.238 386.694 117.222 372.383L116.412 372.607C109.364 374.342 98.2559 378.544 102.28 367.422C107.355 353.395 117.764 336.441 126.331 324.291C127.96 321.981 137.411 311.824 137.16 309.972C135.144 310.489 133.086 310.934 131.162 311.739Z"/>
	<path fill="#D4D700" transform="scale(0.8 0.8)" d="M180.573 315.378L186.108 309.682C187.269 312.489 183.18 326.901 183.14 332.534L186.534 392.779C186.889 401.046 186.244 409.277 186.238 417.52L185.781 414.733C184.925 415.071 184.355 415.941 183.755 416.619L179.169 421.715C173.521 427.602 156.388 445.189 148.547 444.705C143.294 439.801 150.727 394.573 152.085 387.656C157.678 359.172 162.825 338.869 180.573 315.378Z"/>
	<path fill="#007F5F" transform="scale(0.8 0.8)" d="M131.162 311.739C127.178 313.786 122.115 315.918 117.656 316.465L117.227 315.938C116.969 310.474 119.619 304.583 121.636 299.586L132.721 271.504L129.488 272.227C121.569 273.712 112.724 268.364 118.517 261.799C122.356 257.449 127.865 253.998 132.276 250.161C139.321 244.034 144.533 236.756 149.888 229.188C147.744 230.244 128.308 237.951 131.319 230.903C138.485 214.129 159.739 193.134 176.176 186.584C170.025 182.959 141.037 167.869 150.64 162.655C155.723 159.895 172.538 167.698 177.908 169.693L188.033 173.029C182.401 169.046 176.045 165.065 171.362 159.973C181.271 153.716 204.052 149.204 215.147 149.025C199.545 137.324 196.467 113.675 196.184 95.489C196.055 87.2019 198.13 88.3876 204.918 89.7288C225.588 93.8131 253.935 113.697 264.628 132.53C264.759 114.412 268.919 98.2822 277.203 82.1875C279.187 78.3326 280.963 74.148 284.67 71.6731C298.393 75.8402 312.058 91.1772 320.298 102.059C327.892 92.692 336.156 84.2302 345.887 77.0898C354.983 70.4148 356.12 70.1726 361.424 79.4877C371.062 96.4138 375.44 113.911 375.054 133.339L377.436 129.656C389.943 111.077 414.934 93.7716 436.477 89.63C444.806 88.0289 444.056 90.6839 443.68 97.9877C442.541 120.109 441.347 134.359 424.453 149.392C437.692 147.503 457.656 154.952 469.784 160.451L449.32 173.531L469.488 166.748C474.048 165.088 478.985 162.785 483.82 162.142L484.219 162.092C494.575 160.591 490.287 168.579 485.326 172.8C478.694 178.443 471.087 182.318 463.423 186.309L473.871 191.541C483.012 196.995 507.179 221.669 509.975 232.812L509.531 233.39C503.173 233.611 495.96 231.125 490.327 228.305C491.542 232.13 504.846 247.214 507.673 249.599C512.053 253.295 529.039 262.758 521.737 270C518.212 273.495 512.331 272.66 507.725 272.756C508.84 275.026 509.437 277.732 510.435 280.112L519.028 300.899C520.535 304.79 522.226 308.869 523.025 312.969C524.052 318.233 521.205 316.762 517.422 315.364L507.938 311.377L504.114 309.609L503.98 309.377C503.427 308.198 503.959 306.97 504.296 305.802L471.066 270.557C462.981 262.317 448.925 248.123 438.007 244.747C435.687 222.51 424.414 197.612 407.47 183.094C383.42 162.487 348.331 167.802 328.512 191.497C325.442 195.097 323.179 198.99 320.723 203C308.729 187.18 297.262 173.516 275.723 170.58C233.792 164.865 206.839 205.183 202.021 242.321L201.868 243.588C201.566 244.486 201.176 246.457 201.172 244.217C194.404 244.495 164.905 276.324 159.585 281.818L135.938 306.18C134.376 307.76 131.96 309.646 131.162 311.739Z"/>
	<path fill="#2B9348" transform="scale(0.8 0.8)" d="M504.296 305.802C505.843 307.567 507.414 309.017 507.938 311.377L504.114 309.609L503.98 309.377C503.427 308.198 503.959 306.97 504.296 305.802Z"/>
	<defs>
		<linearGradient id="gradient_3" gradientUnits="userSpaceOnUse" x1="491.4249" y1="358.28833" x2="183.53778" y2="379.27774">
			<stop offset="0" stop-color="#A9CE05"/>
			<stop offset="1" stop-color="#FFFF2B"/>
		</linearGradient>
	</defs>
	<path fill="url(#gradient_3)" transform="scale(0.8 0.8)" d="M201.57 243.588L202.021 242.321C206.839 205.183 233.792 164.865 275.723 170.58C297.262 173.516 308.729 187.18 320.723 203C323.179 198.99 325.442 195.097 328.512 191.497C348.331 167.802 383.42 162.487 407.47 183.094C424.414 197.612 435.687 222.51 438.007 244.747C437.564 246.585 438.741 256.092 438.741 258.918L438.736 273.784C438.74 275.291 438.423 277.555 438.858 278.931C439.735 281.704 446.037 282.202 447.674 292.86C450.232 309.503 447.515 301.876 456.86 311.304C463.131 317.632 469.907 326.564 474.615 334.103C490.348 359.294 497.464 399.431 493.728 428.041C492.969 433.849 492.371 440.43 489.367 445.597C474.743 438.975 466.241 425.026 455.142 414.219C454.751 413.838 454.703 413.737 454.174 413.711C452.744 426.047 448.306 436.597 446.354 447.969L446.306 448.067L421.052 525.669C425.227 525.987 429.775 525.941 433.862 526.837C443.683 527.879 453.37 532.681 459.67 540.372C466.303 548.468 467.421 562.793 455.323 564.803C453.367 565.128 451.184 564.921 449.198 564.905L395.38 564.807L382.082 564.737C379.207 564.716 375.322 565.103 372.707 563.861L371.493 563.281C369.736 562.454 368.649 561.725 367.284 560.326C359.284 548.055 374.834 541.088 378.241 533.878L378.404 533.518C375.298 519.37 368.248 506.428 358.219 496.017C349.042 486.49 345.004 486.845 334.764 497.181C330.036 501.953 325.677 507.409 319.563 510.413C316.446 507.987 313.725 505.164 311.049 502.27L305.529 496.025C302.211 492.035 301.392 490.77 296.294 490.073L285.469 489.033L285.402 490.026C286.72 492.576 283.255 494.769 281.646 496.336C273.505 504.269 258.66 526.256 259.451 535.591C256.506 536.001 253.185 532.825 250.5 531.689L250.467 531.593C239.296 525.965 231.251 525.817 219.264 525.895L198.458 463.158C197.134 458.28 196.002 453.194 193.666 448.689C193.718 447.634 192.691 445.504 192.344 444.441L189.296 434.193C187.876 428.799 186.588 423.089 186.238 417.52C186.244 409.277 186.889 401.046 186.534 392.779L183.14 332.534C183.18 326.901 187.269 312.489 186.108 309.682C190.992 305.234 190.226 300.623 190.79 294.67C191.768 284.355 201.409 282.627 201.426 276.935L201.57 243.588ZM350.811 245.912C361.083 263.181 387.865 253.806 393.178 235.223C393.711 233.358 393.772 231.407 394.212 229.529L394.303 229.155C394.458 229.943 394.52 230.441 394.381 231.25L394.609 231.484C395.313 228.998 395.165 223.329 394.062 220.781L393.884 219.834C393.592 219.274 393.531 218.669 393.278 218.125L391.735 215.483C391.194 214.671 390.566 214.036 390.153 213.125L390.345 212.72C390.861 211.595 391.08 212.015 392.031 212.966L392.264 212.5C391.308 211.285 391.404 211.099 391.406 209.528L391.716 209.062C392.342 208.095 392.412 207.546 392.344 206.403L392.653 205.938C392.653 204.52 392.675 200.903 391.562 200.156L391.403 198.75C389.452 195.247 388.85 191.429 384.998 189.377L384.062 188.673C383.579 188.321 383.031 188.08 382.498 187.814L382.021 187.571C377.81 185.469 364.337 183.831 360.938 186.097C359.722 186.097 357.952 186.475 356.875 187.034L354.845 187.648C354.339 187.817 353.911 188.043 353.438 188.284L350.157 189.914C349.161 190.413 348.092 191.072 347.188 191.722L344.844 193.275C341.753 195.335 338.405 198.024 336.564 201.252L335.991 201.937C335.676 202.311 335.428 202.717 335.159 203.125L334.253 204.464C327.135 215.511 328.229 231.798 331.226 244.013C331.801 246.357 332.232 249.555 334.528 250.868C335.413 251.375 350.388 251.911 351.51 251.516C352.859 251.043 350.827 247.426 350.811 245.912ZM269.318 216.67C263.01 218.647 258.173 222.928 256.534 229.375L256.436 229.748C253.783 240.633 266.373 255.509 277.144 248.202C285.91 242.256 288.963 230.625 283.009 221.68L282.787 221.366C279.168 216.845 275.032 215.834 269.318 216.67ZM258.997 211.306C240.626 222.925 247.663 254.196 268.162 258.63C277.875 260.731 280.33 256.27 285.096 248.838C288.126 244.114 291.612 239.43 292.709 233.787L293.149 230.492C293.063 227.053 292.602 224.778 291.088 221.707L289.844 222.544C287.165 225.033 288.318 223.425 285.469 224.375L285.078 223.359C285.25 222.153 285.089 219.852 283.906 219.181L282.787 221.366L283.009 221.68C288.963 230.625 285.91 242.256 277.144 248.202C266.373 255.509 253.783 240.633 256.436 229.748L256.534 229.375C258.173 222.928 263.01 218.647 269.318 216.67C267.546 214.54 270.327 216.381 265.652 213.214L265.396 213.037C264.315 212.485 263.615 211.55 262.783 210.664L261.406 210.854C260.553 211.129 259.893 211.217 258.997 211.306Z"/>
	<path fill="#FCFDF1" transform="scale(0.8 0.8)" d="M264.278 208.634C276.211 205.295 285.973 210.918 291.088 221.707L289.844 222.544C287.165 225.033 288.318 223.425 285.469 224.375L285.078 223.359C285.25 222.153 285.089 219.852 283.906 219.181L282.787 221.366C279.168 216.845 275.032 215.834 269.318 216.67C267.546 214.54 270.327 216.381 265.652 213.214L265.396 213.037C264.315 212.485 263.615 211.55 262.783 210.664L261.406 210.854C260.553 211.129 259.893 211.217 258.997 211.306C260.673 210.219 262.459 209.444 264.278 208.634Z"/>
	<path fill="#FFFF3F" transform="scale(0.8 0.8)" d="M289.708 254.254L289.813 253.557C291.839 250.707 304.295 242.285 308.034 241.252L308.421 241.15C310.208 240.659 311.961 240.659 313.799 240.622C317.447 243.978 321.745 248.092 320.335 253.472L289.708 254.254Z"/>
	<path transform="scale(0.8 0.8)" d="M269.318 216.67C275.032 215.834 279.168 216.845 282.787 221.366L283.009 221.68C288.963 230.625 285.91 242.256 277.144 248.202C266.373 255.509 253.783 240.633 256.436 229.748L256.534 229.375C258.173 222.928 263.01 218.647 269.318 216.67ZM275.371 222.031C269.662 225.687 273.414 240.163 279.531 236.505C285.201 232.858 282.866 219.949 275.371 222.031Z"/>
	<defs>
		<linearGradient id="gradient_4" gradientUnits="userSpaceOnUse" x1="293.04715" y1="307.04309" x2="347.31219" y2="303.48898">
			<stop offset="0" stop-color="#A13400"/>
			<stop offset="1" stop-color="#000802"/>
		</linearGradient>
	</defs>
	<path fill="url(#gradient_4)" transform="scale(0.8 0.8)" d="M346.366 282.093C344.738 299.389 331.777 318.829 318.628 330.217C316.126 325.012 313.971 324.018 311.018 319.786L310.885 319.719C302.529 312.046 292.222 293.087 291.403 282.48C297.233 284.768 300.559 294.821 313.42 297.283C327.682 300.774 337.155 291.727 346.366 282.093Z"/>
	<path fill="#80B918" transform="scale(0.8 0.8)" d="M320.335 253.623L349.448 253.785C349.347 255.95 347.3 281.177 346.366 282.093C337.155 291.727 327.682 300.774 313.42 297.283C300.559 294.821 297.233 284.768 291.403 282.48L290.394 281.719L291.328 281.484C291.383 280.986 291.446 280.551 291.345 280.053L291.097 279.062C289.81 276.612 289.534 272.176 289.534 269.375L289.222 268.906C289.27 266.878 289.232 265.459 287.8 265.469C289.812 261.954 288.381 256.143 289.708 254.391L320.335 253.623Z"/>
	<path fill="#BFD200" transform="scale(0.8 0.8)" d="M350.811 245.912C350.827 247.426 352.859 251.043 351.51 251.516C350.388 251.911 335.413 251.375 334.528 250.868C332.232 249.555 331.801 246.357 331.226 244.013C328.229 231.798 327.135 215.511 334.253 204.464L335.159 203.125C335.428 202.717 335.676 202.311 335.991 201.937L336.564 201.252C338.405 198.024 341.753 195.335 344.844 193.275L347.188 191.722C348.092 191.072 349.161 190.413 350.157 189.914L353.438 188.284C353.911 188.043 354.339 187.817 354.845 187.648L356.875 187.034C357.952 186.475 359.722 186.097 360.938 186.097C364.337 183.831 377.81 185.469 382.021 187.571L382.498 187.814C383.031 188.08 383.579 188.321 384.062 188.673L384.998 189.377C388.85 191.429 389.452 195.247 391.403 198.75L391.562 200.156C392.675 200.903 392.653 204.52 392.653 205.938L392.344 206.403C392.412 207.546 392.342 208.095 391.716 209.062L391.406 209.528C391.404 211.099 391.308 211.285 392.264 212.5L392.031 212.966C391.08 212.015 390.861 211.595 390.345 212.72L390.153 213.125C390.566 214.036 391.194 214.671 391.735 215.483L393.278 218.125C393.531 218.669 393.592 219.274 393.884 219.834L394.062 220.781C395.165 223.329 395.313 228.998 394.609 231.484L394.381 231.25C394.52 230.441 394.458 229.943 394.303 229.155L394.212 229.529C393.772 231.407 393.711 233.358 393.178 235.223C387.865 253.806 361.083 263.181 350.811 245.912ZM350.811 245.912C361.083 263.181 387.865 253.806 393.178 235.223C393.711 233.358 393.772 231.407 394.212 229.529L394.303 229.155C394.29 195.07 346.103 199.287 347.179 231.961C347.342 236.901 349.057 241.365 350.811 245.912Z"/>
	<path transform="scale(0.8 0.8)" d="M370.965 208.247C382.793 208.666 391.029 219.671 387.963 231.414L387.798 232.031C385.633 240.487 378.89 248.114 370.134 249.742C344.777 248.541 346.592 210.921 370.965 208.247ZM368.93 214.445C359.184 217.151 362.959 226.632 371.249 227.634C379.562 225.836 377.349 213.979 368.93 214.445Z"/>
</svg>
