<?xml version="1.0" encoding="utf-8" ?>
<svg xmlns="http://www.w3.org/2000/svg" xmlns:xlink="http://www.w3.org/1999/xlink" width="512" height="512">
	<path fill="#9A5C3C" transform="scale(0.8 0.8)" d="M444.669 82.0889L459.067 81.2325C458.788 107.245 452.566 141.758 434.152 161.837C431.654 159.762 427.234 152.579 424.574 149.464C435.327 136.589 441.431 117.997 443.273 101.562L444.669 82.0889Z"/>
	<path fill="#9A5C3C" transform="scale(0.8 0.8)" d="M205.623 161.186C202.375 157.859 200.166 153.717 197.835 149.732C185.41 128.491 181.496 105.189 181.53 81.0126C182.815 81.3355 184.319 81.1807 185.648 81.2561L196.486 81.8441C197.591 83.7644 197.464 85.5922 197.483 87.7551L197.573 95.9156C198.123 108.562 201.939 121.784 207.558 133.125L212.189 141.605C213.325 143.524 215.106 145.824 215.509 148.019L210.046 155.312C208.814 157.099 207.394 160.059 205.623 161.186Z"/>
	<path fill="#BD9079" transform="scale(0.8 0.8)" d="M196.486 81.8441C211.625 82.0459 234.171 89.7211 246.964 97.4044C252.587 100.781 257.398 104.929 262.724 108.678C252.034 115.526 241.743 122.799 232.297 131.316L219.639 143.887C218.542 144.999 216.81 147.264 215.509 148.019C215.106 145.824 213.325 143.524 212.189 141.605L207.558 133.125C201.939 121.784 198.123 108.562 197.573 95.9156L197.483 87.7551C197.464 85.5922 197.591 83.7644 196.486 81.8441Z"/>
	<path fill="#BD9079" transform="scale(0.8 0.8)" d="M377.97 108.608C396.391 92.9299 420.693 83.7386 444.73 82.0889L443.273 101.562C441.431 117.997 435.327 136.589 424.574 149.464L377.97 108.608Z"/>
	<path fill="#618498" transform="scale(0.8 0.8)" d="M442.932 308.844C460.914 323.327 486.002 368.573 495.566 388.68C504.992 408.497 518.694 435.037 502.387 455.236C494.373 465.161 473.43 469.569 461.406 466.205C447.812 462.401 438.203 452.426 428.528 442.716C431.425 423.625 429.778 390.232 425.716 371.969C423.605 362.476 420.325 353.126 416.852 344.055L410.316 328.448C416.599 326.017 423.668 324.452 429.325 320.679L429.608 320.486C434.776 317.708 440.534 314.432 442.932 308.844Z"/>
	<path fill="#618498" transform="scale(0.8 0.8)" d="M197.674 308.462C201.711 314.29 205.781 318.164 212.043 321.432L212.317 321.617C217.354 324.919 224.83 327.244 230.769 328.067C219.182 353.525 212.24 370.664 210.543 399.936L210.338 421.217C210.357 426.451 209.735 437.43 211.571 442.29L211.682 442.528C202.056 455.646 184.899 467.009 168.487 467.173C158.523 467.273 147.94 465.355 140.604 458.051C122.382 439.907 131.938 416.328 140.835 396.776C155.345 364.892 172.7 333.434 197.674 308.462Z"/>
	<path fill="#8ABCB5" transform="scale(0.8 0.8)" d="M406.643 298.205C412.762 306.853 418.274 318.055 429.608 320.486L429.325 320.679C423.668 324.452 416.599 326.017 410.316 328.448L416.852 344.055C420.325 353.126 423.605 362.476 425.716 371.969C429.778 390.232 431.425 423.625 428.528 442.716L426.67 456.577C424.963 466.226 422.102 476.284 418.258 485.342C417.376 487.42 416.159 489.702 415.68 491.897C421.417 494.181 427.757 494.984 433.669 496.855C453.978 503.282 471.683 521.359 471.626 543.431C471.605 551.914 467.626 556.94 458.48 557.202L388.851 557.201C376.989 557.219 368.229 557.813 364.369 543.428C362.927 538.052 362.126 532.464 361.121 526.991L356.645 504.219C355.811 500.172 356.011 495.571 353.358 492.207C351.672 493.82 350.02 495.532 348.125 496.897L347.802 497.137C342.396 500.994 296.55 502.053 292.116 495.635C290.146 494.184 288.496 492.215 286.818 490.438C284.801 496.546 283.809 502.895 282.46 509.172L277.916 529.862C274.424 547.594 275.121 557.077 254.849 557.181L189.866 557.236C181.862 557.25 172.414 558.415 169.378 548.679L169.019 547.597C168.526 545.921 168.605 543.777 168.629 542.041C168.925 519.92 188.394 501.539 208.75 496.16C213.9 494.799 219.261 494.419 224.323 492.815C224.342 492.016 223.842 491.127 223.548 490.372L214.833 462.762C212.974 455.364 213.213 449.415 211.8 442.893L211.716 442.528L211.571 442.29C209.735 437.43 210.357 426.451 210.338 421.217L210.543 399.936C212.24 370.664 219.182 353.525 230.769 328.067C224.83 327.244 217.354 324.919 212.317 321.617L212.043 321.432C214.043 319.712 216.69 318.637 218.763 316.906C224.836 311.832 229.392 305.006 234.091 298.715C246.874 312.277 260.742 318.69 278.865 312.484C280.689 313.429 282.463 315.482 284.145 316.76C290.316 321.45 297.885 325.93 305.6 327.346C309.48 328.769 314.268 328.82 318.344 328.671C338.894 327.921 346.749 322.995 362.88 312.8C364.205 311.962 372.516 316.094 378.86 315.144L379.375 315.062C385.844 314.061 394.623 310.433 399.59 305.844C402.161 303.469 403.84 300.513 406.643 298.205Z"/>
	<path fill="#ADD0CB" transform="scale(0.8 0.8)" d="M355.923 391.047C366.799 388.783 376.467 383.748 384.325 375.926C390.331 384.075 397.486 388.713 407.464 390.235L413.594 391.018C406.754 409.724 391.989 426.673 370.408 418.731C367.57 417.686 364.211 416.141 362.577 413.464C362.719 413.095 360.514 407.737 360.223 406.896C358.432 401.724 356.854 396.444 355.923 391.047Z"/>
	<path fill="#ADD0CB" transform="scale(0.8 0.8)" d="M292.116 495.635L292.762 494.844C292.814 493.633 292.785 492.681 292.388 491.53C288.012 478.837 285.469 466.022 283.261 452.813L278.406 413.875C274.055 416.876 269.522 419.234 264.237 420.058L263.793 420.124C246.122 422.888 233.647 407.993 228.774 392.698C242.929 389.191 249.546 386.902 258.55 375.659L265.605 381.896C284.768 396.627 305.895 392.863 320.992 375.432C323.206 376.731 325.3 379.354 327.316 381.04C334.515 387.06 343.464 391.067 352.94 391.309L356.713 402.304C358.365 406.64 361.073 411.252 361.841 415.805L360.405 436.349C359.5 444.739 357.839 453.107 356.327 461.406L350.736 489.712C351.642 490.488 352.683 491.221 353.358 492.207C351.672 493.82 350.02 495.532 348.125 496.897L347.802 497.137C342.396 500.994 296.55 502.053 292.116 495.635Z"/>
	<path fill="#CFDCD8" transform="scale(0.8 0.8)" d="M262.724 108.678C269.407 104.103 277.239 101.119 284.494 97.542C288.361 95.6352 291.964 93.2422 295.938 91.5589L296.277 91.4086C301.513 89.1661 305.738 92.7852 310.091 95.279C311.348 89.9783 310.965 77.8179 318.815 79.7543C322.395 80.6375 327.668 92.5332 332.094 97.0703C334.021 95.2132 335.985 93.3108 338.438 92.1668L338.795 91.9972C345.231 89.1441 362.791 100.433 368.467 103.373C371.309 104.844 375.71 106.472 377.97 108.608L424.574 149.464C427.234 152.579 431.654 159.762 434.152 161.837L434.219 162.455C442.554 171.427 458.032 188.518 460.098 201.173C458.986 203.952 457.338 205.8 454.525 207.023L452.75 207.695C449.653 208.848 445.826 209.075 442.556 209.631C451.874 225.952 476.763 238.924 458.349 259.701C465.378 266.827 470.007 273.162 467.922 283.456L467.845 283.864C463.449 306.107 446.412 303.5 442.932 308.844C440.534 314.432 434.776 317.708 429.608 320.486C418.274 318.055 412.762 306.853 406.643 298.205C403.84 300.513 402.161 303.469 399.59 305.844C394.623 310.433 385.844 314.061 379.375 315.062L378.86 315.144C372.516 316.094 364.205 311.962 362.88 312.8C346.749 322.995 338.894 327.921 318.344 328.671C314.268 328.82 309.48 328.769 305.6 327.346C297.885 325.93 290.316 321.45 284.145 316.76C282.463 315.482 280.689 313.429 278.865 312.484C260.742 318.69 246.874 312.277 234.091 298.715C229.392 305.006 224.836 311.832 218.763 316.906C216.69 318.637 214.043 319.712 212.043 321.432C205.781 318.164 201.711 314.29 197.674 308.462C191.15 301.126 173.981 305.795 171.736 280.985L171.6 278.75C171.717 269.769 176.824 265.339 182.878 259.732C180.317 257.137 177.35 254.169 176.562 250.475L175.987 247.344C174.75 232.78 190.01 220.569 198.371 210.396C194.955 210.337 190.831 210.355 187.58 209.251L186.328 208.821C166.127 201.334 198.676 169.533 205.623 161.186C207.394 160.059 208.814 157.099 210.046 155.312L215.509 148.019C216.81 147.264 218.542 144.999 219.639 143.887L232.297 131.316C241.743 122.799 252.034 115.526 262.724 108.678Z"/>
	<path fill="#FEFEFE" transform="scale(0.8 0.8)" d="M372.351 155.126C388.651 154.337 400.158 166.006 397.307 182.981L397.228 183.438C395.488 193.956 387.167 201.784 376.804 203.794C360.056 206.442 352.438 197.82 350.688 181.761C349.156 167.694 358.191 156.455 372.351 155.126Z"/>
	<path fill="#161616" transform="scale(0.8 0.8)" d="M371.099 167.268C391.091 165.338 392.839 190.611 375.731 195.048C357.372 196.983 352.699 172.903 371.099 167.268Z"/>
	<path fill="#FEFEFE" transform="scale(0.8 0.8)" d="M263.342 155.139C272.33 154.581 282.439 158.667 287.404 166.389L287.656 166.794C292.349 174.121 288.295 187.324 284.943 194.511L284.709 195C283.135 198.333 279.589 200.834 276.213 202.111L275.709 202.298C273.237 203.241 270.869 203.645 268.273 204.04C262.88 204.173 257.879 203.839 253.173 200.868L252.812 200.637C245.651 196.157 239.5 184.075 240.811 175.945L240.894 175.469C242.866 163.671 251.311 155.963 263.342 155.139Z"/>
	<path fill="#161616" transform="scale(0.8 0.8)" d="M263.379 167.265C282.169 166.149 284.183 190.955 267.679 195.354C249.36 196.411 245.067 171.284 263.379 167.265Z"/>
	<path fill="#BD9079" transform="scale(0.8 0.8)" d="M296.724 206.286C291.502 200.336 291.164 191.073 291.628 183.493L291.803 181.719C295.055 152.934 338.838 147.326 347.163 178.125L347.292 178.565C348.979 184.585 347.818 203.367 343.999 206.7C343.873 206.789 335.241 205.304 334.161 205.224C322.935 204.388 307.578 204.33 296.724 206.286Z"/>
	<path fill="#BD9079" transform="scale(0.8 0.8)" d="M296.724 206.332C307.578 204.33 322.935 204.388 334.161 205.224C335.241 205.304 343.873 206.789 343.999 206.7C351.54 209.028 361.845 214.59 363.55 223.106C372.345 222.474 381.08 216.094 389.688 218.337L390.175 218.46C399.884 221.001 409.54 230.763 414.417 239.238C424.67 257.056 421.163 279.95 408.59 295.79L406.643 298.205C403.84 300.513 402.161 303.469 399.59 305.844C394.623 310.433 385.844 314.061 379.375 315.062L378.86 315.144C372.516 316.094 364.205 311.962 362.88 312.8C346.749 322.995 338.894 327.921 318.344 328.671C314.268 328.82 309.48 328.769 305.6 327.346C297.885 325.93 290.316 321.45 284.145 316.76C282.463 315.482 280.689 313.429 278.865 312.484C260.742 318.69 246.874 312.277 234.091 298.715C212.333 276.015 215.516 233.819 245.897 220.673C260.047 214.55 272.525 225.42 276.731 224.133L277.011 223.326C280.244 214.518 288.651 209.987 296.724 206.332Z"/>
	<path fill="#462F2F" transform="scale(0.8 0.8)" d="M314.422 278.139L314.844 276.597L326.818 275.81L326.698 276.228C323.643 288.541 332.967 296.797 345 296.759C347.816 296.751 352.246 295.83 354.531 297.721L354.862 297.992C363.219 305.05 334.242 311.236 320.413 295.462C313.267 302.993 301.55 308.111 291.094 305.694L290.585 305.584C286.669 304.697 281.358 300.898 286.094 296.934C289.188 296.021 293.032 296.666 296.269 296.488C308.582 295.811 314.372 289.727 314.422 278.139Z"/>
	<path fill="#9A5C3C" transform="scale(0.8 0.8)" d="M296.724 206.332C307.578 204.33 322.935 204.388 334.161 205.224C335.241 205.304 343.873 206.789 343.999 206.7C351.54 209.028 361.845 214.59 363.55 223.106L363.422 223.41C363.048 226.568 363.445 229.779 363.044 232.931C360.582 252.274 347.222 264.996 330.492 273.957C329.378 274.553 328.044 275.495 326.818 275.762L314.844 276.597L314.422 278.139C314.294 275.62 314.476 276.17 312.226 275.144L306.25 272.165C286.806 261.988 277.297 246.622 276.82 224.133L277.011 223.326C280.244 214.518 288.651 209.987 296.724 206.332Z"/>
</svg>
