<?xml version="1.0" encoding="utf-8" ?>
<svg xmlns="http://www.w3.org/2000/svg" xmlns:xlink="http://www.w3.org/1999/xlink" width="512" height="512">
	<path fill="#9B9C9B" transform="scale(0.8 0.8)" d="M220.354 150.655C218.401 144.429 213.949 138.454 210.69 132.807L187.178 92.4044C183.468 85.7984 188.043 80.7326 195.459 82.3812C201.101 83.6354 206.744 86.2495 212.083 88.4302L247.188 104.047C253.782 107.142 260.113 110.57 266.925 113.198C262.367 117.88 258.191 122.838 254.068 127.903C243.567 140.799 238.559 150.702 220.354 150.655Z"/>
	<path fill="#C5C6C6" transform="scale(0.8 0.8)" d="M363.695 119.188L405 99.0214C412.806 95.4441 443.673 80.0472 450.638 82.5174C459.829 85.7765 451.045 96.7595 448.037 101.288L426.07 140.208C424.167 143.567 422.416 147.363 419.726 150.166C406.413 147.012 405.026 145.141 394.776 135.847C386.536 128.376 375.024 120.415 363.695 119.188Z"/>
	<path fill="#23233B" transform="scale(0.8 0.8)" d="M140.312 343.548L140.636 343.78C142.445 345.043 144.248 345.792 146.406 346.274L146.805 346.369C158.452 348.913 165.978 343.148 175.332 338.913C172.122 346.221 169.87 353.801 167.31 361.348L165.631 366.433C165.504 366.862 165.136 367.712 165.178 368.104C159.376 383.568 156.633 399.292 154.278 415.625L149.724 446.25C147.794 459.892 143.505 504.893 119.967 497.288L119.441 497.123C116.62 496.195 114.623 494.523 112.847 492.194L116.719 489.256C132.547 477.221 130.042 450.318 130.036 432.368L130.047 403.527C130.127 396.089 135.457 347.187 140.312 343.548Z"/>
	<path fill="#2C4268" transform="scale(0.8 0.8)" d="M141.119 284.146L141.052 284.459C140.206 288.042 137.934 291.54 136.602 295.005C130.799 310.096 127.6 330.931 140.312 343.548C135.457 347.187 130.127 396.089 130.047 403.527L130.036 432.368C130.042 450.318 132.547 477.221 116.719 489.256L112.847 492.194C108.691 485.826 106.279 477.714 104.496 470.375C91.5663 417.167 98.8985 359.447 123.002 310.532C127.957 300.478 132.969 291.828 141.119 284.146Z"/>
	<path fill="#23233B" transform="scale(0.8 0.8)" d="M228.718 484.347C230.414 485.016 231.869 486.307 233.509 487.139C239.288 490.073 248.192 490.692 254.25 488.595C261.958 485.928 265.456 477.562 268.711 470.766C276.32 474.144 285.24 477.39 293.612 477.699C292.167 485.82 291.624 494.059 289.855 502.144C288.08 510.262 285.081 518.082 283.542 526.228L281.479 540.298C280.236 550.408 277.855 561.221 266.25 564.07L265.814 564.183C262.746 564.935 259.173 564.665 256.027 564.67L222.634 564.663C210.699 564.64 200.333 564.562 195.471 551.606L194.595 548.431C194.101 546.134 194.217 543.552 194.614 541.25L194.674 540.865C196.672 528.824 204.239 526.11 213.992 522.05L230.726 515.085L228.718 484.347Z"/>
	<path fill="#23233B" transform="scale(0.8 0.8)" d="M407.261 459.676L409.273 509.497C409.36 516.698 409.597 514.992 416.199 517.764C427.797 522.636 442.982 526.438 445.773 540.651C447.739 550.667 441.003 562.317 430.64 564.209C426.258 565.009 421.472 564.668 417.02 564.676L382.343 564.678C356.139 564.625 360.555 545.145 356.362 526.875C353.477 514.305 348.665 502.119 344.863 489.799C361.641 489.359 360.378 477.316 367.796 465.978C374.785 471.227 375.62 480.842 383.454 479.82C391.255 478.802 399.194 473.287 403.335 466.669C404.605 464.639 405.39 461.962 406.878 460.131L407.261 459.676Z"/>
	<path fill="#2C4268" transform="scale(0.8 0.8)" d="M498.911 284.457C513.912 298.771 521.985 317.769 528.455 337.188C543.342 381.864 547.273 431.07 533.878 476.663C532.105 482.698 530.13 488.831 525.93 493.643C524.047 495.288 522.489 496.629 520.041 497.441C497.324 504.973 493.589 464.383 491.456 450.944L486.194 415.965C483.883 400.175 481.349 384.226 476.133 369.109C475.056 362.907 466.38 341.174 463.595 336.113L464.481 336.644C472.011 341.024 486.971 347.844 496.104 345.225L496.449 345.116C512.616 337.141 508.794 302.177 501.511 289.182C500.712 287.757 499.633 286.326 499.032 284.814L498.911 284.457Z"/>
	<path fill="#23233B" transform="scale(0.8 0.8)" d="M476.133 369.109C475.056 362.907 466.38 341.174 463.595 336.113L464.481 336.644C472.011 341.024 486.971 347.844 496.104 345.225L496.449 345.116L496.908 345.316C497.837 345.69 498.992 345.657 499.982 345.703C508.399 354.508 510.68 405.628 510.619 417.704L510.173 447.219C510.148 458.821 511.479 476.662 519.914 485.677C522.481 488.42 525.33 489.633 525.93 493.643C524.047 495.288 522.489 496.629 520.041 497.441C497.324 504.973 493.589 464.383 491.456 450.944L486.194 415.965C483.883 400.175 481.349 384.226 476.133 369.109Z"/>
	<path fill="#007BBA" transform="scale(0.8 0.8)" d="M183.252 382.812L183.103 382.553C182.484 381.5 181.754 380.666 180.922 379.779L188.906 369.387C193.701 363.547 198.52 358.11 201.827 351.254C223.387 387.818 252.474 413.323 297.549 413.486L337.548 412.145C342.532 412.147 347.718 411.855 352.602 412.994L353.103 413.107C359.364 414.593 362.911 420.754 366.822 425.315C377.886 438.216 391.787 446.054 408.526 449.237C408.332 450.825 407.753 458.976 407.261 459.676L406.878 460.131C405.39 461.962 404.605 464.639 403.335 466.669C399.194 473.287 391.255 478.802 383.454 479.82C375.62 480.842 374.785 471.227 367.796 465.978C360.378 477.316 361.641 489.359 344.863 489.799C331.311 489.868 317.894 490.487 305.938 483.091C301.912 480.601 298.646 476.838 293.612 477.699C285.24 477.39 276.32 474.144 268.711 470.766C265.456 477.562 261.958 485.928 254.25 488.595C248.192 490.692 239.288 490.073 233.509 487.139C231.869 486.307 230.414 485.016 228.718 484.347L224.847 481.431C216.343 474.247 212.233 461.347 211.226 450.613C190.495 451.179 175.817 433.683 174.765 413.71C174.12 401.464 176.599 395.149 184.387 386.566L184.746 385.776C184.472 384.64 183.877 383.788 183.252 382.812Z"/>
	<path fill="#00A9E2" transform="scale(0.8 0.8)" d="M315.034 417.344C317.743 417.184 318.495 422.164 313.594 421.914L312.5 421.568C309.666 419.985 313.205 417.819 315.034 417.344Z"/>
	<path fill="#7CCDF4" transform="scale(0.8 0.8)" d="M266.925 113.198C283.175 100.458 311.241 88.8348 332.338 91.4394C342.407 92.6825 354.889 103.418 356.18 114.002C356.485 116.503 356.332 119.108 356.743 121.583C356.71 124.032 343.92 132.668 341.88 134.01C340.329 135.03 336.56 134.187 334.601 134.661L334.281 134.513C327.875 138.243 298.158 159.729 295.854 166.342L296.205 167.056L295.821 167.349C293.611 168.996 290.939 170.111 288.659 171.731C277.227 179.852 269.109 190.198 266.855 204.397L266.238 210.525C246.836 212.153 229.668 226.619 229.866 247.116C231.802 259.657 234.855 260.212 242.217 267.638C246.147 282.712 253.129 299.054 265.924 308.671C262.742 312.607 256.653 316.527 255.284 321.465L255.179 321.464C252.23 320.678 249.207 319.317 246.349 318.235C220.226 308.35 198.094 286.005 192.913 257.969C191.753 251.691 191.794 245.58 192.237 239.249C185.373 240.792 178.104 241.462 171.582 244.238C149.074 253.816 154.692 275.562 144.163 281.564L143.927 281.695C127.379 247.612 148.537 206.078 187.62 203.051C186.894 178.214 193.482 158.739 220.354 150.655C238.559 150.702 243.567 140.799 254.068 127.903C258.191 122.838 262.367 117.88 266.925 113.198Z"/>
	<path fill="#C5C6C6" transform="scale(0.8 0.8)" d="M229.866 247.116C229.698 245.284 229.959 244.182 228.63 242.859C227.115 237.71 227.485 232.187 227.49 226.882C227.523 192.537 237.063 173.032 264.833 152.635C282.303 139.803 312.332 131.159 334.281 134.513C327.875 138.243 298.158 159.729 295.854 166.342L296.205 167.056L295.821 167.349C293.611 168.996 290.939 170.111 288.659 171.731C277.227 179.852 269.109 190.198 266.855 204.397L266.238 210.525C246.836 212.153 229.668 226.619 229.866 247.116Z"/>
	<path fill="#00A9E2" transform="scale(0.8 0.8)" d="M143.927 281.695L144.163 281.564C154.692 275.562 149.074 253.816 171.582 244.238C178.104 241.462 185.373 240.792 192.237 239.249C191.794 245.58 191.753 251.691 192.913 257.969C198.094 286.005 220.226 308.35 246.349 318.235C249.207 319.317 252.23 320.678 255.179 321.464L255.284 321.465C275.117 332.532 284.71 357.122 311.195 362.027C335.166 366.466 351.68 350.12 370.649 338.652C382.797 331.309 395.837 324.899 407.49 316.833C410.076 320.575 413.384 323.938 416.405 327.338L429.604 342.256C433.687 346.824 458.956 377.432 458.444 382.969C457.957 383.319 457.571 383.598 456.992 383.77C452.964 386.111 458.8 389.846 461.211 392.969C467.122 400.626 467.095 413.317 464.353 422.188C459.005 439.492 449.396 444.85 432.611 447.589C424.74 448.873 416.508 449.587 408.526 449.237C391.787 446.054 377.886 438.216 366.822 425.315C362.911 420.754 359.364 414.593 353.103 413.107L352.602 412.994C347.718 411.855 342.532 412.147 337.548 412.145L297.549 413.486C252.474 413.323 223.387 387.818 201.827 351.254C198.52 358.11 193.701 363.547 188.906 369.387L180.922 379.779C181.754 380.666 182.484 381.5 183.103 382.553L183.252 382.812C183.877 383.788 184.472 384.64 184.746 385.776L184.387 386.566C183.103 386.396 181.6 387.663 180.264 388.019L177.698 388.899C164.828 392.414 166.976 373.409 165.335 368.457L165.178 368.104C165.136 367.712 165.504 366.862 165.631 366.433L167.31 361.348C169.87 353.801 172.122 346.221 175.332 338.913C165.978 343.148 158.452 348.913 146.805 346.369L146.406 346.274C144.248 345.792 142.445 345.043 140.636 343.78L140.312 343.548C127.6 330.931 130.799 310.096 136.602 295.005C137.934 291.54 140.206 288.042 141.052 284.459L141.119 284.146L143.927 281.695Z"/>
	<path fill="#BCE3FA" transform="scale(0.8 0.8)" d="M356.868 121.583L363.695 119.188C375.024 120.415 386.536 128.376 394.776 135.847C405.026 145.141 406.413 147.012 419.726 150.166C423.141 151.351 426.707 152.323 429.961 153.915C444.549 161.056 452.748 178.809 452.276 194.559C452.01 203.398 447.728 202.336 456.937 203.366C488.002 206.839 505.209 235.719 502.028 265.842C501.349 272.272 499.567 276.409 494.996 280.745L498.521 284.032C498.865 284.317 498.761 284.173 498.911 284.457L499.032 284.814C499.633 286.326 500.712 287.757 501.511 289.182C508.794 302.177 512.616 337.141 496.449 345.116L496.104 345.225C486.971 347.844 472.011 341.024 464.481 336.644L463.595 336.113C466.38 341.174 475.056 362.907 476.133 369.109L475.908 369.616C473.609 375.16 473.637 386.689 466.25 390.34C462.498 392.194 459.785 385.24 456.992 383.77C457.571 383.598 457.957 383.319 458.444 382.969C458.956 377.432 433.687 346.824 429.604 342.256L416.405 327.338C413.384 323.938 410.076 320.575 407.49 316.833C395.837 324.899 382.797 331.309 370.649 338.652C351.68 350.12 335.166 366.466 311.195 362.027C284.71 357.122 275.117 332.532 255.284 321.465C256.653 316.527 262.742 312.607 265.924 308.671C253.129 299.054 246.147 282.712 242.217 267.638C234.855 260.212 231.802 259.657 229.866 247.116C229.668 226.619 246.836 212.153 266.238 210.525L266.855 204.397C269.109 190.198 277.227 179.852 288.659 171.731C290.939 170.111 293.611 168.996 295.821 167.349L296.205 167.056L295.854 166.342C298.158 159.729 327.875 138.243 334.281 134.513L334.601 134.661C336.56 134.187 340.329 135.03 341.88 134.01C343.92 132.668 356.71 124.032 356.868 121.583Z"/>
	<path fill="#EBEBEB" transform="scale(0.8 0.8)" d="M348.102 268.263C351.341 266.252 364.268 270.716 368.383 271.295C379.13 272.806 390.408 271.532 399.531 265.325C399.298 270.595 394.264 281.826 391.684 286.244C385.044 297.618 375.017 306.338 363.854 313.021C334.148 330.804 304.833 331.465 275.366 314.291L268.722 310.156C267.931 309.673 266.822 308.841 265.924 308.671C253.129 299.054 246.147 282.712 242.217 267.638C264.714 279.461 287.971 265.526 293.185 267.769L293.465 268.731L348.102 268.263Z"/>
	<defs>
		<linearGradient id="gradient_0" gradientUnits="userSpaceOnUse" x1="341.38663" y1="278.41721" x2="347.77777" y2="283.3653">
			<stop offset="0" stop-color="#2B272C"/>
			<stop offset="1" stop-color="#435662"/>
		</linearGradient>
	</defs>
	<path fill="url(#gradient_0)" transform="scale(0.8 0.8)" d="M344.079 273.757C345.527 272.78 346.723 271.903 348.107 270.828C349.437 282.777 344.948 294.993 332.101 298.278C332.481 297.874 332.725 297.686 333.183 297.402C340.621 295.635 349.7 279.501 344.079 273.757Z"/>
	<path fill="#23233B" transform="scale(0.8 0.8)" d="M293.465 268.731L348.102 268.263L348.107 270.828C346.723 271.903 345.527 272.78 344.079 273.757C349.7 279.501 340.621 295.635 333.183 297.402C332.725 297.686 332.481 297.874 332.101 298.278L329.806 299.2C323.255 301.27 315.039 300.927 309.005 297.683C303.076 291.876 302.918 283.728 305.73 276.298C306.01 275.559 307.348 273.087 307.195 272.462C303.461 272.906 299.139 273.103 296.668 276.406C291.705 283.043 299.045 293.092 304.49 296.744L307.016 298.29L306.71 298.273C303.368 297.91 299.494 293.836 297.597 291.282C292.399 284.279 292.248 277.069 293.465 268.731Z"/>
	<path fill="#EBEBEB" transform="scale(0.8 0.8)" d="M333.183 297.402C338.514 290.426 338.734 280.092 333.815 272.822C337.299 272.789 340.719 272.679 344.079 273.757C349.7 279.501 340.621 295.635 333.183 297.402Z"/>
	<path fill="#7CCDF4" transform="scale(0.8 0.8)" d="M407.49 316.833L412.096 312.675C416.596 308.32 420.41 303.037 424.452 298.26C439.955 279.935 448.196 266.397 448.472 240.885L453.716 241.528C467.91 243.648 479.32 254.565 486.601 266.391C489.506 271.109 491.709 276.271 494.996 280.745L498.521 284.032C498.865 284.317 498.761 284.173 498.911 284.457L499.032 284.814C499.633 286.326 500.712 287.757 501.511 289.182C508.794 302.177 512.616 337.141 496.449 345.116L496.104 345.225C486.971 347.844 472.011 341.024 464.481 336.644L463.595 336.113C466.38 341.174 475.056 362.907 476.133 369.109L475.908 369.616C473.609 375.16 473.637 386.689 466.25 390.34C462.498 392.194 459.785 385.24 456.992 383.77C457.571 383.598 457.957 383.319 458.444 382.969C458.956 377.432 433.687 346.824 429.604 342.256L416.405 327.338C413.384 323.938 410.076 320.575 407.49 316.833Z"/>
	<defs>
		<linearGradient id="gradient_1" gradientUnits="userSpaceOnUse" x1="237.74651" y1="206.04083" x2="411.23685" y2="241.81421">
			<stop offset="0" stop-color="#8D8D8C"/>
			<stop offset="1" stop-color="#C4C3C3"/>
		</linearGradient>
	</defs>
	<path fill="url(#gradient_1)" transform="scale(0.8 0.8)" d="M334.281 134.513L334.601 134.661C363.404 136.127 393.043 160.453 406.256 184.725C413.217 197.513 413.789 210.837 413.689 225.061C413.66 229.082 414.148 239.024 411.326 242.333C411.216 244.203 411.078 245.974 410.697 247.812L410.595 248.319C409.016 255.807 403.993 259.796 399.531 265.325C390.408 271.532 379.13 272.806 368.383 271.295C364.268 270.716 351.341 266.252 348.102 268.351L293.465 268.408L293.185 267.769C287.971 265.526 264.714 279.461 242.217 267.638C234.855 260.212 231.802 259.657 229.866 247.116C229.668 226.619 246.836 212.153 266.238 210.525L266.855 204.397C269.109 190.198 277.227 179.852 288.659 171.731C290.939 170.111 293.611 168.996 295.821 167.349L296.205 167.056L295.854 166.342C298.158 159.729 327.875 138.243 334.281 134.513Z"/>
	<path fill="#EBEBEB" transform="scale(0.8 0.8)" d="M334.281 134.513L334.601 134.661C363.404 136.127 393.043 160.453 406.256 184.725C413.217 197.513 413.789 210.837 413.689 225.061C413.66 229.082 414.148 239.024 411.326 242.333C409.39 227.565 398.013 214.112 383.566 210.051L383.125 209.93C379.776 208.99 376.103 209.372 372.657 209.443C373.145 204.586 371.269 199.843 369.321 195.469C361.403 177.69 343.469 163.842 324.069 161.391C314.691 160.206 304.668 163.245 296.205 167.056L295.854 166.342C298.158 159.729 327.875 138.243 334.281 134.513Z"/>
</svg>
