<?xml version="1.0" encoding="utf-8" ?>
<svg xmlns="http://www.w3.org/2000/svg" xmlns:xlink="http://www.w3.org/1999/xlink" width="512" height="512">
	<path fill="#5A7664" transform="scale(0.8 0.8)" d="M229.484 162.046C223.337 156.814 217.522 139.531 218.957 131.016L219.03 130.625C219.566 127.428 221.414 125.167 222.989 122.437C230.223 109.908 227.995 91.9214 220.399 80.0162L216.36 74.3014L220.96 74.6989C245.445 77.5807 270.442 95.2459 285.329 114.063C284.934 115.908 283.162 116.26 281.687 117.271L275.514 121.946C268.487 127.51 261.25 134.198 255.667 141.209L255.466 141.393C245.158 150.912 242.102 155.45 229.484 162.046Z"/>
	<path fill="#5A7664" transform="scale(0.8 0.8)" d="M354.763 114.712C362.583 99.5798 387.55 83.6895 403.007 78.7714L414.75 75.4942C428.602 72.0935 420.772 77.4552 417.528 84.375C412.8 94.458 411.164 108.191 415.476 118.672C416.958 122.275 419.613 125.37 420.988 128.906C424.056 136.793 416.833 156.924 410.982 161.89C403.155 161.048 389.348 146.078 384.121 140.747C378.793 134.141 361.029 116.747 354.763 114.712Z"/>
	<path fill="#E2E0B9" transform="scale(0.8 0.8)" d="M385.381 447.719C389.944 450.247 397.508 451.27 402.548 451.621C404.448 451.753 407.106 451.436 408.862 452.046L415.357 449.124C415.284 470.105 411.459 491.131 405.064 511.082L405.528 511.446C401.037 513.108 396.05 513.828 391.357 514.733L351.551 520.579C349.472 520.762 347.285 520.806 345.28 521.414C350.031 509.58 351.273 484.626 349.766 472.679L348.702 468.148L348.237 464.8L385.381 447.719Z"/>
	<path fill="#A7B9A1" transform="scale(0.8 0.8)" d="M385.381 447.719C389.944 450.247 397.508 451.27 402.548 451.621C404.448 451.753 407.106 451.436 408.862 452.046L380.312 464.112C370.712 467.892 359.913 471.085 349.655 472.679L348.702 468.148L348.237 464.8L385.381 447.719Z"/>
	<path fill="#E2E0B9" transform="scale(0.8 0.8)" d="M257.686 448.902L292.896 464.576L291.742 470.012L291.169 473.487C289.55 485.079 290.219 497.405 292.36 508.876C293.16 513.163 294.653 517.255 295.165 521.595L243.85 513.699C240.933 513.049 237.871 512.484 235.092 511.381L232.007 501.138C227.915 485.301 224.371 466.308 224.441 449.762C227.827 451.184 231.128 453.248 234.717 454.07C242.749 453.325 249.919 450.267 257.686 448.902Z"/>
	<path fill="#A7B9A1" transform="scale(0.8 0.8)" d="M257.686 448.902L292.896 464.576L291.742 470.012L291.169 473.487C288.633 472.649 285.876 472.227 283.281 471.56L269.375 467.512C257.609 463.624 246.275 458.521 234.717 454.07C242.749 453.325 249.919 450.267 257.686 448.902Z"/>
	<path fill="#DD838D" transform="scale(0.8 0.8)" d="M295.165 521.595L297.729 525.583C302.495 532.827 297.307 542.338 289.371 544.063C284.204 545.186 278.7 545.415 273.438 546.036L230.372 550.082L208.767 550.248C204.436 550.242 198.721 550.878 194.629 549.702C173.244 543.556 174.46 522.229 191.41 512.711C204.499 505.362 221.239 507.465 235.092 511.381C237.871 512.484 240.933 513.049 243.85 513.699L295.165 521.595Z"/>
	<path fill="#DD838D" transform="scale(0.8 0.8)" d="M405.528 511.446C419.669 507.364 434.599 505.012 448.111 512.529C464.835 521.832 468.065 543.225 447.808 548.707L441.506 549.999C438.078 550.489 434.424 550.255 430.964 550.246L395.684 548.952L361.838 545.439C352.869 544.298 341.811 544.031 340.673 532.165C340.298 528.261 341.784 525.357 344.312 522.47L345.28 521.414C347.285 520.806 349.472 520.762 351.551 520.579L391.357 514.733C396.05 513.828 401.037 513.108 405.528 511.446Z"/>
	<path fill="#DD838D" transform="scale(0.8 0.8)" d="M183.308 290.886C181.692 295.645 179.036 300.152 176.862 304.688L168.267 324.728L148.02 384.052C146.997 387.336 146.098 390.839 144.371 393.84C138.865 403.405 125.965 407.271 116.513 401.261C106.604 394.96 107.727 382.107 109.116 372.013C114.721 331.281 133.578 288.061 166.915 262.344C175.641 255.612 185.132 250.724 194.561 245.165L194.592 261.555C194.591 268.234 194.29 265.58 191.187 271.073C190.003 273.167 182.831 288.85 183.308 290.886Z"/>
	<path fill="#DD838D" transform="scale(0.8 0.8)" d="M446.488 245.033C457.543 251.505 468.533 258.14 478.287 266.398C507.965 291.523 531.286 342.226 531.378 381.718C531.387 385.57 531.526 389.55 529.925 393.125C522.193 410.386 500.412 406.005 494.076 389.375C492.85 386.157 492.024 382.749 491.06 379.445L469.132 318.333C465.937 310.831 462.811 303.302 458.809 296.184C456.545 289.693 453.93 283.083 450.972 276.875L447.481 270.312C444.194 264.778 445.209 264.23 445.672 257.969C445.98 253.791 445.654 249.104 446.488 245.033Z"/>
	<defs>
		<linearGradient id="gradient_0" gradientUnits="userSpaceOnUse" x1="323.13248" y1="454.40323" x2="312.80679" y2="106.0025">
			<stop offset="0" stop-color="#FCDA6D"/>
			<stop offset="1" stop-color="#C6C695"/>
		</linearGradient>
	</defs>
	<path fill="url(#gradient_0)" transform="scale(0.8 0.8)" d="M285.329 114.063L286.094 114.639C304.962 104.561 327.684 102.058 347.518 111.351C349.838 112.437 352.307 114.061 354.763 114.712C361.029 116.747 378.793 134.141 384.121 140.747C389.348 146.078 403.155 161.048 410.982 161.89C437.13 179.619 446.982 214.678 446.448 245.033C445.654 249.104 445.98 253.791 445.672 257.969C445.209 264.23 444.194 264.778 447.481 270.312L450.972 276.875C453.93 283.083 456.545 289.693 458.809 296.184L458.778 296.503C458.526 300.044 459.974 304.438 460.586 307.976C466.171 340.236 463.818 377.751 450.431 407.633C444.788 420.231 428.759 443.215 415.357 449.124L408.862 452.046C407.106 451.436 404.448 451.753 402.548 451.621C397.508 451.27 389.944 450.247 385.381 447.719C412.584 431.356 418.791 398.458 418.783 369.222C418.776 343.833 415.082 309.265 405.435 285.301C404.631 277.804 391.154 260.467 387.276 252.741C385.278 248.762 383.17 238.596 380.183 237.453C379.912 237.228 379.444 234.574 379.3 234.062C378.212 230.205 376.244 226.802 374.966 223.076C370.764 216.037 363.775 204.801 357.099 200.158L355.739 199.228C340.111 189.066 307.027 193.988 289.888 197.609C286.993 198.314 284.262 199.512 281.647 200.921L267.166 214.142C266.827 214.471 266.955 214.353 266.495 214.646L266.056 215.08L257.606 239.277C249.125 250.504 237.203 271.839 234.164 284.726C225.604 310.732 221.49 339.527 221.467 366.796C221.443 395.383 225.488 422.822 249.13 442.549C251.88 444.844 254.841 446.747 257.686 448.902C249.919 450.267 242.749 453.325 234.717 454.07C231.128 453.248 227.827 451.184 224.441 449.762L213.397 441.157C178.06 409.117 171.283 351.585 180.134 306.529L182.315 296.053C182.635 294.641 183.509 292.809 183.372 291.38L183.308 290.886C182.831 288.85 190.003 273.167 191.187 271.073C194.29 265.58 194.591 268.234 194.592 261.555L194.581 245.165C194.588 219.309 198.739 191.918 217.239 172.259C220.923 168.344 225.345 165.427 229.484 162.046C242.102 155.45 245.158 150.912 255.466 141.393L255.667 141.209C261.25 134.198 268.487 127.51 275.514 121.946L281.687 117.271C283.162 116.26 284.934 115.908 285.329 114.063Z"/>
	<path fill="#A7B9A1" transform="scale(0.8 0.8)" d="M359.302 179.914C358.724 183.542 361.057 187.727 362.48 190.938L367.109 201.641C365.806 199.217 364.49 196.775 363.438 194.219L362.656 192.5C361.832 190.333 360.728 188.306 359.99 186.094L359.531 184.688C359.338 184.119 359.248 183.521 359.062 182.969L358.672 180.391C357.955 180.489 358.068 180.43 357.5 180.077L356.406 179.841C356.003 179.656 355.597 179.679 355.142 179.451L354.688 179.216C353.732 178.844 354.525 179.327 353.672 178.758L353.203 178.436C351.763 177.538 346.036 171.48 346.878 169.375L346.722 168.594C346.953 167.625 346.769 166.896 346.722 165.938L346.719 165.466C346.717 166.569 346.097 169.83 346.097 167.031L345.312 166.875C344.861 167.234 345.088 167.186 344.689 167.186L344.222 166.406C344.689 165.939 344.532 165.789 344.534 165.156L345.234 164.766C345.265 165.363 345.233 165.648 345.547 166.172L345.625 164.375C345.196 163.836 345.359 164.145 345.159 163.438L345.469 162.972C346.139 164.298 345.784 162.691 345.784 162.188L346.564 160.939C346.801 160.407 347.414 159.536 348.047 159.377L348.284 158.906C351.437 154.626 354.292 150.128 360.069 148.982L360.469 148.909C361.962 148.618 363.357 148.914 364.806 148.677L365.156 148.597C365.972 149.274 366.104 148.735 366.875 148.986L367.341 149.219C369.021 149.779 370.669 150.182 371.489 151.785C350.814 140.299 335.785 174.424 359.302 179.914Z"/>
	<path fill="#A7B9A1" transform="scale(0.8 0.8)" d="M273.632 202.689C274.141 201.316 275.559 199.616 275.238 198.125L275.085 197.633C274.246 194.823 274.838 190.907 275.727 188.185L275.911 187.612C276.094 187.117 276.377 186.797 276.719 186.409C276.871 187.77 275.769 189.221 275.469 190.625L275.381 190.965C275.162 192.06 275.042 195.063 275.625 195.938L275.634 196.224C275.659 196.919 275.796 197.323 275.938 197.969L276.016 198.595C277.137 198.276 277.845 197.592 279.062 197.656L279.728 197.335C282.717 197.251 285.573 196.689 288.594 196.722L288.906 197.015C289.637 197.036 290.138 197.123 290.781 196.722L292.5 196.493C293.693 196.545 296.039 195.921 297.188 195.548L297.949 195.504C298.514 195.486 298.979 195.417 299.531 195.312L300.019 195.236C300.719 195.122 301.018 194.966 301.562 194.534L301.899 194.696C302.671 195.004 305.542 193.836 306.094 193.284L306.875 193.284C308.741 193.284 310.785 193.448 312.658 193.672L313.125 193.284C313.54 193.025 314.145 193.121 314.609 192.814L315.957 192.816C316.464 192.613 316.812 192.635 317.344 192.659L317.659 192.656L318.125 192.347C319.042 193.244 319.292 193.111 320.625 193.048L325.506 192.736C328.579 193.238 335.429 191.477 337.5 193.125L338.125 193.048C340.04 192.902 342.72 193.467 344.531 194.062L345.723 194.307C346.537 194.469 347.07 194.37 347.812 194.923L349.219 195.159C350.049 195.713 350.344 195.991 351.406 196.097L354.421 197.725C354.7 197.892 355.03 197.962 355.311 198.127L355.938 198.75C358.007 200.428 363.922 204.617 364.686 207.266L367.344 210.938C367.928 211.426 368.113 211.518 368.436 212.189L369.841 214.062C370.888 215.461 372.358 217.532 373.047 219.141L374.844 221.722C375.234 220.543 375.073 218.83 374.688 217.656L374.609 217.251C374.51 216.755 374.602 216.971 374.298 216.562L374.278 214.844C375.153 217.663 375.981 220.198 374.966 223.076C370.764 216.037 363.775 204.801 357.099 200.158L355.739 199.228C340.111 189.066 307.027 193.988 289.888 197.609C286.993 198.314 284.262 199.512 281.647 200.921L267.166 214.142C266.827 214.471 266.955 214.353 266.495 214.646L266.056 215.08C266.044 212.96 265.712 205.064 266.85 203.281L266.875 205.781C266.587 207.093 266.758 208.11 266.639 209.375L268.359 210.47C268.653 210.139 268.687 209.825 269.067 209.445L270.234 207.97C270.929 206.82 271.942 205.885 272.578 204.689L273.632 202.689Z"/>
	<path fill="#A66CA4" transform="scale(0.8 0.8)" d="M280.33 200.826L281.647 200.921L267.166 214.142C266.827 214.471 266.955 214.353 266.495 214.646C268.279 211.266 270.651 208.408 272.879 205.324C273.837 205.143 274.507 204.954 275.279 204.335L280.33 200.826Z"/>
	<path fill="#5A7664" transform="scale(0.8 0.8)" d="M359.302 179.914C335.785 174.424 350.814 140.299 371.489 151.785C375.782 155.726 377.269 160.62 376.311 166.25L376.236 166.73C374.909 174.712 367.33 180.471 359.302 179.914Z"/>
	<path fill="#F5F7F4" transform="scale(0.8 0.8)" d="M359.534 156.719C367.402 156.886 367.933 167.647 359.34 169.21C348.743 168.36 353.058 158.258 359.534 156.719Z"/>
	<path fill="#5A7664" transform="scale(0.8 0.8)" d="M266.907 153.312C270.974 150.338 274.862 148.96 279.94 149.716C300.142 152.721 297.298 182.05 276.564 179.845C264.432 177.685 259.481 162.609 266.907 153.312Z"/>
	<path fill="#F5F7F4" transform="scale(0.8 0.8)" d="M280.968 156.593C285.8 156.259 290.238 160.356 288.9 165.453L288.806 165.781C288.228 167.857 286.948 168.506 284.988 169.238C276.308 169.764 273.812 160.518 280.968 156.593Z"/>
	<path fill="#F5F7F4" transform="scale(0.8 0.8)" d="M289.888 197.609C307.027 193.988 340.111 189.066 355.739 199.228L357.099 200.158C363.775 204.801 370.764 216.037 374.966 223.076C376.244 226.802 378.212 230.205 379.3 234.062C379.444 234.574 379.912 237.228 380.183 237.453C383.17 238.596 385.278 248.762 387.276 252.741C391.154 260.467 404.631 277.804 405.435 285.301C415.082 309.265 418.776 343.833 418.783 369.222C418.791 398.458 412.584 431.356 385.381 447.719L348.237 464.8L348.702 468.148L348.374 468.257C347.406 468.721 346.888 469.874 346.094 470.577C340.158 475.83 315.483 476.443 306.357 474.762L296.887 473.477C295.914 473.34 295.239 472.951 294.6 472.188L294.28 471.622C293.948 471.036 293.733 470.88 293.125 470.577L292.653 470.331C292.138 470.076 292.305 470.15 291.742 470.012L292.896 464.576L257.686 448.902C254.841 446.747 251.88 444.844 249.13 442.549C225.488 422.822 221.443 395.383 221.467 366.796C221.49 339.527 225.604 310.732 234.164 284.726C237.203 271.839 249.125 250.504 257.606 239.277L266.056 215.08L266.495 214.646C266.955 214.353 266.827 214.471 267.166 214.142L281.647 200.921C284.262 199.512 286.993 198.314 289.888 197.609Z"/>
	<path fill="#E2E0B9" transform="scale(0.8 0.8)" d="M380.229 237.453C383.17 238.596 385.278 248.762 387.276 252.741C391.154 260.467 404.631 277.804 405.435 285.301C404.393 286.157 403.587 287.59 402.817 288.698L398.749 294.158C368.529 332.608 277.07 335.514 244.602 297.299C242.875 295.266 236.396 285.383 234.622 284.839L234.164 284.726C237.203 271.839 249.125 250.504 257.606 239.277L258.316 247.532C261.825 279.378 297.913 300.422 327.847 296.786C357.224 293.217 384.268 268.772 380.229 237.453Z"/>
	<path fill="#DD838D" transform="scale(0.8 0.8)" d="M289.888 197.609C307.027 193.988 340.111 189.066 355.739 199.228L357.099 200.158C363.775 204.801 370.764 216.037 374.966 223.076C376.244 226.802 378.212 230.205 379.3 234.062C379.444 234.574 379.912 237.228 380.183 237.453C384.268 268.772 357.224 293.217 327.847 296.786C297.913 300.422 261.825 279.378 258.316 247.532L257.615 239.277L266.056 215.08L266.495 214.646C266.955 214.353 266.827 214.471 267.166 214.142L281.647 200.921C284.262 199.512 286.993 198.314 289.888 197.609Z"/>
	<path fill="#1B151F" transform="scale(0.8 0.8)" d="M328.847 260.018L332.675 228.789C335.01 228.004 340.037 226.635 342.412 227.44C346.33 228.767 353.033 247.268 351.29 251.793L351.119 252.107C350.793 250.321 350.598 248.417 349.531 246.904C341.804 247.099 335.043 260.47 330.631 264.589C329.658 263.021 329.161 261.849 328.847 260.018Z"/>
	<path fill="#1B151F" transform="scale(0.8 0.8)" d="M288.058 257.462L287.483 256.574C285.399 252.776 285.931 247.821 287.237 243.838C290.834 232.878 300.128 229.97 310.493 229.01L310.387 229.352C307.88 237.754 308.508 248.211 308.762 256.833L309.183 264.031L307.604 264.916C305.688 261.571 305.629 257.969 305.223 254.223C300.64 252.965 293.338 252.875 288.75 254.109C287.979 255.271 288.113 256.118 288.058 257.462Z"/>
	<path fill="#F5F7F4" transform="scale(0.8 0.8)" d="M328.847 260.018C329.161 261.849 329.658 263.021 330.631 264.589C335.043 260.47 341.804 247.099 349.531 246.904C350.598 248.417 350.793 250.321 351.119 252.107C351.647 265.1 355.576 268.913 338.979 269.279L294.376 269.001C292.421 268.873 290.403 268.882 288.479 268.503L288.254 257.462C288.113 256.118 287.979 255.271 288.75 254.109C293.338 252.875 300.64 252.965 305.223 254.223C305.629 257.969 305.688 261.571 307.604 264.916L309.183 264.031C311.692 261.321 311.685 257.333 315.122 255.439C322.57 251.336 326.315 252.76 328.847 260.018Z"/>
</svg>
